<?xml version="1.0" standalone="no"?>
<!DOCTYPE svg PUBLIC "-//W3C//DTD SVG 20010904//EN"
 "http://www.w3.org/TR/2001/REC-SVG-20010904/DTD/svg10.dtd">
<svg version="1.0" xmlns="http://www.w3.org/2000/svg"
 width="3506.000000pt" height="3506.000000pt" viewBox="0 0 3506.000000 3506.000000"
 preserveAspectRatio="xMidYMid meet">

<g transform="translate(0.000000,3506.000000) scale(0.100000,-0.100000)"
fill="#000000" stroke="none">
<path d="M16970 27342 c-53 -25 -65 -26 -275 -32 -200 -6 -223 -9 -255 -28
-31 -19 -60 -22 -240 -32 -186 -10 -210 -13 -265 -37 -48 -21 -82 -28 -175
-33 -63 -4 -125 -12 -138 -19 -28 -15 -195 -51 -236 -51 -16 0 -50 -10 -75
-22 -30 -14 -84 -27 -154 -35 -77 -8 -123 -19 -161 -38 -28 -14 -77 -28 -107
-32 -30 -3 -65 -14 -79 -24 -14 -11 -64 -25 -112 -32 -63 -10 -97 -21 -120
-39 -25 -19 -51 -27 -108 -32 -56 -6 -81 -13 -102 -31 -16 -14 -49 -27 -76
-31 -26 -4 -65 -17 -87 -30 -22 -13 -65 -28 -95 -35 -30 -6 -64 -19 -75 -29
-28 -25 -60 -40 -85 -40 -12 0 -40 -11 -63 -24 -23 -13 -68 -30 -100 -37 -36
-8 -62 -19 -68 -30 -10 -19 -66 -39 -111 -39 -16 0 -41 -12 -61 -29 -18 -16
-46 -33 -63 -37 -16 -3 -38 -15 -49 -25 -11 -9 -49 -25 -84 -34 -42 -11 -71
-25 -82 -40 -10 -12 -35 -26 -55 -30 -20 -3 -49 -15 -63 -26 -15 -11 -51 -26
-81 -34 -30 -8 -56 -19 -58 -25 -8 -22 -33 -38 -70 -45 -27 -4 -46 -15 -61
-36 -12 -16 -29 -29 -37 -29 -9 0 -29 -11 -46 -25 -16 -13 -47 -29 -70 -36
-23 -6 -50 -22 -60 -35 -12 -15 -34 -26 -58 -30 -26 -4 -45 -15 -59 -35 -12
-16 -30 -29 -40 -29 -9 0 -40 -16 -67 -35 -27 -19 -55 -35 -63 -35 -7 0 -22
-11 -33 -25 -10 -13 -37 -30 -60 -37 -22 -6 -47 -22 -55 -34 -8 -13 -25 -26
-36 -30 -12 -4 -35 -17 -50 -30 -15 -13 -46 -29 -67 -35 -22 -7 -40 -18 -40
-24 0 -16 -33 -45 -52 -45 -9 0 -22 -7 -29 -17 -8 -9 -36 -26 -63 -39 -26 -12
-54 -33 -60 -46 -6 -12 -20 -25 -31 -27 -11 -2 -31 -13 -45 -25 -14 -11 -45
-30 -68 -40 -23 -10 -42 -25 -42 -33 0 -8 -14 -20 -31 -27 -17 -7 -36 -23 -42
-36 -7 -13 -25 -28 -42 -33 -34 -11 -145 -93 -145 -107 0 -6 -16 -16 -35 -24
-20 -9 -35 -22 -35 -31 0 -9 -13 -22 -29 -28 -16 -6 -34 -21 -40 -34 -6 -13
-22 -28 -35 -33 -13 -5 -27 -18 -30 -28 -4 -11 -20 -25 -36 -32 -16 -7 -32
-21 -35 -31 -4 -11 -19 -26 -35 -34 -16 -8 -41 -26 -56 -40 -15 -14 -38 -28
-51 -31 -13 -4 -30 -19 -38 -34 -8 -15 -25 -30 -39 -34 -14 -3 -26 -16 -30
-31 -4 -15 -16 -27 -30 -31 -13 -3 -28 -17 -35 -30 -6 -13 -22 -29 -35 -35
-13 -7 -27 -22 -30 -35 -4 -14 -16 -26 -30 -30 -15 -3 -29 -17 -34 -34 -6 -16
-20 -30 -35 -34 -15 -3 -27 -15 -31 -31 -4 -15 -16 -27 -30 -31 -15 -3 -27
-16 -31 -31 -3 -15 -17 -29 -35 -36 -16 -6 -31 -21 -35 -34 -3 -13 -16 -25
-29 -29 -15 -3 -29 -17 -34 -34 -6 -16 -20 -30 -35 -34 -15 -3 -27 -15 -31
-31 -4 -15 -16 -27 -30 -31 -15 -3 -27 -16 -31 -31 -3 -15 -17 -29 -35 -36
-17 -6 -30 -19 -30 -28 0 -9 -12 -29 -26 -45 -14 -16 -34 -45 -44 -65 -10 -19
-30 -40 -44 -47 -14 -6 -26 -18 -26 -26 0 -8 -12 -24 -27 -36 -15 -11 -35 -34
-45 -50 -10 -17 -25 -30 -33 -30 -8 0 -15 -9 -15 -20 0 -13 -12 -28 -30 -38
-16 -9 -32 -27 -35 -39 -3 -12 -14 -27 -24 -33 -19 -10 -102 -128 -114 -163
-4 -9 -18 -22 -32 -29 -14 -6 -25 -17 -25 -25 0 -8 -12 -25 -27 -39 -29 -27
-87 -113 -104 -157 -6 -15 -21 -30 -34 -33 -14 -3 -26 -16 -30 -32 -3 -14 -16
-36 -28 -48 -12 -12 -29 -42 -37 -66 -9 -25 -25 -47 -37 -53 -12 -5 -25 -21
-28 -35 -3 -14 -19 -41 -34 -60 -16 -19 -32 -46 -36 -60 -4 -14 -21 -40 -36
-58 -16 -18 -29 -39 -29 -48 0 -8 -16 -30 -35 -50 -19 -19 -35 -41 -35 -49 0
-8 -11 -22 -24 -30 -15 -10 -27 -30 -31 -52 -3 -20 -19 -49 -35 -64 -16 -16
-31 -43 -35 -59 -4 -17 -17 -43 -29 -58 -13 -15 -27 -38 -31 -51 -4 -14 -20
-42 -36 -64 -16 -22 -29 -49 -29 -59 0 -11 -13 -31 -29 -46 -16 -15 -34 -45
-40 -68 -6 -22 -22 -50 -36 -62 -14 -12 -25 -27 -25 -33 0 -6 -13 -39 -29 -73
-16 -33 -34 -80 -40 -102 -7 -24 -21 -48 -35 -57 -14 -9 -26 -30 -30 -49 -3
-19 -19 -61 -36 -93 -16 -33 -30 -66 -30 -74 0 -7 -13 -28 -29 -46 -22 -25
-30 -47 -35 -95 -5 -46 -13 -68 -30 -84 -14 -13 -29 -48 -40 -89 -9 -38 -25
-81 -35 -95 -11 -15 -22 -44 -25 -64 -4 -21 -17 -50 -30 -66 -14 -16 -29 -53
-37 -91 -6 -34 -22 -78 -35 -97 -13 -19 -24 -45 -24 -57 0 -12 -14 -49 -31
-82 -20 -39 -33 -81 -36 -120 -3 -36 -15 -78 -30 -105 -13 -24 -32 -81 -42
-127 -11 -46 -25 -93 -33 -106 -8 -12 -18 -45 -22 -73 -3 -28 -18 -75 -32
-104 -19 -39 -30 -86 -39 -167 -9 -74 -20 -127 -34 -154 -12 -22 -21 -54 -21
-72 0 -28 -11 -76 -60 -267 -5 -19 -10 -66 -10 -104 0 -75 -14 -137 -40 -176
-12 -18 -19 -59 -24 -140 -4 -63 -11 -167 -15 -230 -5 -72 -14 -130 -25 -155
-14 -31 -19 -79 -22 -215 -6 -185 -15 -253 -45 -310 -18 -32 -19 -66 -19 -500
0 -471 4 -541 39 -655 13 -40 21 -111 26 -210 4 -89 14 -180 25 -225 12 -46
23 -147 29 -259 6 -101 15 -198 20 -215 27 -92 45 -180 52 -258 4 -48 13 -97
20 -110 12 -22 27 -103 49 -262 6 -39 19 -87 30 -108 11 -21 20 -53 20 -70 0
-61 22 -164 47 -217 13 -29 27 -70 30 -90 4 -20 12 -45 19 -56 7 -11 22 -64
33 -118 11 -55 31 -117 44 -140 18 -30 28 -66 33 -117 5 -57 13 -82 30 -103
13 -15 26 -44 30 -65 3 -20 15 -50 25 -65 11 -15 27 -62 36 -105 9 -42 22 -82
30 -88 16 -14 43 -77 43 -102 0 -11 10 -39 23 -63 13 -24 29 -66 37 -93 7 -26
24 -59 36 -71 15 -15 25 -41 30 -74 4 -33 17 -66 35 -91 16 -21 31 -52 35 -67
4 -15 17 -46 29 -68 13 -22 25 -52 29 -67 3 -15 20 -43 37 -62 21 -25 31 -49
36 -86 4 -34 12 -54 23 -60 10 -5 25 -30 34 -55 8 -26 27 -60 41 -76 14 -17
25 -39 25 -49 0 -10 16 -37 35 -60 19 -23 35 -49 35 -57 0 -16 35 -79 57 -101
7 -7 13 -19 13 -26 0 -8 9 -20 20 -27 12 -8 26 -36 34 -65 7 -28 25 -62 40
-77 14 -14 26 -32 26 -39 0 -7 16 -35 35 -62 19 -27 35 -55 35 -61 0 -6 14
-21 30 -33 17 -13 30 -28 30 -35 0 -7 16 -34 35 -61 19 -27 35 -55 35 -62 0
-7 9 -19 20 -27 11 -7 27 -31 36 -53 9 -21 29 -54 45 -72 16 -18 29 -39 29
-46 0 -7 11 -23 25 -36 14 -13 25 -29 25 -37 0 -7 12 -20 26 -30 15 -9 34 -33
43 -53 18 -40 50 -84 99 -136 17 -19 32 -39 32 -44 0 -5 16 -26 35 -47 19 -21
35 -43 35 -50 0 -7 14 -28 30 -46 17 -19 30 -40 30 -46 0 -6 14 -17 30 -26 16
-9 30 -20 30 -26 0 -5 15 -25 33 -44 17 -18 58 -68 91 -109 32 -42 62 -76 66
-76 4 0 13 -13 20 -29 6 -16 20 -31 31 -34 11 -3 24 -19 30 -35 6 -17 19 -32
30 -35 10 -3 22 -13 26 -24 3 -10 20 -32 37 -50 17 -17 49 -52 71 -77 22 -25
46 -46 52 -46 7 0 21 -12 30 -27 10 -15 52 -60 93 -100 41 -40 81 -79 89 -86
18 -19 47 -48 70 -71 34 -32 44 -43 158 -160 46 -47 88 -86 94 -86 5 0 15 -11
21 -25 6 -14 16 -25 22 -25 6 0 24 -13 41 -30 57 -56 97 -90 105 -90 5 0 27
-17 48 -38 80 -78 183 -167 207 -179 14 -8 25 -18 25 -23 0 -5 18 -21 40 -35
22 -14 40 -31 40 -39 0 -7 12 -16 28 -19 15 -3 39 -17 53 -30 14 -14 40 -32
57 -41 17 -9 37 -25 44 -35 8 -11 26 -25 41 -32 15 -7 29 -20 32 -30 3 -10 16
-21 28 -25 12 -3 33 -17 47 -29 14 -13 44 -31 66 -40 23 -9 46 -26 52 -39 7
-15 22 -26 44 -30 19 -3 48 -20 66 -36 18 -17 40 -30 47 -30 8 0 24 -13 37
-30 12 -16 27 -30 34 -30 7 0 25 -12 41 -26 15 -14 49 -34 74 -46 26 -11 50
-26 53 -34 3 -8 12 -14 21 -14 8 0 32 -15 52 -33 21 -18 53 -39 71 -47 18 -7
38 -20 45 -30 7 -9 23 -20 37 -25 14 -4 41 -19 60 -35 20 -15 49 -30 66 -34
16 -4 41 -17 54 -29 14 -13 46 -31 72 -41 26 -9 50 -22 54 -27 3 -5 28 -21 55
-35 28 -13 52 -31 55 -39 3 -7 28 -19 55 -25 30 -7 56 -21 68 -36 10 -13 26
-24 34 -24 22 0 68 -20 92 -40 11 -9 40 -22 65 -29 25 -7 56 -23 70 -36 14
-12 42 -26 62 -29 21 -4 50 -17 65 -30 15 -12 48 -28 73 -35 25 -7 58 -24 73
-37 17 -14 42 -24 60 -24 36 0 117 -34 117 -49 0 -5 26 -15 58 -21 31 -7 75
-23 97 -35 22 -13 56 -26 76 -29 21 -4 53 -17 73 -31 19 -13 61 -29 92 -34 32
-6 73 -20 93 -32 20 -12 70 -30 111 -41 41 -11 80 -24 86 -29 6 -5 47 -19 90
-30 44 -11 89 -27 102 -35 13 -8 67 -22 120 -30 60 -9 107 -21 122 -33 14 -10
49 -23 77 -29 28 -6 75 -21 105 -32 29 -12 91 -25 137 -30 53 -6 102 -18 135
-34 35 -17 83 -28 151 -36 141 -15 157 -19 174 -34 9 -7 67 -18 136 -24 183
-18 262 -30 292 -45 19 -10 81 -16 183 -20 115 -5 173 -11 225 -27 50 -15 120
-24 240 -31 94 -5 206 -14 250 -19 158 -20 1048 -5 1290 21 55 6 138 14 185
19 47 5 103 13 125 18 22 5 119 12 215 15 146 5 183 9 220 26 27 12 105 28
191 39 79 11 158 26 176 35 19 10 81 21 155 28 93 9 136 18 177 36 41 20 79
27 173 34 94 7 125 13 146 29 15 11 54 26 87 33 33 7 72 20 86 30 36 24 85 37
139 37 25 0 55 6 67 13 69 39 92 48 142 54 31 3 69 16 88 28 18 13 60 28 94
34 36 6 71 19 83 30 14 13 49 25 96 32 48 8 80 19 90 31 8 9 41 24 73 32 32 8
71 24 87 36 16 11 55 25 87 31 41 8 64 18 78 35 15 19 35 27 84 34 46 6 71 16
90 34 14 13 39 28 55 32 16 4 45 18 64 31 20 13 53 26 75 30 22 3 54 18 72 35
22 18 49 30 79 34 30 5 50 13 56 25 6 10 34 25 64 33 34 10 59 25 69 40 10 15
30 26 54 31 20 4 52 20 71 36 18 16 41 29 52 29 10 0 23 6 27 14 8 14 80 56
96 56 5 0 22 14 37 30 21 22 37 30 62 30 26 0 39 7 56 30 13 17 31 30 40 30
10 0 36 13 58 29 22 16 52 33 66 36 15 4 30 16 34 27 3 11 22 27 42 35 21 8
52 28 70 44 18 16 41 29 52 29 11 0 24 9 30 20 6 10 29 28 53 38 23 11 55 31
70 46 15 14 37 26 48 26 11 0 22 7 26 15 3 9 24 25 47 37 22 11 56 34 74 49
18 16 37 29 43 29 6 0 24 12 40 28 55 52 79 71 123 97 24 14 47 33 50 41 3 8
19 20 35 25 16 6 37 21 46 35 8 13 21 24 27 24 6 0 26 15 44 32 34 35 78 73
159 137 28 22 64 53 80 69 17 16 38 32 48 35 9 4 17 13 17 21 0 9 12 23 28 33
25 17 52 40 112 98 14 14 29 25 33 25 6 0 172 166 439 438 7 7 51 50 98 97
127 125 141 140 174 180 14 17 41 47 61 68 19 21 35 41 35 45 0 4 28 37 63 74
80 85 137 154 137 165 0 5 15 24 33 41 50 50 80 85 97 113 21 38 75 110 99
135 11 11 25 33 31 48 5 15 19 30 30 33 11 3 23 16 26 28 3 13 17 34 30 46 14
13 33 42 44 65 10 23 28 47 39 53 12 7 21 18 21 27 0 8 11 26 25 40 14 14 34
42 44 63 11 20 26 43 35 50 8 7 20 28 26 46 6 19 19 37 29 40 9 3 28 30 40 60
13 30 27 55 32 55 5 0 18 19 28 43 10 23 28 50 39 61 12 10 24 31 27 47 4 16
17 37 30 47 13 10 29 37 36 60 6 23 23 51 35 63 13 13 24 30 24 38 0 9 18 42
40 75 22 32 40 64 40 71 0 6 9 20 20 30 10 9 26 39 35 66 9 27 25 55 35 62 10
7 24 32 31 56 7 24 23 50 35 57 15 10 24 30 29 61 4 27 16 55 29 68 13 13 29
45 35 72 7 26 23 59 35 73 13 14 27 42 30 62 4 21 17 50 31 66 13 15 30 53 38
85 8 31 24 68 36 83 12 15 21 34 21 43 0 32 21 92 39 109 10 9 25 48 34 86 10
38 25 78 34 89 10 10 23 46 30 79 7 34 21 70 32 82 10 12 22 41 26 66 10 70
25 109 44 120 12 6 21 27 25 61 4 28 18 73 30 98 13 25 29 78 36 118 7 45 20
83 36 104 14 20 24 47 24 68 1 46 35 172 49 180 6 4 15 41 21 82 10 79 21 124
39 157 6 11 18 67 26 124 9 56 24 121 35 143 13 28 22 82 30 175 12 153 16
171 40 220 11 22 21 72 25 130 7 101 29 244 45 295 5 16 14 125 19 240 9 167
16 230 36 310 22 88 26 128 31 330 8 320 -9 1061 -25 1100 -23 56 -42 240 -47
475 -5 185 -10 247 -24 290 -10 30 -26 107 -35 170 -10 63 -28 153 -40 200
-13 47 -26 125 -29 173 -3 49 -9 94 -15 100 -15 19 -49 147 -56 210 -4 32 -15
77 -25 100 -10 23 -23 76 -30 117 -7 41 -18 82 -25 90 -18 20 -45 116 -45 158
0 18 -11 52 -24 75 -13 23 -31 79 -40 124 -8 44 -24 96 -35 115 -10 18 -22 52
-26 75 -4 23 -17 53 -30 67 -23 25 -28 40 -41 126 -3 25 -14 54 -25 65 -10 11
-25 46 -33 78 -8 32 -25 74 -36 92 -11 19 -25 60 -30 91 -5 32 -16 61 -23 66
-17 9 -44 71 -52 119 -3 20 -14 44 -24 53 -10 9 -24 38 -32 64 -7 26 -23 57
-35 69 -15 14 -25 38 -30 72 -5 36 -13 54 -29 65 -13 8 -27 34 -35 63 -7 26
-23 60 -36 75 -12 15 -25 45 -29 66 -4 23 -16 48 -30 60 -13 12 -29 40 -35 63
-7 23 -22 51 -35 61 -12 10 -26 30 -30 45 -3 16 -17 42 -29 58 -13 17 -29 47
-35 68 -7 21 -23 49 -36 63 -13 14 -27 39 -30 56 -4 17 -22 51 -41 75 -19 25
-34 50 -34 56 0 6 -10 22 -23 36 -13 15 -29 45 -36 68 -6 24 -21 47 -31 53
-11 6 -27 26 -35 45 -7 19 -18 35 -23 35 -5 0 -19 22 -31 50 -12 27 -32 61
-46 74 -14 14 -25 32 -25 40 0 9 -9 21 -21 28 -11 7 -30 33 -41 58 -11 25 -29
51 -39 58 -11 7 -19 19 -19 27 0 8 -18 35 -40 60 -22 25 -40 51 -40 57 0 6
-13 26 -30 45 -16 18 -30 40 -30 48 0 7 -13 23 -30 35 -16 12 -30 27 -30 33 0
6 -12 23 -26 37 -47 46 -92 110 -104 145 -6 19 -20 37 -30 40 -10 3 -28 21
-39 40 -11 19 -25 35 -30 35 -5 0 -18 13 -27 29 -10 16 -25 32 -35 34 -10 3
-24 21 -32 40 -8 19 -45 65 -81 101 -36 37 -66 73 -66 81 0 7 -9 16 -19 20
-10 3 -24 18 -31 34 -6 15 -24 38 -41 50 -16 12 -29 28 -29 36 0 7 -9 17 -21
20 -11 4 -25 18 -32 32 -6 13 -24 31 -39 39 -15 8 -28 19 -28 25 0 12 -158
169 -171 169 -5 0 -15 13 -24 29 -8 16 -23 32 -33 35 -11 4 -24 18 -30 31 -7
14 -23 30 -37 37 -13 6 -27 19 -31 30 -3 10 -19 25 -35 33 -16 9 -29 22 -29
30 0 8 -13 21 -29 30 -16 8 -33 24 -36 35 -4 12 -18 25 -31 30 -13 5 -29 21
-35 34 -7 13 -22 27 -35 30 -12 3 -26 15 -29 26 -4 11 -19 27 -35 35 -16 8
-35 23 -42 33 -7 9 -23 22 -34 27 -21 10 -136 109 -200 173 -18 17 -37 32 -43
32 -5 0 -19 12 -31 27 -11 14 -31 31 -43 37 -12 6 -26 21 -32 33 -5 12 -20 24
-35 26 -14 3 -39 19 -57 34 -18 16 -56 47 -84 69 -28 21 -63 51 -77 67 -15 15
-32 27 -39 27 -6 0 -27 14 -45 30 -18 17 -38 30 -44 30 -7 0 -27 14 -45 31
-18 16 -46 37 -63 45 -35 16 -107 66 -155 107 -18 15 -39 27 -46 27 -8 0 -20
8 -27 18 -7 10 -34 29 -60 42 -27 13 -48 27 -48 32 0 5 -20 17 -44 27 -24 11
-46 26 -49 35 -3 8 -22 22 -42 31 -20 8 -50 26 -67 40 -16 14 -36 25 -44 25
-8 0 -32 13 -54 29 -22 16 -55 32 -73 35 -19 3 -44 17 -57 31 -13 13 -44 31
-71 40 -26 9 -53 23 -60 31 -7 9 -30 24 -51 35 -22 11 -41 26 -44 34 -3 8 -20
17 -37 20 -18 4 -48 19 -67 35 -20 15 -51 31 -70 35 -35 7 -91 32 -100 44 -3
4 -25 13 -49 20 -24 7 -53 23 -65 35 -12 14 -39 26 -63 31 -24 4 -58 17 -76
29 -18 13 -55 31 -81 41 -26 10 -51 26 -57 37 -6 10 -21 18 -37 18 -42 0 -96
18 -119 40 -12 11 -43 24 -70 30 -60 13 -103 30 -103 41 0 4 -27 13 -61 20
-33 7 -77 23 -96 36 -20 14 -58 28 -84 32 -27 5 -65 19 -86 33 -21 14 -64 31
-95 37 -31 7 -67 20 -80 30 -13 10 -45 21 -73 25 -27 4 -77 19 -110 33 -33 13
-97 31 -142 38 -46 7 -98 22 -116 33 -19 11 -68 27 -108 37 -41 9 -85 23 -98
32 -14 9 -60 19 -104 24 -43 4 -108 19 -145 32 -37 14 -109 30 -159 37 -51 6
-121 20 -155 31 -35 10 -113 23 -173 29 -104 9 -207 32 -230 50 -6 5 -87 14
-180 20 -123 9 -186 17 -230 33 -51 18 -92 22 -270 26 -203 6 -212 7 -266 34
l-56 27 -499 -1 -499 0 -55 -27z m5656 -2197 c731 -489 1405 -1099 1978 -1790
907 -1094 1560 -2426 1870 -3816 134 -601 200 -1150 220 -1836 l6 -173 -3435
0 -3435 0 0 64 c0 177 -46 442 -111 642 -162 500 -478 914 -920 1210 -63 42
-115 77 -117 79 -2 2 3340 5798 3409 5912 l20 32 152 -92 c84 -50 247 -155
363 -232z m-7960 -2645 c939 -1625 1707 -2960 1708 -2966 0 -7 -49 -45 -111
-87 -575 -385 -939 -975 -1018 -1653 -8 -71 -15 -159 -15 -196 l0 -68 -3433 0
-3433 0 3 163 c29 1559 441 3052 1215 4401 765 1332 1879 2471 3203 3275 82
51 155 90 162 89 7 -2 781 -1333 1719 -2958z m3095 -2700 c616 -63 1198 -387
1577 -878 531 -690 623 -1631 235 -2406 -227 -454 -579 -805 -1035 -1031 -534
-265 -1151 -308 -1726 -120 -837 275 -1444 1021 -1547 1903 -100 850 288 1685
1005 2164 285 190 674 331 1011 367 121 12 360 13 480 1z m-1241 -4332 c225
-111 422 -173 675 -215 155 -25 515 -25 670 0 256 42 463 108 684 217 75 38
137 67 137 67 11 -15 3424 -5933 3424 -5938 0 -25 -694 -377 -995 -504 -1229
-521 -2543 -767 -3867 -724 -1335 43 -2584 355 -3771 941 -309 153 -529 277
-522 295 3 9 638 1112 1412 2452 774 1340 1542 2671 1707 2958 166 287 303
521 306 520 3 -2 66 -33 140 -69z"/>
</g>
</svg>
