<svg width="121" height="102" viewBox="0 0 121 102" fill="none" xmlns="http://www.w3.org/2000/svg">
<g filter="url(#filter0_d_2371_480)">
<circle cx="60.3576" cy="60.3576" r="33.0085" stroke="white" stroke-opacity="0.2" stroke-width="3" shape-rendering="crispEdges"/>
</g>
<g filter="url(#filter1_d_2371_480)">
<mask id="path-2-inside-1_2371_480" fill="white">
<path d="M92.9152 60.3577C92.9152 64.6332 92.0731 68.8669 90.4369 72.8169C88.8007 76.767 86.4026 80.3561 83.3793 83.3793L60.3577 60.3577H92.9152Z"/>
</mask>
<path d="M92.9152 60.3577C92.9152 64.6332 92.0731 68.8669 90.4369 72.8169C88.8007 76.767 86.4026 80.3561 83.3793 83.3793L60.3577 60.3577H92.9152Z" fill="white" fill-opacity="0.2" shape-rendering="crispEdges"/>
<path d="M92.9152 60.3577C92.9152 64.6332 92.0731 68.8669 90.4369 72.8169C88.8007 76.767 86.4026 80.3561 83.3793 83.3793L60.3577 60.3577H92.9152Z" stroke="#FDFDFD" stroke-width="0.975505" shape-rendering="crispEdges" mask="url(#path-2-inside-1_2371_480)"/>
</g>
<g filter="url(#filter2_d_2371_480)">
<mask id="path-3-inside-2_2371_480" fill="white">
<path d="M83.9096 82.8365C80.8762 86.0147 77.2309 88.5461 73.1933 90.2781C69.1557 92.0102 64.8093 92.9072 60.4158 92.915L60.3578 60.3576L83.9096 82.8365Z"/>
</mask>
<path d="M83.9096 82.8365C80.8762 86.0147 77.2309 88.5461 73.1933 90.2781C69.1557 92.0102 64.8093 92.9072 60.4158 92.915L60.3578 60.3576L83.9096 82.8365Z" fill="white" fill-opacity="0.5" shape-rendering="crispEdges"/>
<path d="M83.9096 82.8365C80.8762 86.0147 77.2309 88.5461 73.1933 90.2781C69.1557 92.0102 64.8093 92.9072 60.4158 92.915L60.3578 60.3576L83.9096 82.8365Z" stroke="#FDFDFD" stroke-width="0.975505" shape-rendering="crispEdges" mask="url(#path-3-inside-2_2371_480)"/>
</g>
<g filter="url(#filter3_d_2371_480)">
<mask id="path-4-inside-3_2371_480" fill="white">
<path d="M60.9156 92.9103C56.6407 92.9836 52.3933 92.2142 48.4157 90.646C44.4382 89.0778 40.8085 86.7415 37.7339 83.7705L60.3574 60.3576L60.9156 92.9103Z"/>
</mask>
<path d="M60.9156 92.9103C56.6407 92.9836 52.3933 92.2142 48.4157 90.646C44.4382 89.0778 40.8085 86.7415 37.7339 83.7705L60.3574 60.3576L60.9156 92.9103Z" fill="white" fill-opacity="0.2" shape-rendering="crispEdges"/>
<path d="M60.9156 92.9103C56.6407 92.9836 52.3933 92.2142 48.4157 90.646C44.4382 89.0778 40.8085 86.7415 37.7339 83.7705L60.3574 60.3576L60.9156 92.9103Z" stroke="#FDFDFD" stroke-width="0.975505" shape-rendering="crispEdges" mask="url(#path-4-inside-3_2371_480)"/>
</g>
<g filter="url(#filter4_d_2371_480)">
<mask id="path-5-inside-4_2371_480" fill="white">
<path d="M37.8155 83.8496C34.7305 80.8895 32.2587 77.3507 30.5413 73.4352C28.8239 69.5198 27.8945 65.3045 27.8061 61.0299L60.3567 60.3573L37.8155 83.8496Z"/>
</mask>
<path d="M37.8155 83.8496C34.7305 80.8895 32.2587 77.3507 30.5413 73.4352C28.8239 69.5198 27.8945 65.3045 27.8061 61.0299L60.3567 60.3573L37.8155 83.8496Z" fill="white" fill-opacity="0.5" shape-rendering="crispEdges"/>
<path d="M37.8155 83.8496C34.7305 80.8895 32.2587 77.3507 30.5413 73.4352C28.8239 69.5198 27.8945 65.3045 27.8061 61.0299L60.3567 60.3573L37.8155 83.8496Z" stroke="#FDFDFD" stroke-width="0.975505" shape-rendering="crispEdges" mask="url(#path-5-inside-4_2371_480)"/>
</g>
<g filter="url(#filter5_d_2371_480)">
<mask id="path-6-inside-5_2371_480" fill="white">
<path d="M27.825 61.6419C27.4845 53.0138 30.5854 44.6038 36.4455 38.2621L60.3571 60.3579L27.825 61.6419Z"/>
</mask>
<path d="M27.825 61.6419C27.4845 53.0138 30.5854 44.6038 36.4455 38.2621L60.3571 60.3579L27.825 61.6419Z" fill="white" fill-opacity="0.2" shape-rendering="crispEdges"/>
<path d="M27.825 61.6419C27.4845 53.0138 30.5854 44.6038 36.4455 38.2621L60.3571 60.3579L27.825 61.6419Z" stroke="#FDFDFD" stroke-width="0.975505" shape-rendering="crispEdges" mask="url(#path-6-inside-5_2371_480)"/>
</g>
<g filter="url(#filter6_d_2371_480)">
<mask id="path-7-inside-6_2371_480" fill="white">
<path d="M35.9666 38.7911C39.0057 35.3541 42.7369 32.5983 46.9156 30.7042C51.0943 28.8101 55.6262 27.8205 60.214 27.8004L60.3567 60.3576L35.9666 38.7911Z"/>
</mask>
<path d="M35.9666 38.7911C39.0057 35.3541 42.7369 32.5983 46.9156 30.7042C51.0943 28.8101 55.6262 27.8205 60.214 27.8004L60.3567 60.3576L35.9666 38.7911Z" fill="white" fill-opacity="0.5" shape-rendering="crispEdges"/>
<path d="M35.9666 38.7911C39.0057 35.3541 42.7369 32.5983 46.9156 30.7042C51.0943 28.8101 55.6262 27.8205 60.214 27.8004L60.3567 60.3576L35.9666 38.7911Z" stroke="#FDFDFD" stroke-width="0.975505" shape-rendering="crispEdges" mask="url(#path-7-inside-6_2371_480)"/>
</g>
<g filter="url(#filter7_d_2371_480)">
<mask id="path-8-inside-7_2371_480" fill="white">
<path d="M59.7969 27.8049C68.4304 27.6562 76.7693 30.9432 82.9793 36.9429L60.3576 60.3576L59.7969 27.8049Z"/>
</mask>
<path d="M59.7969 27.8049C68.4304 27.6562 76.7693 30.9432 82.9793 36.9429L60.3576 60.3576L59.7969 27.8049Z" fill="white" fill-opacity="0.2" shape-rendering="crispEdges"/>
<path d="M59.7969 27.8049C68.4304 27.6562 76.7693 30.9432 82.9793 36.9429L60.3576 60.3576L59.7969 27.8049Z" stroke="#FDFDFD" stroke-width="0.975505" shape-rendering="crispEdges" mask="url(#path-8-inside-7_2371_480)"/>
</g>
<g filter="url(#filter8_d_2371_480)">
<mask id="path-9-inside-8_2371_480" fill="white">
<path d="M82.7777 36.7502C85.9989 39.8095 88.5599 43.4958 90.3032 47.582C92.0464 51.6682 92.9349 56.0679 92.9141 60.5103L60.3569 60.3574L82.7777 36.7502Z"/>
</mask>
<path d="M82.7777 36.7502C85.9989 39.8095 88.5599 43.4958 90.3032 47.582C92.0464 51.6682 92.9349 56.0679 92.9141 60.5103L60.3569 60.3574L82.7777 36.7502Z" fill="white" fill-opacity="0.5" shape-rendering="crispEdges"/>
<path d="M82.7777 36.7502C85.9989 39.8095 88.5599 43.4958 90.3032 47.582C92.0464 51.6682 92.9349 56.0679 92.9141 60.5103L60.3569 60.3574L82.7777 36.7502Z" stroke="#FDFDFD" stroke-width="0.975505" shape-rendering="crispEdges" mask="url(#path-9-inside-8_2371_480)"/>
</g>
<g filter="url(#filter9_d_2371_480)">
<circle cx="60.756" cy="60.7558" r="10.4685" fill="url(#paint0_radial_2371_480)"/>
<circle cx="60.756" cy="60.7558" r="10.2358" stroke="#FDFDFD" stroke-width="0.465265"/>
</g>
<path d="M69.1961 84.7432C69.1615 84.9708 69.0097 85.1624 68.7971 85.2477L68.7657 85.2603C68.4504 85.3867 68.0926 85.2337 67.9661 84.9183C67.8397 84.603 67.9927 84.2452 68.3081 84.1187L69.354 83.6994L69.1961 84.7432ZM71.0653 83.9938L70.2301 83.3482L71.276 82.9288C71.5914 82.8024 71.9492 82.9554 72.0756 83.2708C72.2021 83.5861 72.049 83.9439 71.7337 84.0704L71.7023 84.083C71.4897 84.1682 71.2462 84.135 71.0653 83.9938ZM69.9259 84.8531L70.0352 84.1302L70.6136 84.5774C71.0027 84.8785 71.5217 84.9504 71.9769 84.7679L72.0083 84.7553C72.7018 84.4773 73.0386 83.6897 72.7605 82.9962C72.6782 82.7907 72.5504 82.6167 72.3947 82.4803L72.9883 82.2424C73.2409 82.1411 73.3631 81.8553 73.2619 81.6027L73.0788 81.1461C72.9776 80.8935 72.6917 80.7713 72.4391 80.8725L66.0466 83.4354C65.794 83.5367 65.6718 83.8225 65.7731 84.0751L65.9561 84.5317C66.0574 84.7842 66.3432 84.9065 66.5958 84.8052L67.1894 84.5672C67.171 84.7734 67.1989 84.9875 67.2812 85.1929C67.5593 85.8864 68.3469 86.2232 69.0403 85.9452L69.0717 85.9326C69.5269 85.7501 69.8526 85.3396 69.9264 84.8546L69.9259 84.8531ZM65.772 82.7505L68.6258 81.6063L67.4359 78.6384L65.4953 79.4164C64.9916 79.6183 64.7463 80.192 64.9482 80.6957L65.772 82.7505ZM69.3107 81.3318L72.1646 80.1876L71.3408 78.1329C71.1388 77.6292 70.5651 77.3838 70.0614 77.5858L68.1208 78.3638L69.3107 81.3318Z" fill="white"/>
<path d="M73.4668 38.8217L68.4113 42.8138C68.3184 42.8867 68.2011 42.9214 68.0835 42.9106C67.9659 42.8998 67.8568 42.8443 67.7788 42.7557C67.7272 42.6966 67.6911 42.6255 67.6738 42.549L66.3374 36.2838C66.2999 36.1082 66.3121 35.9257 66.3726 35.7567C66.4654 35.5084 66.6529 35.3071 66.894 35.1968C67.135 35.0866 67.41 35.0766 67.6585 35.1688L73.1556 37.1238C73.6802 37.3103 73.9599 37.8761 73.7779 38.3877C73.7174 38.558 73.6097 38.7082 73.4664 38.8216M67.1744 36.3905L68.2381 40.8579L69.6593 36.8617L67.5508 36.1119C67.3072 36.0252 67.1406 36.1478 67.1748 36.3906M69.1092 41.1677L72.7548 38.375C72.9361 38.2089 72.8825 38.0079 72.6388 37.9213L70.5304 37.1715L69.1092 41.1677Z" fill="white"/>
<path d="M50.59 36.8284C50.6094 36.5991 50.748 36.3977 50.9545 36.2985L50.985 36.2838C51.2912 36.1367 51.6584 36.2655 51.8056 36.5717C51.9527 36.8779 51.8239 37.2451 51.5177 37.3923L50.5021 37.8804L50.59 36.8284ZM48.7749 37.7008L49.6513 38.2893L48.6357 38.7774C48.3294 38.9246 47.9622 38.7958 47.8151 38.4895C47.6679 38.1833 47.7967 37.8161 48.1029 37.6689L48.1334 37.6543C48.3399 37.5551 48.5851 37.572 48.7749 37.7008ZM49.8546 36.7674L49.7937 37.496L49.1867 37.0884C48.7785 36.8138 48.2558 36.7768 47.8138 36.9892L47.7833 37.0039C47.1099 37.3275 46.8263 38.1358 47.15 38.8092C47.2459 39.0087 47.3849 39.1738 47.5494 39.2995L46.973 39.5765C46.7277 39.6944 46.6248 39.9878 46.7427 40.233L46.9557 40.6764C47.0736 40.9216 47.367 41.0246 47.6122 40.9067L53.8197 37.9234C54.0649 37.8055 54.1679 37.5121 54.05 37.2669L53.8369 36.8235C53.719 36.5782 53.4257 36.4753 53.1804 36.5932L52.604 36.8702C52.6086 36.6633 52.5665 36.4516 52.4707 36.2521C52.147 35.5787 51.3387 35.2951 50.6653 35.6187L50.6348 35.6334C50.1928 35.8458 49.8952 36.2771 49.8539 36.766L49.8546 36.7674ZM54.1393 38.5885L51.3681 39.9203L52.7533 42.8023L54.6377 41.8967C55.1268 41.6616 55.3333 41.0728 55.0983 40.5837L54.1393 38.5885ZM50.7031 40.2399L47.9319 41.5718L48.8908 43.567C49.1259 44.0561 49.7146 44.2627 50.2038 44.0276L52.0882 43.122L50.7031 40.2399Z" fill="white"/>
<path d="M84.5753 50.897C84.8052 50.8853 85.0233 50.9956 85.1495 51.1868L85.1681 51.215C85.3552 51.4986 85.277 51.8798 84.9934 52.0669C84.7098 52.254 84.3285 52.1758 84.1415 51.8922L83.521 50.9515L84.5753 50.897ZM83.4664 49.2159L83.0013 50.1636L82.3808 49.223C82.1937 48.9394 82.2719 48.5581 82.5555 48.3711C82.8391 48.184 83.2204 48.2622 83.4074 48.5458L83.426 48.574C83.5522 48.7652 83.5685 49.0105 83.4664 49.2159ZM84.5367 50.16L83.8065 50.1978L84.1287 49.5415C84.3457 49.1 84.312 48.5771 84.042 48.1677L84.0234 48.1395C83.612 47.5158 82.7729 47.3437 82.1492 47.7551C81.9644 47.877 81.8195 48.037 81.7172 48.2169L81.365 47.683C81.2152 47.4559 80.9107 47.3934 80.6835 47.5433L80.2729 47.8141C80.0457 47.964 79.9833 48.2685 80.1331 48.4957L83.9253 54.2447C84.0751 54.4719 84.3797 54.5343 84.6068 54.3845L85.0175 54.1136C85.2446 53.9638 85.3071 53.6593 85.1572 53.4321L84.8051 52.8983C85.0107 52.875 85.2149 52.8048 85.3997 52.6829C86.0234 52.2715 86.1955 51.4324 85.7841 50.8087L85.7654 50.7805C85.4954 50.3711 85.028 50.1343 84.538 50.1592L84.5367 50.16ZM83.3093 54.651L81.6164 52.0845L78.9472 53.8452L80.0984 55.5904C80.3972 56.0434 81.0084 56.1688 81.4614 55.87L83.3093 54.651ZM81.2101 51.4685L79.5171 48.902L77.6692 50.1209C77.2162 50.4197 77.0908 51.0309 77.3896 51.4839L78.5409 53.2292L81.2101 51.4685Z" fill="white"/>
<path d="M39.4719 48.4285L43.4567 53.4896C43.5296 53.5826 43.5641 53.7 43.5531 53.8176C43.5421 53.9352 43.4865 54.0441 43.3978 54.122C43.3386 54.1736 43.2675 54.2096 43.1909 54.2267L36.9239 55.5543C36.7482 55.5915 36.5657 55.579 36.3968 55.5183C36.1486 55.4252 35.9476 55.2374 35.8377 54.9961C35.7278 54.7549 35.7182 54.48 35.8108 54.2316L37.7735 48.7372C37.9608 48.2129 38.5269 47.934 39.0383 48.1167C39.2085 48.1775 39.3586 48.2854 39.4718 48.4288M37.0317 54.7174L41.5007 53.66L37.5065 52.2332L36.7537 54.3406C36.6667 54.5841 36.789 54.7509 37.0319 54.717M41.8117 52.7893L39.0242 49.1398C38.8583 48.9583 38.6573 49.0116 38.5703 49.2551L37.8175 51.3625L41.8117 52.7893Z" fill="white"/>
<path d="M48.1271 81.2433L53.4183 77.5694C53.5155 77.5022 53.6347 77.4749 53.7514 77.4929C53.8682 77.5109 53.9736 77.5729 54.046 77.6662C54.0939 77.7284 54.1256 77.8015 54.1381 77.8789L55.0871 84.2144C55.1137 84.3919 55.0903 84.5734 55.0195 84.7384C54.9117 84.9805 54.7121 85.1699 54.4648 85.2651C54.2174 85.3603 53.9423 85.3535 53.7 85.2461L48.3333 82.9571C47.8212 82.7387 47.5768 82.1568 47.7898 81.6573C47.8608 81.4911 47.9774 81.3477 48.1274 81.2434M54.2582 84.0565L53.471 79.5321L51.807 83.4335L53.8654 84.3115C54.1032 84.4129 54.277 84.3008 54.2578 84.0564M52.6205 79.1694L48.8102 81.7329C48.6191 81.8876 48.6603 82.0914 48.8981 82.1928L50.9565 83.0708L52.6205 79.1694Z" fill="white"/>
<path d="M81.5552 73.6068L78.0987 68.1711C78.0356 68.0712 78.0131 67.951 78.0358 67.8351C78.0585 67.7192 78.1248 67.6164 78.2209 67.5478C78.285 67.5025 78.3593 67.4738 78.4372 67.4644L84.8059 66.7729C84.9844 66.7535 85.1647 66.7843 85.3267 66.8616C85.5643 66.9792 85.7455 67.1862 85.8306 67.4373C85.9156 67.6883 85.8977 67.9629 85.7806 68.2007L83.276 73.4702C83.037 73.973 82.4458 74.1937 81.9553 73.9605C81.792 73.883 81.6536 73.7606 81.5554 73.6065M84.6146 67.5947L80.062 68.198L83.8928 70.0187L84.8534 67.9975C84.9644 67.764 84.8594 67.5858 84.6144 67.5951M79.6651 69.033L82.0721 72.9441C82.2189 73.1413 82.4243 73.1084 82.5353 72.8749L83.4959 70.8537L79.6651 69.033Z" fill="white"/>
<path d="M37.2418 69.3683C37.0217 69.3009 36.8541 69.123 36.8007 68.9002L36.7928 68.8674C36.7135 68.537 36.9169 68.2052 37.2473 68.1259C37.5776 68.0466 37.9094 68.25 37.9887 68.5804L38.2516 69.6761L37.2418 69.3683ZM37.7118 71.3266L38.4719 70.594L38.7348 71.6897C38.8141 72.0201 38.6107 72.3519 38.2804 72.4312C37.95 72.5104 37.6182 72.3071 37.5389 71.9767L37.531 71.9438C37.4776 71.7211 37.5458 71.4849 37.7118 71.3266ZM37.0271 70.0743L37.7264 70.2875L37.2 70.7948C36.8455 71.136 36.6991 71.6391 36.8135 72.116L36.8214 72.1489C36.9957 72.8754 37.726 73.323 38.4525 73.1487C38.6678 73.097 38.8586 72.9959 39.0161 72.8617L39.1653 73.4836C39.2288 73.7482 39.4938 73.9106 39.7584 73.8471L40.2368 73.7324C40.5014 73.6689 40.6639 73.4038 40.6004 73.1392L38.9933 66.4422C38.9298 66.1776 38.6648 66.0151 38.4002 66.0786L37.9218 66.1934C37.6572 66.2569 37.4948 66.5219 37.5583 66.7865L37.7075 67.4084C37.5062 67.3603 37.2904 67.3567 37.0751 67.4084C36.3486 67.5827 35.9009 68.313 36.0753 69.0395L36.0832 69.0724C36.1976 69.5493 36.5564 69.9312 37.0256 70.0747L37.0271 70.0743ZM39.7109 66.27L40.4283 69.2597L43.5376 68.5136L43.0498 66.4806C42.9232 65.9529 42.3912 65.6268 41.8635 65.7534L39.7109 66.27ZM40.6005 69.9773L41.3179 72.967L43.4705 72.4505C43.9982 72.3239 44.3243 71.7919 44.1977 71.2642L43.7098 69.2312L40.6005 69.9773Z" fill="white"/>
<defs>
<filter id="filter0_d_2371_480" x="1.90735e-06" y="1.90735e-06" width="120.715" height="120.715" filterUnits="userSpaceOnUse" color-interpolation-filters="sRGB">
<feFlood flood-opacity="0" result="BackgroundImageFix"/>
<feColorMatrix in="SourceAlpha" type="matrix" values="0 0 0 0 0 0 0 0 0 0 0 0 0 0 0 0 0 0 127 0" result="hardAlpha"/>
<feOffset/>
<feGaussianBlur stdDeviation="12.9245"/>
<feComposite in2="hardAlpha" operator="out"/>
<feColorMatrix type="matrix" values="0 0 0 0 0.166667 0 0 0 0 0.0111111 0 0 0 0 0.118196 0 0 0 0.11 0"/>
<feBlend mode="normal" in2="BackgroundImageFix" result="effect1_dropShadow_2371_480"/>
<feBlend mode="normal" in="SourceGraphic" in2="effect1_dropShadow_2371_480" result="shape"/>
</filter>
<filter id="filter1_d_2371_480" x="35.9701" y="35.9701" width="81.3327" height="71.7969" filterUnits="userSpaceOnUse" color-interpolation-filters="sRGB">
<feFlood flood-opacity="0" result="BackgroundImageFix"/>
<feColorMatrix in="SourceAlpha" type="matrix" values="0 0 0 0 0 0 0 0 0 0 0 0 0 0 0 0 0 0 127 0" result="hardAlpha"/>
<feOffset/>
<feGaussianBlur stdDeviation="12.1938"/>
<feComposite in2="hardAlpha" operator="out"/>
<feColorMatrix type="matrix" values="0 0 0 0 0.166667 0 0 0 0 0.0111111 0 0 0 0 0.118196 0 0 0 0.11 0"/>
<feBlend mode="normal" in2="BackgroundImageFix" result="effect1_dropShadow_2371_480"/>
<feBlend mode="normal" in="SourceGraphic" in2="effect1_dropShadow_2371_480" result="shape"/>
</filter>
<filter id="filter2_d_2371_480" x="35.9702" y="35.97" width="72.3271" height="81.3327" filterUnits="userSpaceOnUse" color-interpolation-filters="sRGB">
<feFlood flood-opacity="0" result="BackgroundImageFix"/>
<feColorMatrix in="SourceAlpha" type="matrix" values="0 0 0 0 0 0 0 0 0 0 0 0 0 0 0 0 0 0 127 0" result="hardAlpha"/>
<feOffset/>
<feGaussianBlur stdDeviation="12.1938"/>
<feComposite in2="hardAlpha" operator="out"/>
<feColorMatrix type="matrix" values="0 0 0 0 0.166667 0 0 0 0 0.0111111 0 0 0 0 0.118196 0 0 0 0.11 0"/>
<feBlend mode="normal" in2="BackgroundImageFix" result="effect1_dropShadow_2371_480"/>
<feBlend mode="normal" in="SourceGraphic" in2="effect1_dropShadow_2371_480" result="shape"/>
</filter>
<filter id="filter3_d_2371_480" x="13.3463" y="35.97" width="71.957" height="81.3327" filterUnits="userSpaceOnUse" color-interpolation-filters="sRGB">
<feFlood flood-opacity="0" result="BackgroundImageFix"/>
<feColorMatrix in="SourceAlpha" type="matrix" values="0 0 0 0 0 0 0 0 0 0 0 0 0 0 0 0 0 0 127 0" result="hardAlpha"/>
<feOffset/>
<feGaussianBlur stdDeviation="12.1938"/>
<feComposite in2="hardAlpha" operator="out"/>
<feColorMatrix type="matrix" values="0 0 0 0 0.166667 0 0 0 0 0.0111111 0 0 0 0 0.118196 0 0 0 0.11 0"/>
<feBlend mode="normal" in2="BackgroundImageFix" result="effect1_dropShadow_2371_480"/>
<feBlend mode="normal" in="SourceGraphic" in2="effect1_dropShadow_2371_480" result="shape"/>
</filter>
<filter id="filter4_d_2371_480" x="3.41851" y="35.9697" width="81.3258" height="72.2675" filterUnits="userSpaceOnUse" color-interpolation-filters="sRGB">
<feFlood flood-opacity="0" result="BackgroundImageFix"/>
<feColorMatrix in="SourceAlpha" type="matrix" values="0 0 0 0 0 0 0 0 0 0 0 0 0 0 0 0 0 0 127 0" result="hardAlpha"/>
<feOffset/>
<feGaussianBlur stdDeviation="12.1938"/>
<feComposite in2="hardAlpha" operator="out"/>
<feColorMatrix type="matrix" values="0 0 0 0 0.166667 0 0 0 0 0.0111111 0 0 0 0 0.118196 0 0 0 0.11 0"/>
<feBlend mode="normal" in2="BackgroundImageFix" result="effect1_dropShadow_2371_480"/>
<feBlend mode="normal" in="SourceGraphic" in2="effect1_dropShadow_2371_480" result="shape"/>
</filter>
<filter id="filter5_d_2371_480" x="3.41202" y="13.8745" width="81.3328" height="72.155" filterUnits="userSpaceOnUse" color-interpolation-filters="sRGB">
<feFlood flood-opacity="0" result="BackgroundImageFix"/>
<feColorMatrix in="SourceAlpha" type="matrix" values="0 0 0 0 0 0 0 0 0 0 0 0 0 0 0 0 0 0 127 0" result="hardAlpha"/>
<feOffset/>
<feGaussianBlur stdDeviation="12.1938"/>
<feComposite in2="hardAlpha" operator="out"/>
<feColorMatrix type="matrix" values="0 0 0 0 0.166667 0 0 0 0 0.0111111 0 0 0 0 0.118196 0 0 0 0.11 0"/>
<feBlend mode="normal" in2="BackgroundImageFix" result="effect1_dropShadow_2371_480"/>
<feBlend mode="normal" in="SourceGraphic" in2="effect1_dropShadow_2371_480" result="shape"/>
</filter>
<filter id="filter6_d_2371_480" x="11.579" y="3.41279" width="73.1654" height="81.3324" filterUnits="userSpaceOnUse" color-interpolation-filters="sRGB">
<feFlood flood-opacity="0" result="BackgroundImageFix"/>
<feColorMatrix in="SourceAlpha" type="matrix" values="0 0 0 0 0 0 0 0 0 0 0 0 0 0 0 0 0 0 127 0" result="hardAlpha"/>
<feOffset/>
<feGaussianBlur stdDeviation="12.1938"/>
<feComposite in2="hardAlpha" operator="out"/>
<feColorMatrix type="matrix" values="0 0 0 0 0.166667 0 0 0 0 0.0111111 0 0 0 0 0.118196 0 0 0 0.11 0"/>
<feBlend mode="normal" in2="BackgroundImageFix" result="effect1_dropShadow_2371_480"/>
<feBlend mode="normal" in="SourceGraphic" in2="effect1_dropShadow_2371_480" result="shape"/>
</filter>
<filter id="filter7_d_2371_480" x="35.4092" y="3.41242" width="71.9577" height="81.3327" filterUnits="userSpaceOnUse" color-interpolation-filters="sRGB">
<feFlood flood-opacity="0" result="BackgroundImageFix"/>
<feColorMatrix in="SourceAlpha" type="matrix" values="0 0 0 0 0 0 0 0 0 0 0 0 0 0 0 0 0 0 127 0" result="hardAlpha"/>
<feOffset/>
<feGaussianBlur stdDeviation="12.1938"/>
<feComposite in2="hardAlpha" operator="out"/>
<feColorMatrix type="matrix" values="0 0 0 0 0.166667 0 0 0 0 0.0111111 0 0 0 0 0.118196 0 0 0 0.11 0"/>
<feBlend mode="normal" in2="BackgroundImageFix" result="effect1_dropShadow_2371_480"/>
<feBlend mode="normal" in="SourceGraphic" in2="effect1_dropShadow_2371_480" result="shape"/>
</filter>
<filter id="filter8_d_2371_480" x="35.9693" y="12.3626" width="81.3327" height="72.5354" filterUnits="userSpaceOnUse" color-interpolation-filters="sRGB">
<feFlood flood-opacity="0" result="BackgroundImageFix"/>
<feColorMatrix in="SourceAlpha" type="matrix" values="0 0 0 0 0 0 0 0 0 0 0 0 0 0 0 0 0 0 127 0" result="hardAlpha"/>
<feOffset/>
<feGaussianBlur stdDeviation="12.1938"/>
<feComposite in2="hardAlpha" operator="out"/>
<feColorMatrix type="matrix" values="0 0 0 0 0.166667 0 0 0 0 0.0111111 0 0 0 0 0.118196 0 0 0 0.11 0"/>
<feBlend mode="normal" in2="BackgroundImageFix" result="effect1_dropShadow_2371_480"/>
<feBlend mode="normal" in="SourceGraphic" in2="effect1_dropShadow_2371_480" result="shape"/>
</filter>
<filter id="filter9_d_2371_480" x="49.357" y="49.3568" width="22.798" height="22.798" filterUnits="userSpaceOnUse" color-interpolation-filters="sRGB">
<feFlood flood-opacity="0" result="BackgroundImageFix"/>
<feColorMatrix in="SourceAlpha" type="matrix" values="0 0 0 0 0 0 0 0 0 0 0 0 0 0 0 0 0 0 127 0" result="hardAlpha"/>
<feOffset/>
<feGaussianBlur stdDeviation="0.465265"/>
<feComposite in2="hardAlpha" operator="out"/>
<feColorMatrix type="matrix" values="0 0 0 0 0 0 0 0 0 0 0 0 0 0 0 0 0 0 0.25 0"/>
<feBlend mode="normal" in2="BackgroundImageFix" result="effect1_dropShadow_2371_480"/>
<feBlend mode="normal" in="SourceGraphic" in2="effect1_dropShadow_2371_480" result="shape"/>
</filter>
<radialGradient id="paint0_radial_2371_480" cx="0" cy="0" r="1" gradientUnits="userSpaceOnUse" gradientTransform="translate(60.756 60.7558) rotate(90) scale(11.1227 12.639)">
<stop stop-color="#E9EAE9"/>
<stop offset="0.934548" stop-color="#929391"/>
</radialGradient>
</defs>
</svg>
