<svg width="115" height="133" viewBox="0 0 115 133" fill="none" xmlns="http://www.w3.org/2000/svg">
<g clip-path="url(#clip0_2505_11530)">
<path d="M20.6875 83.8207C19.147 82.2103 17.4369 79.9182 16.258 78.0566C11.4595 70.4792 9.61037 62.3472 9.81186 53.4564C10.105 41.5005 15.1344 30.1501 23.7946 21.8997C42.9255 3.68511 76.674 4.64047 94.8272 23.8646C102.797 32.3046 107.166 44.098 106.839 55.6599C106.565 66.4453 103.128 75.6729 95.9638 83.7336C96.7265 87.3618 95.686 89.2701 92.9009 91.5497C95.7348 94.7485 96.9169 97.0263 98.3287 101H96.1079H90.5874H80.8866H78.8715H74.1202H42.9824H37.7067H35.8252H26.1641H20.6406H18.437C19.0764 98.1972 21.6931 93.5842 23.8368 91.5994C21.0111 89.3762 19.9208 87.4727 20.6875 83.8207Z" fill="#1E1739"/>
<path d="M36.1244 97.4282C46.9597 100.845 61.9138 101.096 73.0686 99.2044C75.3122 98.8238 78.5293 98.1905 80.6338 97.4368C80.7024 98.6098 80.8564 99.8395 80.8869 101H78.8718H74.1205H42.9827H37.707H35.8255C35.8719 99.8887 35.9917 98.5304 36.1244 97.4282Z" fill="#EECDAE"/>
<path d="M37.9224 99.5938C38.5628 99.8132 39.1762 100.007 39.7978 100.171C40.2885 100.299 42.6758 100.801 42.982 101H37.7064C37.7769 100.545 37.8651 100.047 37.9224 99.5938Z" fill="#E6E6E2"/>
<path d="M74.1206 101C74.6889 100.72 75.847 100.47 76.5004 100.316C77.3876 100.106 77.9528 99.9401 78.8012 99.6118C78.829 100.052 78.8742 100.564 78.8719 101H74.1206Z" fill="#E6E6E2"/>
<path d="M22.6139 96.8498C23.3748 96.6342 24.0247 96.2238 24.8337 96.0962C27.5683 95.6652 30.2251 97.1528 32.606 98.2994C32.9411 98.4626 33.7702 98.972 33.9056 99.3104C33.8865 99.6124 33.8718 100.014 33.8333 100.306C31.3431 99.7312 28.8348 99.3375 26.507 100.774C26.3909 100.846 26.2767 100.922 26.1645 101H20.641C21.1272 99.6258 21.8329 98.0719 22.6139 96.8498Z" fill="#E6E6E2"/>
<path d="M82.803 99.1125C85.1875 97.3935 89.0009 95.5182 91.9891 96.2842C92.7992 96.4919 93.5373 96.972 94.3189 97.1879C95.1031 98.3443 95.5122 99.7648 96.108 101H90.5875C90.4516 100.901 90.3133 100.806 90.1727 100.714C87.9343 99.2804 85.3132 99.756 82.8908 100.267C82.8701 99.8903 82.8322 99.4912 82.803 99.1125Z" fill="#E6E6E2"/>
<path d="M90.9756 92.4648C92.176 93.8338 93.3718 95.3462 94.2217 96.9649C93.4401 96.749 92.7021 96.269 91.8919 96.0613C88.9038 95.2952 85.0903 97.1705 82.7058 98.8895C82.6306 98.0475 82.5644 97.2047 82.5075 96.3612C85.3185 95.4857 88.466 93.9738 90.9756 92.4648Z" fill="#EECDAE"/>
<path d="M25.6438 92.6748C27.169 93.6173 28.541 94.3905 30.2006 95.0926C31.5037 95.6439 32.8187 96.1093 34.1262 96.6435L33.905 99.3103C33.7695 98.9719 32.9405 98.4625 32.6054 98.2993C30.2244 97.1527 27.5676 95.6651 24.833 96.0961C24.0241 96.2237 23.3741 96.6341 22.6133 96.8497C23.5643 95.2262 24.4091 94.104 25.6438 92.6748Z" fill="#EECDAE"/>
<path d="M72.7448 32.9585C75.8609 29.8981 81.2062 25.7429 86.006 25.3596C87.4781 25.2421 88.7666 27.6624 89.259 28.7539C91.8266 34.0577 91.8486 40.2973 91.1432 46.0288C91.0968 46.4063 91.0455 46.8102 90.9729 47.1802C92.8106 50.8596 94.3411 54.278 95.2957 58.3135C95.4402 58.9243 95.6501 59.6676 95.7615 60.2735C96.1255 61.8748 96.5903 66.7323 96.3105 68.3565C96.1903 69.4605 96.0808 70.3947 95.8564 71.4793C95.5747 72.8854 94.69 75.2352 94.0752 76.5387C93.1354 78.4913 91.6609 80.7316 90.0478 82.1854C89.7322 82.5248 89.3098 82.9119 88.949 83.2171C79.257 91.417 63.5171 92.0719 51.3779 91.2689C43.3576 90.7383 31.7124 88.0475 26.3238 81.7418C25.0134 80.5473 23.52 78.2311 22.6748 76.691C21.8552 75.2077 21.1752 73.1826 20.7858 71.5368C20.4867 70.368 20.4142 69.2433 20.2924 68.0477C20.1004 66.2642 20.5197 61.9408 20.9519 60.22C21.4639 56.4858 23.9978 50.5262 25.7442 47.1858C25.398 45.754 25.2129 43.2334 25.1647 41.7608C25.0226 37.4235 25.5979 32.8078 27.4052 28.8282C27.8154 27.9248 28.2847 26.9672 28.966 26.2371C29.4881 25.6775 30.0906 25.3906 30.86 25.393C31.8476 25.396 32.9272 25.796 33.8415 26.1555C37.6413 27.6494 40.9256 30.0814 43.8103 32.9445C44.9597 32.6133 46.1136 32.2981 47.2717 31.9985C48.8975 31.6603 50.5374 31.393 52.1865 31.1973C53.1147 31.1856 54.3294 30.9962 55.3296 30.9527C55.8981 30.8321 60.3667 30.8388 60.9729 30.9517C62.1571 31.0084 63.2406 31.0716 64.4197 31.2132C66.071 31.4008 68.0351 31.6405 69.6403 32.1049C70.6847 32.3537 71.7201 32.6384 72.7448 32.9585Z" fill="url(#paint0_linear_2505_11530)"/>
<path d="M26.9438 77.2819C28.4125 74.3939 31.4075 72.5216 34.4101 71.5209C35.526 71.149 36.7773 70.9232 37.9273 70.6416C39.4382 70.2825 40.8987 69.7373 42.2754 69.0185C44.8737 67.6315 46.8896 65.7666 49.2698 64.1242C53.2227 61.3968 58.6064 60.1673 63.2021 61.8926C67.3286 63.4236 70.3789 66.743 74.1791 68.8268C75.3657 69.4872 76.6248 70.0081 77.9311 70.3792C81.0963 71.3013 83.44 71.3722 86.2814 73.4993C88.0861 74.8504 88.517 75.2625 89.5974 77.2851L89.6196 77.2838C90.2682 76.6585 91.8986 74.7226 92.0558 73.8813L92.0887 73.8884C92.1714 74.0224 93.9817 76.4519 94.0752 76.5387C93.1354 78.4913 91.6609 80.7316 90.0478 82.1854C89.7322 82.5248 89.3098 82.9119 88.949 83.2171C79.2569 91.417 63.5171 92.0719 51.3778 91.2689C43.3576 90.7383 31.7124 88.0475 26.3238 81.7418C25.0134 80.5473 23.52 78.2311 22.6748 76.691C23.3179 75.3765 23.7883 75.0055 24.3923 73.9506L24.4288 73.9354C24.9223 74.7728 25.3922 75.512 25.9989 76.2756C26.2004 76.5293 26.8221 77.0822 26.923 77.2779L26.9438 77.2819Z" fill="#E6E6E2"/>
<path d="M92.0558 73.8813L92.0887 73.8885C92.1714 74.0224 93.9817 76.452 94.0752 76.5387C93.1354 78.4913 91.6609 80.7316 90.0478 82.1854C89.7322 82.5248 89.3098 82.9119 88.949 83.2172C79.2569 91.4171 63.5171 92.0719 51.3778 91.2689C43.3576 90.7384 31.7124 88.0475 26.3238 81.7419C25.0134 80.5473 23.52 78.2311 22.6748 76.691C23.3179 75.3765 23.7883 75.0055 24.3923 73.9506L24.4288 73.9354C24.9223 74.7729 25.3922 75.5121 25.9989 76.2756C26.2004 76.5293 26.8221 77.0822 26.923 77.2779L26.9438 77.282C27.7762 78.2997 28.6097 79.29 29.6051 80.1537C34.8289 84.6872 42.6885 86.8973 49.4375 87.5766C60.7334 88.7135 77.1282 88.3596 86.2621 80.8688C87.3161 80.0043 89.0785 78.5334 89.5974 77.2852L89.6196 77.2839C90.2682 76.6585 91.8986 74.7226 92.0558 73.8813Z" fill="#EECDAE"/>
<path d="M92.0562 73.8813L92.0892 73.8885C92.1719 74.0224 93.9821 76.452 94.0756 76.5387C93.1359 78.4913 91.6614 80.7316 90.0482 82.1854C90.4325 80.0982 90.4781 79.2557 89.6201 77.2839C90.2687 76.6585 91.899 74.7226 92.0562 73.8813Z" fill="#E9982F"/>
<path d="M24.3923 73.9508L24.4288 73.9355C24.9223 74.773 25.3922 75.5122 25.9989 76.2758C26.2004 76.5295 26.8221 77.0823 26.923 77.278C26.0807 78.9904 25.854 79.8126 26.3238 81.742C25.0134 80.5475 23.52 78.2313 22.6748 76.6912C23.3179 75.3766 23.7883 75.0057 24.3923 73.9508Z" fill="#E9982F"/>
<path d="M57.3519 63.4679C58.4124 63.3358 60.0445 63.5048 61.0592 63.797C62.1402 64.1083 62.7622 65.1066 62.2817 66.2175C61.6151 67.7585 60.4608 68.6258 58.9556 69.2887C59.0794 69.6558 59.2071 69.9881 59.3588 70.3558C60.1654 72.3124 63.17 73.0032 64.9788 72.2452C66.3482 71.6438 66.3076 70.1975 66.6872 68.9831C66.812 68.6135 67.1358 68.2949 67.5404 68.5207C68.6134 69.1195 67.605 71.4433 67.1102 72.2095C66.4057 73.3007 65.3832 73.7147 64.1431 73.9454C63.6027 76.9475 62.5324 81.0564 59.2834 82.1277C59.2421 82.1367 59.2007 82.1455 59.1594 82.1544C58.106 82.3402 57.022 82.099 56.1467 81.4842C53.794 79.8642 53.0752 76.5679 52.5921 73.9346C50.0865 73.653 48.6965 71.6745 48.6634 69.1911C48.6592 68.8691 49.165 68.3489 49.5216 68.4904C50.0789 68.7116 50.141 69.4729 50.2287 69.9847C50.3359 70.7131 50.5872 71.4932 51.1914 71.9483C52.4799 72.9184 54.4683 72.6084 55.8044 71.9258C56.9544 71.3382 57.3651 70.495 57.7249 69.3343C56.5027 68.867 55.4976 68.156 54.7711 67.0612C53.0523 64.4708 55.2021 63.6733 57.3519 63.4679Z" fill="#1E1739"/>
<path d="M54.7637 76.7037C56.4495 74.5088 60.1265 74.844 61.9383 76.7351C61.8727 77.2065 61.8167 77.4028 61.7264 77.8385C61.6958 77.9121 61.6644 77.9855 61.6327 78.0585C59.9662 81.888 56.4656 81.6821 54.9931 77.8281C54.8703 77.4053 54.8302 77.1431 54.7637 76.7037Z" fill="#E07C3A"/>
<path d="M54.7637 76.7037C56.4495 74.5088 60.1265 74.844 61.9383 76.7351C61.8727 77.2065 61.8167 77.4028 61.7264 77.8385C60.3383 76.9694 59.238 76.4867 57.5418 76.7161C56.9261 76.7994 55.3131 77.3929 54.9931 77.8281C54.8703 77.4053 54.8302 77.1431 54.7637 76.7037Z" fill="#C65F2C"/>
<path d="M58.3036 64.6973C59.6344 64.7265 60.1126 64.8598 61.1601 65.6615C60.5163 66.9181 59.8005 67.7248 58.4118 68.0828C58.223 68.0791 58.0351 68.0525 57.8527 68.0035C56.7556 67.7203 56.1036 66.6756 55.5662 65.7738C56.5158 64.9335 57.0566 64.7756 58.3036 64.6973Z" fill="url(#paint1_linear_2505_11530)"/>
<path d="M55.3296 30.9529C55.8981 30.8322 60.3667 30.8389 60.9728 30.9518C61.0887 33.0748 61.1757 35.3021 61.0106 37.4209C60.9234 38.5401 60.6701 39.8576 59.746 40.5998C59.2544 40.9945 58.5902 41.1307 57.9701 41.0496C55.4716 40.723 55.6763 36.9376 55.6707 35.0911C55.6679 34.1614 55.6996 33.2174 55.7141 32.2895C55.7189 31.9721 55.8277 31.1657 55.6708 30.9673L55.3296 30.9529Z" fill="#E07C3A"/>
<path d="M64.4198 31.2134C66.0711 31.401 68.0353 31.6407 69.6405 32.105C69.1182 32.5207 70.4256 38.5055 68.753 40.3691C68.3549 40.8124 67.8118 41.0328 67.2228 41.0496C66.615 41.0669 66.0667 40.8769 65.6259 40.4504C65.2345 40.0714 64.9921 39.5295 64.8465 39.0125C64.3112 37.1113 64.4411 33.322 64.4198 31.2134Z" fill="#E07C3A"/>
<path d="M47.272 31.9985C48.8978 31.6603 50.5377 31.393 52.1867 31.1973C52.2084 33.7799 52.2477 36.513 51.8047 39.0548C51.7257 39.5079 51.3955 40.1241 51.0818 40.4716C50.2797 41.3599 48.7923 41.1744 47.9904 40.3757C47.1203 39.5091 47.0274 38.1243 47.0475 36.9634C47.0619 35.3088 47.238 33.6484 47.272 31.9985Z" fill="#E07C3A"/>
<path d="M92.0561 73.8811C90.3403 72.1528 88.3123 70.7653 86.0795 69.7923C85.3807 69.4796 83.839 69.0269 83.4163 68.6555C83.335 68.4765 83.3343 68.561 83.3941 68.3945C83.5641 68.2496 83.6775 68.2013 83.8964 68.1442C87.0947 67.3081 91.1846 68.3103 94.0016 69.9023L94.0798 69.9284C94.7814 70.4177 95.2499 70.8903 95.8567 71.4791C95.575 72.8852 94.6903 75.235 94.0755 76.5385C93.982 76.4517 92.1717 74.0221 92.089 73.8882L92.0561 73.8811Z" fill="#E07C3A"/>
<path d="M94.0794 69.9287C94.781 70.418 95.2496 70.8906 95.8563 71.4794C95.5747 72.8855 94.6899 75.2353 94.0751 76.5387C93.9816 76.452 92.1713 74.0224 92.0886 73.8885C92.5915 73.1517 93.6875 70.8054 94.0794 69.9287Z" fill="#C65F2C"/>
<path d="M22.658 69.8965C26.2414 68.2629 29.4816 67.261 33.4052 68.4984C32.6092 68.9217 31.886 69.2476 31.0483 69.5763C28.8478 70.4395 25.9485 72.1353 24.4289 73.9353L24.3924 73.9505C23.7884 75.0054 23.318 75.3764 22.6749 76.6909C21.8553 75.2077 21.1753 73.1826 20.7859 71.5367C21.438 70.8474 21.845 70.4767 22.6215 69.9427L22.658 69.8965Z" fill="#E07C3A"/>
<path d="M22.6215 69.9429C23.0446 71.0779 23.3198 72.1209 23.9732 73.1776C24.1187 73.413 24.2251 73.7299 24.3924 73.9507C23.7884 75.0056 23.318 75.3766 22.6749 76.6911C21.8553 75.2078 21.1753 73.1827 20.7859 71.5369C21.438 70.8476 21.845 70.4769 22.6215 69.9429Z" fill="#C65F2C"/>
<path d="M21.4754 60.2836C23.2917 59.6889 25.5573 59.3839 27.423 60.1718C27.6896 60.2842 27.9532 60.5252 28.0536 60.8048C28.1602 61.1012 28.0585 61.444 27.9144 61.7024C27.1734 63.0308 23.0747 66.18 21.8363 66.7282L21.8236 66.7821C21.2889 67.1737 20.7776 67.5962 20.2924 68.0477C20.1004 66.2642 20.5197 61.9408 20.9519 60.22L21.0247 60.3519C21.2001 60.4023 21.3001 60.3438 21.4754 60.2836Z" fill="#E07C3A"/>
<path d="M20.2924 68.0478C20.1004 66.2644 20.5197 61.941 20.9519 60.2202L21.0247 60.3521C21.2001 60.4025 21.3001 60.344 21.4754 60.2838C21.561 62.4701 21.4738 64.5168 21.8363 66.7284L21.8236 66.7822C21.2889 67.1739 20.7776 67.5964 20.2924 68.0478Z" fill="#C65F2C"/>
<path d="M94.7723 66.7735C93.2093 65.5766 91.0284 64.1593 89.6503 62.8192C85.6357 58.9156 93.2251 59.6984 95.1807 60.3068C95.4597 60.4109 95.584 60.5241 95.7622 60.2735C96.1262 61.8748 96.591 66.7323 96.3112 68.3565C96.2424 68.0359 95.0844 67.0152 94.7773 66.8257L94.7723 66.7735Z" fill="#E07C3A"/>
<path d="M95.7615 60.2734C96.1255 61.8747 96.5903 66.7322 96.3105 68.3564C96.2417 68.0358 95.0836 67.0151 94.7766 66.8256L94.7716 66.7734C94.7985 66.2251 95.0001 65.5156 95.0303 64.9059C95.1051 63.3904 95.0762 61.8142 95.18 60.3067C95.459 60.4108 95.5833 60.524 95.7615 60.2734Z" fill="#C65F2C"/>
<path d="M20.2927 68.0478C20.7779 67.5964 21.2892 67.1739 21.8239 66.7822C22.0662 67.6511 22.337 69.1454 22.6581 69.8967L22.6217 69.9429C21.8452 70.4769 21.4382 70.8477 20.7861 71.537C20.487 70.3682 20.4145 69.2434 20.2927 68.0478Z" fill="#E9982F"/>
<path d="M94.7766 66.8257C95.0836 67.0152 96.2417 68.0359 96.3105 68.3565C96.1902 69.4605 96.0808 70.3947 95.8563 71.4793C95.2496 70.8905 94.7811 70.418 94.0794 69.9286L94.0013 69.9025C94.3494 69.6008 94.6841 67.3724 94.7766 66.8257Z" fill="#E9982F"/>
<path d="M74.6548 50.9047C75.7566 50.7679 77.0155 51.074 77.9906 51.5806C83.9435 54.6732 83.8503 66.0905 76.4794 67.1653C74.9792 67.3057 73.4765 66.9228 72.2264 66.0817C66.9993 62.5239 67.7326 52.1039 74.6548 50.9047Z" fill="#1E1739"/>
<path d="M73.5306 53.5429C74.5595 53.3385 75.5612 54.0004 75.7764 55.0268C75.9917 56.0532 75.3402 57.0615 74.3159 57.2874C73.6436 57.4357 72.9435 57.2115 72.4825 56.7004C72.0216 56.1892 71.8707 55.47 72.0875 54.8167C72.3044 54.1635 72.8555 53.677 73.5306 53.5429Z" fill="#E6E6E2"/>
<path d="M41.063 50.9101C42.4233 50.8062 43.7738 51.2097 44.8542 52.0427C48.5864 54.8814 48.9597 60.8523 46.1591 64.4539C45.0253 65.9232 43.3514 66.8788 41.5096 67.1083C37.5663 67.3197 35.0661 64.3839 34.6064 60.6644C34.2875 58.0975 35.0047 55.5094 36.5994 53.4726C37.7578 51.994 39.1976 51.1447 41.063 50.9101Z" fill="#1E1739"/>
<path d="M42.7142 53.5791C43.7369 53.3323 44.7664 53.9598 45.0154 54.9818C45.2644 56.0037 44.639 57.0342 43.6173 57.2854C42.5926 57.5374 41.5578 56.9098 41.308 55.8847C41.0582 54.8596 41.6882 53.8266 42.7142 53.5791Z" fill="#E6E6E2"/>
<path d="M29.7212 28.0609C29.8718 27.7722 29.9558 27.5526 30.3064 27.6558C30.8103 27.7936 31.3618 28.0756 31.8328 28.3095C34.4749 29.6223 36.4038 32.168 37.8436 34.6983C38.0954 35.1359 38.3236 35.5867 38.5274 36.0487C35.3441 37.9844 33.1009 39.5391 30.2635 42.0315C29.6979 42.5213 29.1499 43.0309 28.6204 43.5596C28.3396 43.845 27.2765 44.9895 27.0306 45.1516L26.9731 45.1045C26.9948 44.9944 27.0051 44.9322 27.0361 44.8252C26.9905 44.5769 26.9612 44.2799 26.9298 44.026C26.6609 43.2301 26.4719 42.4094 26.3659 41.576C25.8012 37.1921 26.9906 31.6092 29.7212 28.0609Z" fill="#E07C3A"/>
<path d="M29.7212 28.061C30.8021 29.9614 32.778 33.9935 32.2204 36.2279C31.9035 37.4972 29.5137 39.6823 28.6981 40.8723C27.9897 41.9061 27.4665 42.8817 26.9298 44.026C26.6609 43.2302 26.4719 42.4095 26.3659 41.5761C25.8012 37.1921 26.9906 31.6093 29.7212 28.061Z" fill="#EECDAE"/>
<path d="M30.3066 27.6558C30.8106 27.7936 31.362 28.0756 31.833 28.3095C34.4752 29.6223 36.4041 32.168 37.8438 34.6983C38.0956 35.1359 38.3239 35.5868 38.5277 36.0487C35.3444 37.9844 33.1011 39.5391 30.2637 42.0315C29.6981 42.5213 29.1501 43.0309 28.6206 43.5596C28.3399 43.845 27.2767 44.9895 27.0309 45.1516L26.9734 45.1045C26.995 44.9944 27.0054 44.9322 27.0364 44.8252C27.1805 44.641 27.3666 44.2965 27.4994 44.0831C29.7201 40.516 33.1578 37.816 36.5976 35.4707C35.4402 33.4099 34.1798 31.5318 32.5457 29.8103C31.8732 29.1016 30.9611 28.3784 30.3408 27.6941L30.3066 27.6558Z" fill="#1E1739"/>
<path d="M86.2305 27.6932C86.4452 27.672 86.5496 27.6625 86.6951 27.8463C87.1178 28.4103 87.6733 29.117 87.9879 29.7398C90.0557 33.8334 91.1177 39.4101 89.8273 43.9021C89.7857 44.3041 89.7107 44.6697 89.5042 45.0235L89.4526 45.0555C86.0273 41.2999 82.4687 38.648 78.1229 36.097C79.6037 32.6592 82.5675 28.8885 86.2305 27.6932Z" fill="#E07C3A"/>
<path d="M86.6951 27.8462C87.1178 28.4101 87.6733 29.1169 87.9879 29.7396C90.0558 33.8332 91.1177 39.41 89.8273 43.902C89.5983 43.5534 89.1964 42.7511 88.966 42.353C88.4108 41.3935 87.8136 40.7142 87.1445 39.9239C86.4854 39.1455 84.4204 37.109 84.1938 36.2673C83.5802 33.9875 85.6945 29.8272 86.6951 27.8462Z" fill="#EECDAE"/>
<path d="M78.1229 36.0972C79.6037 32.6594 82.5675 28.8887 86.2305 27.6934L86.1946 27.7332C85.6582 28.3179 84.9271 28.9253 84.3396 29.5409C82.6397 31.3118 81.2081 33.3219 80.0904 35.5072C83.231 37.7871 86.4437 40.1313 88.6435 43.4017C88.9011 43.7847 89.39 44.5915 89.5042 45.0237L89.4526 45.0557C86.0273 41.3001 82.4687 38.6482 78.1229 36.0972Z" fill="#1E1739"/>
<path d="M55.9966 11.4622C56.7031 11.3843 58.2516 11.4244 58.997 11.4332C64.2551 11.4679 69.475 12.3284 74.4659 13.9831C85.5109 17.5554 94.6663 25.3989 99.8894 35.7636C104.865 45.9345 105.648 57.6515 102.071 68.3941C99.8307 75.034 95.0029 82.7527 88.5463 85.9588C89.2564 85.4226 90.0225 84.8616 90.6877 84.2726C93.5687 81.7392 95.7309 78.4914 96.9566 74.8564C100.089 65.3467 97.3909 55.6357 93.0454 47.0104C93.1832 46.1512 93.2914 45.2873 93.3697 44.4206C93.8481 38.7996 93.3679 32.8322 90.7683 27.7383C89.8694 26.0421 88.5592 23.6 86.3554 23.5589C80.9512 23.4582 76.1499 27.1096 72.2735 30.4328C68.35 29.1917 64.7558 28.6918 60.6555 28.5193C55.1307 28.4573 49.572 28.6867 44.2908 30.48C43.4243 29.6649 42.5158 28.8955 41.5689 28.1752C38.7187 26.0119 35.2808 24.0913 31.6764 23.6259C29.7892 23.3822 28.4004 23.712 27.2626 25.342C22.9803 31.4765 22.4906 40.0521 23.5866 47.2118C20.545 53.3236 18.2909 59.8111 18.3078 66.7238C18.2882 72.7661 20.5653 78.5902 24.6783 83.0177C25.4535 83.8415 26.2547 84.5556 27.1563 85.2347C27.4403 85.4487 27.7385 85.6841 27.9842 85.939C26.879 85.3951 24.9358 84.0918 24.0151 83.2672C16.577 76.6059 13.1226 67.138 12.41 57.4352C11.6248 46.3182 15.2841 35.3439 22.5845 26.9216C29.0714 19.5563 37.7803 14.5024 47.395 12.5241C50.4177 11.8961 52.9472 11.6816 55.9966 11.4622Z" fill="#DDD0FF"/>
<path d="M42.1492 17.8232C42.989 17.7059 44.5509 17.7311 44.6349 18.8414C44.6848 19.5027 44.2319 20.4722 43.7642 20.9232C41.9708 22.6524 39.3652 23.7808 36.8842 23.9109C35.5833 23.8988 34.9039 23.5561 34.3762 22.3225C35.4798 19.7202 39.4705 18.1004 42.1492 17.8232Z" fill="#E6E6E2"/>
<path d="M22.8127 85.1914C23.032 85.3384 23.25 85.5133 23.4603 85.6748C24.7884 86.4855 26.2953 87.4177 27.7014 88.0574C35.5844 91.6441 44.6621 93.353 53.2922 93.7961C66.0362 94.4506 81.9002 92.7871 92.8586 85.8258C93.0806 85.6447 93.2829 85.4405 93.5509 85.3682C94.032 85.4405 93.9767 86.0279 93.9141 86.4066C93.4114 89.4532 89.0536 91.4355 86.5354 92.4583C73.7805 97.6391 58.9166 98.5766 45.4175 96.4969C42.1037 96.0111 38.8215 95.3303 35.588 94.4577C32.0195 93.4675 25.8317 91.2468 23.48 88.1625C22.7504 87.2055 22.633 86.3421 22.8127 85.1914Z" fill="#AEABB5"/>
<path d="M23.4602 85.6748C24.7883 86.4855 26.2952 87.4177 27.7013 88.0575C35.5843 91.6441 44.662 93.3531 53.292 93.7962C66.0361 94.4506 81.9001 92.7871 92.8585 85.8258C92.8888 85.8928 92.8947 85.938 92.8798 86.0136C92.652 87.1612 90.5897 88.5988 89.6111 89.1816C86.639 90.9515 83.2514 92.103 79.9375 93.0434C66.7562 96.7839 51.4891 96.7765 38.216 93.4309C34.1725 92.4117 25.6838 89.8026 23.5531 86.0687C23.4697 85.9226 23.4152 85.8385 23.4602 85.6748Z" fill="#E6E6E2"/>
</g>
<path d="M10.7652 108.907C13.6481 116.291 17.7661 123.409 26.9488 126.635C31.0685 128.687 36.0818 127.482 37.7525 122.74C39.6531 117.344 37.2353 112.691 35.0712 107.904C33.5183 104.468 30.8198 98.7863 29.3196 94.7857C29.3196 94.7857 25.4826 87.0245 19.7655 87.9041C13.264 88.9044 11.4128 94.2741 11.4128 94.2741C11.4128 94.2741 10.1094 97.9026 9.76484 100.406C9.309 103.717 10.7652 108.907 10.7652 108.907Z" fill="#1E1739"/>
<path d="M33.1745 109.269C31.827 105.955 30.3529 102.675 28.8582 99.4145C27.9531 97.5158 27.2251 95.5552 26.1265 93.7383C24.7121 91.3997 22.9373 89.7644 20.0201 90.0129C13.1165 91.4684 10.7208 100.771 12.3868 106.63C13.4373 110.325 15.2727 113.732 17.7177 116.806L18.5909 115.151C21.9839 110.424 27.4747 109.462 33.1745 109.269Z" fill="#F0B86B"/>
<path d="M20.0198 90.0132C13.1163 91.4686 10.7206 100.771 12.3865 106.63C13.4371 110.325 15.2725 113.732 17.7174 116.806L18.5906 115.151C18.1474 114.829 17.6593 114.11 17.3425 113.666C12.8565 107.38 12.852 97.1601 18.2578 91.78C18.8407 91.1997 19.5544 90.7057 20.0198 90.0132Z" fill="#E69A6E"/>
<path d="M27.7534 102.078C25.4336 101.095 20.4129 102.288 19.3805 104.655C18.9685 105.6 19.647 106.342 20.6143 106.69C22.106 106.605 23.2688 105.996 24.6516 105.647C25.4729 105.51 26.3159 105.457 27.143 105.34C29.484 105.011 29.9819 103.423 27.7534 102.078Z" fill="#BA694E"/>
<path d="M33.8087 110.811C29.0654 110.595 23.796 111.678 20.7257 115.233C19.8845 116.188 19.5556 116.936 19.1518 118.133C20.9726 120.68 24.1705 123.093 27.2173 124.111C27.7485 123.287 27.9226 122.842 27.9673 121.863C27.8 121.422 27.5116 120.902 28.0308 120.622C28.8798 120.658 29.0417 121.688 29.0732 122.301C28.9712 122.759 28.9083 123.358 28.5313 123.686C28.2755 123.907 28.0129 124.073 28.2614 124.375C29.1186 124.687 30.9276 124.399 31.7893 124.182C32.1638 123.436 32.2057 123.17 32.3297 122.359C32.2757 121.717 31.7368 120.469 32.1475 119.991C32.8767 120.007 33.1477 120.963 33.3308 121.501C33.3976 122.483 33.3182 122.771 33.0791 123.736C34.5721 122.781 35.7134 121.526 35.8181 119.732C36.3465 117.153 35.0601 113.15 33.8087 110.811Z" fill="#FDFDFD"/>
<path d="M20.7256 115.233C19.8843 116.188 19.5555 116.936 19.1516 118.133C20.9725 120.68 24.1703 123.093 27.2172 124.111C27.7483 123.287 27.9225 122.842 27.9672 121.863C27.8854 122.008 27.8542 122.042 27.7454 122.17C27.68 122.17 27.6208 122.174 27.5537 122.148C25.8869 121.498 20.4306 116.722 20.7256 115.233Z" fill="#BCBBC2"/>
<path d="M31.7892 124.183C32.1637 123.436 32.2056 123.171 32.3296 122.36C31.2447 122.69 30.1797 122.647 29.0731 122.301C28.9711 122.76 28.9082 123.358 28.5312 123.686C28.2754 123.908 28.0128 124.073 28.2613 124.375C29.1185 124.688 30.9275 124.399 31.7892 124.183Z" fill="#BCBBC2"/>
<path d="M35.8185 119.732C35.6647 120.103 35.5483 120.42 35.3352 120.764C34.7207 121.098 34.0642 121.464 33.3312 121.501C33.398 122.483 33.3185 122.771 33.0795 123.736C34.5724 122.781 35.7138 121.526 35.8185 119.732Z" fill="#BCBBC2"/>
<path d="M106.915 111.505C103.831 119.405 99.426 127.019 89.6027 130.47C85.1956 132.666 79.8325 131.376 78.0452 126.303C76.0121 120.531 78.5985 115.553 80.9136 110.432C82.5748 106.756 85.4616 100.678 87.0665 96.3987C87.0665 96.3987 91.1711 88.096 97.2871 89.0369C104.242 90.107 106.223 95.8514 106.223 95.8514C106.223 95.8514 107.617 99.733 107.986 102.411C108.473 105.954 106.915 111.505 106.915 111.505Z" fill="#1E1739"/>
<path d="M82.9426 111.892C84.3841 108.348 85.961 104.838 87.56 101.35C88.5283 99.3192 89.307 97.2218 90.4823 95.2782C91.9954 92.7764 93.894 91.027 97.0148 91.2929C104.4 92.8498 106.963 102.801 105.181 109.069C104.057 113.022 102.093 116.666 99.4778 119.955L98.5437 118.185C94.914 113.128 89.0401 112.099 82.9426 111.892Z" fill="#F0B86B"/>
<path d="M97.0151 91.2928C104.4 92.8498 106.963 102.801 105.181 109.069C104.057 113.022 102.094 116.666 99.4781 119.955L98.544 118.185C99.0181 117.84 99.5403 117.07 99.8792 116.595C104.678 109.871 104.683 98.9383 98.9 93.1829C98.2764 92.5621 97.513 92.0337 97.0151 91.2928Z" fill="#E69A6E"/>
<path d="M88.742 104.2C91.2236 103.148 96.5946 104.425 97.699 106.956C98.1397 107.967 97.4139 108.761 96.3792 109.133C94.7833 109.042 93.5394 108.39 92.0601 108.017C91.1815 107.871 90.2798 107.814 89.395 107.69C86.8906 107.337 86.358 105.639 88.742 104.2Z" fill="#BA694E"/>
<path d="M82.2642 113.542C87.3384 113.311 92.9754 114.47 96.26 118.272C97.1599 119.294 97.5117 120.094 97.9437 121.375C95.9958 124.099 92.5749 126.681 89.3155 127.77C88.7473 126.889 88.561 126.412 88.5131 125.365C88.6921 124.893 89.0006 124.337 88.4453 124.037C87.537 124.076 87.3638 125.178 87.3301 125.834C87.4392 126.324 87.5065 126.964 87.9099 127.315C88.1835 127.552 88.4643 127.729 88.1985 128.052C87.2816 128.386 85.3463 128.078 84.4245 127.846C84.0238 127.048 83.9791 126.764 83.8464 125.896C83.9042 125.209 84.4806 123.874 84.0413 123.362C83.2612 123.38 82.9713 124.402 82.7754 124.978C82.704 126.029 82.789 126.336 83.0447 127.369C81.4476 126.347 80.2266 125.004 80.1146 123.085C79.5494 120.327 80.9255 116.044 82.2642 113.542Z" fill="#FDFDFD"/>
<path d="M96.2601 118.273C97.16 119.294 97.5118 120.095 97.9438 121.375C95.9959 124.1 92.575 126.681 89.3156 127.77C88.7474 126.889 88.5611 126.412 88.5133 125.366C88.6007 125.521 88.6341 125.556 88.7505 125.694C88.8205 125.694 88.8838 125.698 88.9555 125.67C90.7387 124.974 96.5756 119.866 96.2601 118.273Z" fill="#BCBBC2"/>
<path d="M84.4246 127.846C84.0239 127.048 83.9792 126.764 83.8465 125.896C85.0071 126.25 86.1464 126.203 87.3302 125.834C87.4393 126.324 87.5066 126.964 87.9099 127.315C88.1836 127.552 88.4644 127.729 88.1986 128.052C87.2817 128.386 85.3464 128.078 84.4246 127.846Z" fill="#BCBBC2"/>
<path d="M80.1142 123.085C80.2786 123.482 80.4032 123.821 80.6311 124.19C81.2886 124.546 81.9909 124.938 82.775 124.978C82.7035 126.029 82.7885 126.336 83.0442 127.369C81.4471 126.347 80.2262 125.004 80.1142 123.085Z" fill="#BCBBC2"/>
<defs>
<linearGradient id="paint0_linear_2505_11530" x1="58.365" y1="25.4144" x2="58.3076" y2="77.0405" gradientUnits="userSpaceOnUse">
<stop stop-color="#FF9000"/>
<stop offset="1" stop-color="#FFC333"/>
</linearGradient>
<linearGradient id="paint1_linear_2505_11530" x1="58.4481" y1="64.727" x2="58.0731" y2="67.9193" gradientUnits="userSpaceOnUse">
<stop stop-color="#E26126"/>
<stop offset="1" stop-color="#BA3C31"/>
</linearGradient>
<clipPath id="clip0_2505_11530">
<rect width="114.308" height="101" fill="white"/>
</clipPath>
</defs>
</svg>
