<?xml version="1.0" encoding="UTF-8"?>
<svg id="_Слой_3" data-name="Слой_3" xmlns="http://www.w3.org/2000/svg" version="1.1" xmlns:xlink="http://www.w3.org/1999/xlink" viewBox="0 0 2000 2000">
  <!-- Generator: Adobe Illustrator 29.1.0, SVG Export Plug-In . SVG Version: 2.1.0 Build 142)  -->
  <defs>
    <style>
      .st0 {
        fill: #fdddb1;
      }

      .st1 {
        fill: #17042c;
      }

      .st2 {
        fill: url(#_Безымянный_градиент_5);
      }

      .st3 {
        fill: #85a682;
      }

      .st4 {
        fill: #72c004;
      }

      .st5 {
        fill: none;
      }

      .st6 {
        clip-path: url(#clippath-1);
      }

      .st7 {
        fill: url(#_Безымянный_градиент_101);
      }

      .st8 {
        fill: #ffa242;
      }

      .st9 {
        fill: url(#_Безымянный_градиент_10);
      }

      .st10 {
        fill: #474f77;
      }

      .st11 {
        fill: url(#_Безымянный_градиент_82);
      }

      .st12 {
        fill: url(#_Безымянный_градиент_81);
      }

      .st13 {
        fill: #9564ff;
      }

      .st14 {
        fill: #d85742;
      }

      .st15 {
        fill: #bbfd44;
      }

      .st16 {
        fill: url(#_Безымянный_градиент_8);
      }

      .st17 {
        fill: #8e8aab;
      }

      .st18 {
        clip-path: url(#clippath);
      }

      .st19 {
        fill: #7b30f2;
      }

      .st20 {
        fill: #e1e1de;
      }
    </style>
    <linearGradient id="_Безымянный_градиент_5" data-name="Безымянный градиент 5" x1="848" y1="188.5" x2="928.4" y2="65" gradientUnits="userSpaceOnUse">
      <stop offset="0" stop-color="#bbfd44"/>
      <stop offset="1" stop-color="#a07bff"/>
    </linearGradient>
    <clipPath id="clippath">
      <path class="st5" d="M501.7,1282.5c153.3,11.4,306.6,22.9,460.2,34.3.6,65.2,1.2,130.8,1.8,196.6-150.5-16.8-300.9-33.6-451.1-50.4-3.6-60.5-7.3-120.6-10.9-180.6Z"/>
    </clipPath>
    <linearGradient id="_Безымянный_градиент_10" data-name="Безымянный градиент 10" x1="612.4" y1="1259.4" x2="612.4" y2="1426.2" gradientUnits="userSpaceOnUse">
      <stop offset="0" stop-color="#bbfd44"/>
      <stop offset="1" stop-color="#72c004"/>
    </linearGradient>
    <linearGradient id="_Безымянный_градиент_101" data-name="Безымянный градиент 10" x1="842.1" y1="1259.4" x2="842.1" y2="1426.2" xlink:href="#_Безымянный_градиент_10"/>
    <clipPath id="clippath-1">
      <polygon class="st5" points="1233.1 1774.6 290.8 1678.2 286.1 1523.3 1232.3 1601.8 1233.1 1774.6"/>
    </clipPath>
    <linearGradient id="_Безымянный_градиент_8" data-name="Безымянный градиент 8" x1="735.9" y1="1597.1" x2="735.9" y2="1742.1" gradientUnits="userSpaceOnUse">
      <stop offset="0" stop-color="#7b30f2"/>
      <stop offset="1" stop-color="#9564ff"/>
    </linearGradient>
    <linearGradient id="_Безымянный_градиент_81" data-name="Безымянный градиент 8" x1="1047.4" y1="1623.3" x2="1047.4" y2="1752.4" xlink:href="#_Безымянный_градиент_8"/>
    <linearGradient id="_Безымянный_градиент_82" data-name="Безымянный градиент 8" x1="448" y1="1573.7" x2="448" y2="1712.2" xlink:href="#_Безымянный_градиент_8"/>
  </defs>
  <g id="_Слой_1" data-name="Слой_1">
    <g>
      <path class="st4" d="M1093.3,1215.4c19,9.9,40.5,16.7,60.5,24.4,42,16.3,84.5,31.3,127.4,45.2,31.1,10.1,62.3,19.5,93.8,28.2,7.8,2.2,15.7,4.9,23.6,6.5s11.2.8,17.2,5.3c11.8,8.9,19.1,22.9,23.6,36.6,5.9,17.8,8.6,36.7,17,53.4,2,3.9,4.5,7.9,8.5,9.9,6.7,3.3,14.5-.4,21-4,12.4-6.9,24.7-13.8,37.1-20.6,5.5-3.1,12.4-6.2,17.8-2.9,3.3,1.9,5,5.6,7.1,8.7,10.5,15.1,25.5-6.3,32.1-14.4,7.2-8.8,16.8-19.1,21.1-29.7,10.9-27.4-1.2-45.4-15.1-69.3-5.6-9.4-17.6-28.6-11.9-37.9,5.1-7.8,18.3-.7,25,2.9,9.2,5.3,18.2,10.8,27.2,16,38.3,21.7,78.7,45.6,118.2,63.4,29.7,14,58.7,12.7,58-29.1v-.2c-1.4-23.9-8.5-47.5-13.1-71-10.8-50.1-22.5-101.4-37.6-150.4-2.7-8.4-5.8-16.1-10-23.5-15.1-25.2-40.1-44.6-62-64.1-42.3-36.7-81-77.2-123.1-114.2-12.5-10.8-22-24.3-26.5-40.2-18.8-67.8-37.6-135.3-60.5-201.7-11.9-37.8-26-74.8-42.3-110.9-22.5-54.9-49.3-107.9-79.3-159.2-29.6-56.1-65.9-106.4-105.1-155.8-16.9-21-35.1-40.5-53-60.6-23.4-24.8-49.5-46.3-75.9-67.8-31.7-25.9-67.5-47.9-102.9-67.7-32.4-18.6-66.1-32-99.2-6.5-23.8,18.6-41.6,43.4-60.3,66.9-18.1,22.9-33.9,47.2-48.1,72.9-21.1,35.9-38.3,74.1-54,112.7-2.2,4.6-4.6,7.7-7.1,8.6-16.7,3.6-25.9-61.4-71.3-77.6-39.8-13.7-74.3,20.9-104.9,41.8-67.9,52-144.5,110.1-173.9,193.4-17.1,48.4-13,100.8-3.2,150.5,5.3,37,14.1,68.6-31.5,80.3-16.5,4.2-37.1,13.7-35.1,30.6.9,7.9,6.9,14.2,12.6,19.8,31.5,30.9,64.8,59.7,97.2,89.5,26.1,24,33.9,69.4,27,102.8-3.6,17.2-11,33.6-12.2,51.1-1.6,22.5,7.1,44.5,17.8,64.4,35.1,65.4,94.2,117.5,163.4,144.3,70.6,27.3,148.3,28.2,223.9,25.5,40.7-1.4,81.4-3.8,122.1-3.4s19.6-.3,29.1.9c6.5.8,12.4,3.6,18.9,4.5,12.5,1.9,25.1,4.1,37.2,7.7,12.4,3.7,22.2,8.3,33.5,14.2Z"/>
      <g>
        <path class="st20" d="M1576.8,1508.7c.1-2,0-4-.4-6-1.6-7.4-6.2-15.6-9.2-22.6-6.2-14.6-12.4-24.9-16.8-32.1-8.2-13.5-18.7-25.3-27.4-38.4-9.3,5.1-18.6,8.9-28.3,13.1-.3.1-.8-.1-1.1,0l-9.8,4.4c-3.2,1.9-6.3,4.1-9.8,5.4-1.3,22.4-.2,50.6-8.5,71.5-3.7,9.4-16.5,23.1-16.5,31.9,0,7.3,5.8,24.8,8.2,32.6,4.3,13.7,9.8,27.1,14.2,40.7,4.1,12.5,14.5,24.2,22.1,35,17.1,24.4,35.7,48,57.7,68.2,2.7,2.5,5.6,5,9.2,6.2,3.5,1.2,7.8.9,10.4-1.8,2.1-2.2,2.7-5.5,3.1-8.5,2.6-17.6,5.2-35.2,7.7-52.8,1.7-11.7,3.4-23.4,3.2-35.3-.3-17.3-4.6-34.2-8.5-51.1-3.2-14.2-6.1-28.9-3.2-43.1,1.1-5.5,3.3-11.4,3.7-17.2Z"/>
        <path class="st15" d="M1544.1,1395.7c13.5,10.6,30.6,26.6,46.1,49.3,25.2,36.8,33.6,73,36.8,94.2.4,6.2.8,12.5,1.2,18.7-16.2-8.6-32.3-17.3-48.5-25.9,28.2,53.3,36.4,115.8,34,175.7-.6,14.3-3.6,28.9-4.1,43.1-1.2,34.6,3.6,69.9,7.2,104.3-35.6-68.2-101.8-112.9-142.4-177.2-17.4-27.5-37-67.7-40.5-100.3-1.4-12.8,4.8-22.4,11.1-33.6,1.3-2.4,4.8-8.6,7.4-9.6,0,6.9,5.4,23.5,7.7,30.8,6.4,20.2,15,40.6,25.1,59.1h2.1s2.6-33.4,2.6-33.4c14.4,23.8,30.4,46.7,47.4,68.7,2.6,3.4,12.4,17.1,14.3,18.6,1.3,1,1.7,1.4,3.5,1.1,1.1-53.6,6.9-110.8-7.9-162.1-2.8-9.7-6.8-19.1-10.5-28.5l2.7-.7,31.2,19.7c2.5-8.1-3.2-18.4-6.5-25.9-3.9-8.7-10.9-22.2-15.9-30.3-7.7-12.7-17.7-23.9-25.9-36.3,2.6-1.1,5.7-2.6,8.9-4.9,6.8-4.9,10.8-10.8,12.9-14.7Z"/>
        <path class="st4" d="M1709.4,1611.8c-1.6-7.4-3.2-14.9-4.9-22.3,0,0,0,0,0,0-4-16.9-8.7-33.7-14.8-50-3.1-8.1-6.5-16.1-10.4-23.8-2.7-5.5-5.8-10.7-9-15.9-18.8-30-43.9-55.5-70.1-79.2-3.2-2.9-39.4-34-39.3-34,2.1-2.8-8.9,6.6-14.9,12.3-2.7,2.5-4.8,4.7-6.2,6.2,43.4,34.1,65.8,87.3,80.1,139.3.3.8.5,1.7.8,2.5-13.6-5-27.2-9.9-40.8-14.9,28.2,53.3,36.4,115.8,34,175.7-.6,14.3-3.6,28.9-4.1,43.1-1.2,34.6,3.6,69.9,7.2,104.3-35.6-68.2-101.8-112.9-142.4-177.2-17.4-27.5-37-67.7-40.5-100.3.4-6.5.7-13.1,1.1-19.6-3.7,11.3-9.4,24.9-18.2,39.3-14.3,23.3-31,39.2-43.4,49.2,7.2,31.9,17.9,63,31.9,92.5l20.5-90.4c-.2,3.8.6,7.6,1.5,11.3,27.7,108.9,129.5,222.5,205.5,304.2,9.1,9.7,20.9,23.9,30.4,32.3,1.8,1.6,3.4,4.2,6.1,3.7.8-28.1,3-56.1,4.1-84.3,4.9-61.7,7-123.7,2-185.5-2-25.5-4.9-56.9-10.3-81.7-5.2-24.1-14.7-47.9-25.7-69.9l66.4,35,3.6-1.8Z"/>
      </g>
      <path class="st4" d="M1305.5,1678.7c11.3-3.1,24.8-7.7,39.3-15,11.2-5.6,20.7-11.6,28.6-17.2,0,0,10.6-7.2,18.5-13.6,25.5-20.7,48-75.2,50.9-82.3,29.3-43.9,33.2-66.6,33.3-113.2-.1,0-.2,0-.2,0,0-.4,2.1-24.8,2.3-32.4,2-38.2-1.7-80.4-32.5-106.3-26.3-22.1-61.5-31.9-94.1-39.9-44.6-10.8-89.6-21.7-135.4-23.4-56-2.1-111.4,9.5-167.2,14.5-62.8,5.5-126,2.6-188.9-.3-112-5.2-224.4-10.5-334.5-31.6-.1,0-.3,0-.4,0-7.2-1.4-14.4-3.2-21.6-5-11.9-3-23.7-6.2-35.6-9.5-15-4.2-30-8.6-44.9-13.2-16.7-5.1-33.3-10.5-49.7-16.1-16.8-5.8-33.5-11.8-49.9-18.4-15.4-6.1-30.7-12.6-45.5-19.9-6.7-3.2-13.2-6.6-19.7-10.3-8.3-4.7-16.9-10.3-23.3-17.4-5.6-6.3-9.1-14.1-12.3-21.8-2.5-6-4.5-12.5-7.4-18.3-2.8-5.6-5.6-11.4-7-17.5-12.4,26.6-2.9,58.8,0,85.8-3.8,11.3-8.3,27.6-10,47.6-7.8,92.1,52,159.8,59.7,168.2,37.5,41.1,84.5,60.9,117.1,74.7,10.7,4.5,19.7,7.8,25.9,9.9-55.6,9.9-111.2,19.8-166.8,29.7,6.8,121.6,13.6,243.3,20.4,364.9,344.9,43.5,1003.1,130.5,1003.1,130.5l147.7-222.9c-33.2-20.1-66.5-40.2-99.7-60.3Z"/>
      <path class="st20" d="M593.2,275.1c-6.6,5.6-13.1,11.2-19.9,16.6-16.6,13.4-34,25.9-51.3,38.3-2.1,1.5-3.6,3.6-4.2,6-1.2.4-2.4,1.1-3.5,2.1-24.8,23.7-45.9,51.1-64.9,79.6-18.5,27.8-27.8,58.8-26.7,92.3.6,18.6,4.1,37.1,9.8,54.8.9,2.9,2.8,4.7,5,5.6,2.7,13.8,5.9,27.5,9,41.2l67.8-38.5c-13.7,23.6-30.2,45.6-47.3,66.8-9,11.1-19,23.6-28.7,33.9-13.3,14-29.1,23.2-38,40.6,11.8,25.1,43.8,39,69.4,43.8,9.5-39.4,42.3-69.6,78.4-88,24.1-12.3,50.1-20.4,76-28.1s45.8-11.7,60.3-33.5c8.7-13.1,13.1-28.6,17.3-43.8,8-28.5,15.9-57.1,23.9-85.6,7.1-25.4,14.2-51.8,9.9-77.9-3.8-23-16.6-44.3-17.2-67.9-.1-5,1.1-9.6-.6-14.2-2-5.4-6.5-11-9.4-16-6.4-11.1-12.7-22.3-19.1-33.4-3.9-6.8-6.8-14.1-10.6-20.9-4.3-7.7-12-12.1-20.8-11.3-15.9,1.4-31.8,12-44.3,21.3-6.9,5.1-13.5,10.6-20.1,16.1Z"/>
      <path class="st20" d="M748.6,1083.2c-.7-1.4-1.4-2.8-2.1-4.2-2.3-4.6-7.8-3.2-9.8.3-10.4-1.3-20.9-1.4-31.5-1.2-6.5.1-12.9.4-19.4.5-3.4,0-6.8,0-10.2,0-2.9,0-7.1.5-9.3-1.7-1.5-1.5-2.3-3.9-3.5-5.6-1.4-2-2.9-3.9-4.6-5.6-3.4-3.5-7.3-6.5-11.3-9.3-1-.7-2-1.3-2.9-2,4-1.6,6-7.9,1.3-10.2,1.6-3.3-.1-8.4-5-8.8-31.7-2.9-62.8-10.2-93.7-17.6-15.4-3.7-30.8-7.4-46.2-11.1-9.5-2.3-18.4-5.2-26.3-10-.3-.3-.6-.5-.8-.8-4.1-3.8-8-8.1-13.3-10.1-5.7-2.2-9.2,5.8-5.6,9.7,3.9,4.2,8.3,7.8,13.1,10.8.5.5,1,1,1.6,1.4,1.5,1.4,3.1,2.8,4.6,4.2,6.3,9.2,13.3,17.8,21.3,25.5,4.2,4.2,8.7,8.1,13.4,11.7,4.6,3.6,9.1,7.2,15.2,5.5,2.4-.7,4.1-3,4.3-5.4.6-1.6.7-3.3-.2-4.9-.3-.5-.5-.9-.8-1.4,0-1.4-.4-2.8-1.6-4.1-.7-.8-1.5-1.5-2.2-2.3-3.2-5.1-6.5-10.1-10.2-14.9,9.6,2.3,19.2,4.5,28.8,6.8,14.9,3.6,29.9,7.1,45,10.2.8,2,2.5,3.6,5.1,4,6.6.9,13.2,1.6,19.8,2.3.6.1,1.3.3,1.9.4.3.7.7,1.3,1.2,1.9,7.4,7.5,16.6,12.5,25.3,18.4,4,2.7,7.9,5.7,11.1,9.3,3.3,3.8,5,9.2,9.2,12.2,4.9,3.5,11.6,3,17.4,3.1,7.1.1,14.3-.1,21.4-.3,14.4-.4,28.8-.7,43,1.9,5.1.9,8.8-3.8,6.5-8.5Z"/>
      <path class="st20" d="M1496,871.3c-20.6-77.5-43.8-154.3-69.6-230.2-12.8-37.5-26.2-74.9-40.2-111.9-14.1-37-29-73.7-47.2-108.9-19.8-38.3-43.8-74.1-71.1-107.4-4-4.8-12.3-4.1-16.4,0-4.8,4.8-4,11.5,0,16.4,48,58.5,81.3,125.6,108.4,195.8,28.5,73.7,54,148.5,77.1,224,13,42.6,25.3,85.4,36.7,128.4,3.8,14.4,26.2,8.3,22.3-6.2Z"/>
      <path class="st19" d="M1044.4,1223c-1.3-4.6-6.2-8.9-11.2-8.5-16.5,1.4-33.1,2-49.7,2.5-7,.2-16.4-1.1-22.8,2-4.4,2.1-7.3,5.6-7.7,10.5-.5,5.8,2.4,9,5.8,13.2.9,1.1,1.9,1.8,3.1,2.4,0,5.8,1.6,12.1,3.2,17.4,1,3.2,2.2,6.4,3.6,9.5,1.3,2.9,3.1,5.6,4.1,8.7,1.9,6.1,6.7,12.2,10.6,17.1,7.6,9.5,18.2,17.2,30.2,19.1,12,1.9,25.4-2.6,32.1-12.8,3.4-5.2,4.9-11.4,5.2-17.6.4-6.2-.4-12.4-1.1-18.6-.9-7.6-1.8-15.2-2.6-22.7-.8-7.2-1-15.1-2.9-22.1Z"/>
      <path class="st13" d="M1379,1387c0-1.1-.1-2.1-.4-3.2-6.2-20.5-18.8-37.9-31.9-54.5-6.3-8-13.2-15.3-21.3-21.6-8.5-6.5-17.9-10.7-27.6-15.3-9.4-4.4-17.7-10.5-26.8-15.4-9.6-5.2-20-8.4-30.7-10.1-19.7-3.2-39.8-4.4-59.6-2-22.3,2.7-44,9.2-62.9,21.6-1.1.7-2,1.5-2.8,2.4-7.1,2.5-13.8,5.9-18.7,11.8-7.5,9.1-.6,23.2,11.8,20.2,18.5-4.5,38.8-2.1,55.2,7.9,15.9,9.6,16.4,33.2,16.8,49.8.4,13.3,20.6,16.9,23.8,3.2.6-2.6,4.6-4.8,8.4-6.4,6.6-2.8,14-5.4,21.3-5.7,13.5-.7,25.4,5.6,36.1,13.1,11.1,7.7,22.9,16.9,31.5,27.4,4.1,5,5.1,10.5,7.9,16.1,4.3,8.7,14.4,12.1,22.7,6.8,7.1-4.5,13.5-10,21-14.2,7.3-4.1,14.9-7.4,22.8-10.1,9.8-3.3,11.7-16.7,3.5-21.9Z"/>
      <path class="st15" d="M1300.4,1256.6c-4.6-4.6-11-7.4-17.1-9.9-3.9-3.7-8-7.1-12.3-10.2-.5-.4-1-.7-1.5-1,3.9,0,7.8,0,11.6.6,6.1,1.1,12.5-1.7,14.2-8.1,1.5-5.6-1.9-13.1-8.1-14.2-8.6-1.5-17-1-25.7-1.4-8.7-.4-17.1-2.5-25.9-2.3-16.5.4-35,4.3-48.9,13.6-4.4,2.9-5.8,7.9-5,12.4-.7.5-1.3.9-2,1.4-10.9,8-4.2,23,8.9,21.2,19.6-2.8,40-2.6,59.6.5.6,0,1.2.2,1.9.2,6,1.7,12,3.7,17.8,6,.6.2,1.2.5,1.9.7,3.1,3.3,6.2,6.8,10.1,9.1,7,4.2,14.4,2.8,20.5-2.1,4.9-3.9,4.1-12.3,0-16.4Z"/>
      <path class="st10" d="M1402.8,1528.4c-1.1-22.2-7.8-45.4-21.6-63.1-.9-1.1-1.8-2.1-2.7-3.1,0-.5-.2-1-.3-1.5-1.3-4.7-6.5-9.5-11.7-8.9-2,.2-4,.5-6,.8-2.5-.6-5.1-1.1-7.7-1.5-6.2-.9-12.2-.8-18.1,1.7-2.9,1.2-5.6,2.9-7.7,5.2-1.1,1.2-2.2,2.7-3.1,4.1-2,1.1-3.4,2.8-4.2,4.9-1.8.8-3.5,1.8-5.1,2.9-4.7-5.4-9.4-11.2-12-17.9-3.2-8.2-2-17.5-3.7-26-4.1-21-23.6-29.5-40.9-37.9-18.7-9.1-39.2-16-58-2.9-2.3,1.6-4.6,3.4-6.9,5.3-.3-.6-.5-1.2-.8-1.9-2.6-6.4-4.3-13.2-6.4-19.8-3.9-12.4-9.3-25.1-19.2-33.9-11-9.8-24.8-11.8-39.1-11.5-9.3.2-18.5,1-27.7,2.3-6.3.5-12.6,2.2-18.6,3.4-6.4,1.4-10.1,8.8-8.5,14.9,1.8,6.7,8.5,9.8,14.9,8.5,5.1-1.1,10.2-2.1,15.3-2.8.7,0,1.4,0,2.1.2,4.7.8,9.3,3.9,13.7,5.8,4.3,1.8,9.2,3.2,12.9,6.2,4.2,3.3,7.7,7.9,10.9,12.1,7.2,9.5,13.3,19.7,18.5,30.3,2.6,5.4,5.5,10.8,10.6,14.2,2.5,1.7,5.2,2.7,8.1,3.2.6,0,1.1.1,1.7.2,3.5,3.5,9,5.4,14.8,4.2,5.1-1,9.4-1.9,14.7-1.3,5,.6,9.9,2,14.6,3.5,6.8,2.1,13.5,4.1,19.3,7.8.6,1.6,1.4,3.2,2.6,4.6,3.7,4.4,8.7,7.9,13.2,11.4,1.9,1.5,4.1,2.6,6.4,3.1,2.9,5.6,5.5,11.3,7.9,17.1.2.6,1.3,2.4,1.4,2.4.6,1.8.1,4.1.9,6.1,1.5,3.7,4.3,6.4,8,7.9,4.5,1.9,9.9,2.4,15,3,0,0,0,.1,0,.2-1.7,9.7,5.4,16.3,14.9,14.9,5.9-.9,13.6-1.9,19.5-.4,3,.7,5.9,2.7,8.8,3.9,3.3,1.3,6.6,2.4,9.9,3.5,10.9,3.8,20.2,11,26.6,20.6,6.2,9.5,23.2,6.5,22.5-6.1Z"/>
      <path class="st17" d="M1355,1518.9c-13-5.3-47.5-14.5-59.1-6-5,3.6-18,34.4-22.4,42.2-7.7,13.6-26.6,29.4-17,45,2.9,4.7,5.5,7.4,10.1,10.2,4.9,2.9,10,5.5,15.3,7.6,10.4,4.1,21.7,6.4,32.8,4.7,9.4-1.4,18.2-5.4,26.8-9.5,6.7-3.3,13.5-6.7,19.1-11.6,6.7-5.9,11.4-13.8,14.6-22.1,3.2-8.3,4.8-17.2,5.9-26,.3-2.1.4-4.4,0-6.4-.6-2.5-1.9-3-3.4-4.6-2.4-2.6-3.6-6.7-5.4-9.7-4.1-6.7-10-10.7-17.1-13.6Z"/>
      <path class="st20" d="M1172.2,1440.8c-5.6,12-11.3,24.1-16.5,36.3-2.7,6.2-5.2,12.4-7.7,18.7-1.2,3.1-2.4,6.3-3.5,9.5-.7,2-2.8,5.2-2,7.3s1.4,2.2,2.4,3.1c9.8,9.3,21.3,18.4,33.4,24.4,10,4.9,23.7,9.8,34.5,4.6,9-4.3,20.8-27.4,25.2-37.6,3.4-7.7,5.9-15.9,7.7-24.1,1.9-8.7,1.1-18.1-2.5-26.3-4.6-10.6-15.7-22.3-27.8-23.2-14.8-1.1-29.3,2.3-43.2,7.2Z"/>
      <path class="st3" d="M1512,1261.8c-.9-1.2-1.8-2.5-2.8-3.7-.9-1.2-1.9-2.4-3.2-3-2.4-1-5.1.4-7.3,1.8-6.6,4.1-13,8.6-19.2,13.4-2.2,1.7-4.6,3.8-4.7,6.6-.1,2.2,1.1,4.1,2.3,5.9.3.5.6.9.9,1.4,4.8,7.4,10,15,13.5,23.1,3.7,8.4,6.2,17.6,9.3,26.3,6.4,18.3,12.8,36.6,19.2,54.9.4,1.1.9,2.3,1.9,2.8,1.2.5,2.6-.2,3.8-.9,14.8-9.4,30.3-19.5,38.6-34.9,2.3-4.2,4-9,3.5-13.8-.6-5.7-4.1-10.6-7.5-15.1-16.1-21.5-32.2-43.1-48.3-64.6Z"/>
      <path class="st17" d="M479.4,1202c0-2-.2-3.9-.4-5.9-.8-10-3.1-19.2-8.8-27.6-7.6-11.3-19.7-19.4-33.1-22.3-5.6-1.2-11.4-1.6-17-1-2.4.2-4.9.7-6.9,2-3,2.1-4.3,5.8-5.2,9.3-2.5,8.8-4.3,17.7-6.3,26.6-2.1,9.1-4.9,18-6.6,27.1-2.3,12.3-2.6,25.7,3.2,36.8,2.5,4.8,6.3,9.2,11.5,10.7,3.6,1.1,7.5.7,11.2,0,11.8-2.4,22.7-8,33.1-14.1,8.1-4.8,16.4-10.2,21-18.4,3.9-7.1,4.6-15.3,4.3-23.3Z"/>
      <path class="st20" d="M277.9,1116c5.9-7,13.2-12.6,20.9-17.5,4.1-2.7,8.4-5.1,12.7-7.6,3.4-1.9,7.6-4.8,11.5-5.3,3.5-.4,7,.9,9.7,3.1,2.8,2.1,4.9,4.9,7,7.7,3.7,4.9,7.3,10.8,5.8,16.8-.8,3.2-3.1,6-5.8,7.9s-5.8,3.2-8.9,4.4c-2.4,0-5.1,2-7.4,2.7-3.4,1-7.3,1.2-10.9,1.8-7.3,1.2-14.6,2.5-21.9,3.7-3.4.6-7,1.2-10.4.4-3.4-.7-6.7-3.1-7.5-6.5-.8-3.6,1.4-7.2,3.7-10.1.4-.5.8-1,1.2-1.5Z"/>
      <path class="st3" d="M1428.8,938.5c-22.3,16.6-45.4,30.7-70.9,42.1-14.5-36-21.2-81.6-34.2-119.4-2.6-7.7-5.1-15.5-8.9-22.7l-68.9-6.9c2.6-.5,4.3-4.4,5.1-5.1,28.9-26.2,55.1-54.8,81.1-83.9l-77.9-46.3,57.4-84-68.8-7.7,12.3-129.5c17.2,15.4,33.1,34.8,44,55.2,35.9,67.1,65.6,160,87,233.6,16.8,57.4,30.6,116,42.6,174.7Z"/>
      <path class="st14" d="M831.8,999.1c-.1,0-1.4-1.6-2.1,1-.7,0-1.4,0-2.1,0-3.1.2-6.2.6-9.2,1-.3-2,5.6-3.5,6.9-3.9,70.3-23.4,136.6-51,175.1-118.7,27.2-47.9,35.2-104.4.7-150.8-13.3-17.9-33.3-26.5-53.1-35.6-17.7-8.2-35.9-14-54-21.1s-9.6-6.9-15-10.3c-7.8-4.9-17.2-6.1-26.1-7.5-14.2-2.1-28.7-2.4-43-2.1-28.4.6-56.7,4-84.7,7.9h-.7c-46.7,6.7-165.5,26.1-185.8,73.2-35.7,82.8,54.2,233.6,129.7,270.9l1,4.1c-107.8-33.7-146.2-49.4-179.5-164.2-43.6-150.3,68.6-182.1,189.6-203.3,66.4-11.6,198.5-25.2,259.8.5,106.3,44.6,134.3,137.8,83.3,239.8-30.4,60.8-127.4,104.2-190.8,119Z"/>
      <path class="st13" d="M1550.2,934.6c60.9,49.9,166,136.2,166,136.2.2-.2.4-.4.6-.6,5.8,23.2,15.8,48.6,16.8,72.5.8,17.5,5.5,34.9,8.9,52.1s8.5,42.8,12.7,64.2c1.3,6.7,2.6,13.4,3.9,20,.5,2.7,1.8,18.3,3.8,19.4-69.4-36.2-138.8-72.3-208.3-108.5-3.6-1.9-5.2-32-6-36.9-2.1-12.8-4.1-25.6-6.2-38.4-4.1-25.6-8.3-51.2-12.4-76.8-6.8-42-12.6-84.2-20.1-126.1-.7-3.9-1.4-7.8-2.1-11.7,0,0,17.5,14.3,42.3,34.7Z"/>
      <path class="st13" d="M1111.1,988.5c37.2-2.5,49.6,1.6,51.4,7.5,4.3,13.8-50.7,32.1-88.5,75.4-38.2,43.8-47.2,99.7-48,143.6-19.3.9-38.6,1.9-57.9,2.8-2.3,0-5.2-.2-7.9-1.7-18.4-10.4-9.1-66.2,4.7-102.3,7.9-20.8,32.9-75.8,93.5-107.2,20.6-10.7,39.5-15.6,52.7-18.1Z"/>
      <path class="st15" d="M1477.9,898.4c-1.6,1.4-2.9,3.1-4.5,4.5s-3.5,2.8-5.6,3.3c-2.8-10.5-4.7-21.2-7-31.9-2.7-12.4-5.6-24.7-8.6-37-3-12.3-6.2-24.5-9.4-36.7-3.3-12.2-6.7-24.4-10.1-36.5-3.5-12.1-7.1-24.2-10.7-36.3-3.6-12-7.3-24-11.1-36-33-106-74.5-218.3-134.8-312.2-6.1-9.5-40.1-35.5-33.1-53.2,2-5,6.6-7.9,10.1-9.6,25.3,36.7,59.7,91.2,92.1,161.9,12.6,27.4,21.3,49.6,29.2,70.3,36.8,96.3,72.1,190.9,96.5,289.6.5,1.6,1,3.3,1.5,4.9,2.1,6.8,4.1,13.5,6.2,20.3.9,2.9,1.8,5.8,2.7,8.7.6,2,1.7,3.6,2.1,5.7.6,2.9.7,5.8.8,8.7,0,2,.1,4-.7,5.8-1.1,2.4-3.4,3.9-5.4,5.6,0,0,0,0-.1.1Z"/>
      <path class="st19" d="M1338,1321.5c6.6,3.3,12.7,7.4,18.4,12.1,13.1,10.7,23.7,24.1,33.6,37.8,13.7,19,26.5,39.5,32,62.4,5.3,22.2-3.4,47.6-9.6,68.8-.7.5-.8,2.3-1.5,2.1-4.6-10-4.2-22.2-9.4-32.8-9-18.4-31.7-27.8-50.3-33.1-12.4,4.3-22.8,14.4-36.5,14.5l-3.3-41.6c-4.3-8-2.1-10.9-10.2-17.4-16.4-13.2-43.9-23.5-62.3-34.3-6.8,2.6-14.1,5.8-21.7,9.6-13.6,7-25.1,14.6-34.4,21.7,0-11.6-.2-23.5-.5-35.5-.2-9.3-.5-18.5-.9-27.6h.5l15.4,39.3,32.3-14h.9l-9.8-28.5c1.7,1.2,3.3,2.4,5,3.5,15.4,11,30.9,22,46.3,33,5.9,4.2,12.3,8.2,18,12.8,8.6,7,22.4,13.8,28.8,23,2.2,3.2,3,6.8,3.8,10.6,0,0,1.8,18.7,1.8,18.7,13.2-7.1,26.2-14.1,38.5-22.6-4-35.9-22.7-69.8-52.2-90.5,9.5.8,18.7,3.8,27.3,8.1Z"/>
      <path class="st10" d="M1380.7,1141.1c-.4-.5-.8-.9-1.2-1.4-3-4.1-2.1-10.5-2.6-15.3-.8-8.9-4-16.3-8.2-24.2-9.3-17.5-18.6-34.9-27.9-52.4-1-1.8-2.3-3-3.7-3.7l-32.3-115.1c.7-1.3,1.1-2.8.9-4.7-1.1-8.6-2.6-17.1-4.8-25.5-1.3-9.3-3.3-18.5-6-27.6-.8-2.6-2.9-4.6-5.5-5.6-1.5-2.2-4-3.7-6.6-3.9-3-2-6.5-3.3-10.4-3.4-2.2,0-4.3.2-6.3.7-10.2,0-20.4.2-30.6.3-7,0-12.8,10.3-6.3,15.3.2.2.5.4.7.5-3.2.5-6,2.6-6.7,6.2-.6,2.9-1.1,5.8-1.5,8.7-2.6-.7-5.5-.5-8.5,1.2-3.7,2.1-6.6,6.2-9.2,9.6-5,.4-9.9,2.9-14.3,6-3.2-1.1-6.6,0-9.3,2.1-5.7,4.4-10.8,9.4-15.6,14.7-6.8,2-12.3,6.4-16.1,12.5-3.1,4.9-.5,9.9,3.7,12.2.8,1.4,1.9,2.7,3.3,3.5,3.9,2.3,8.1,1.1,11-1.7,8.4-.1,16.7-1.4,24.8-3.9l11.3.2c1.9,0,3.4-.4,4.7-1.2.2,0,.4,0,.6,0,7,0,11.9-5.8,15.2-11.8.9,4.1,2,8.2,3.3,12.2,1.1,3.4,4,5.5,7.1,6.2,1.4,6.2,5.1,12,11.6,12.8,12.9,40.5,37.7,75.6,62.4,109.7,2.1,2.8,4.9,4,7.7,4,3.3,7.1,6.5,14.3,10.4,21.2,10.7,18.5,24.9,34.8,39.1,50.6.9,1.3,2,2.5,3.3,3.7,8.7,7.6,20.4-4,12.6-12.6Z"/>
      <path class="st19" d="M1164.4,999.4c-23.7,15.7-60.8,45-87.9,92.6-14.8,26-22.2,49.7-25.3,60.5-7.3,25.9-9.5,48.8-10,66.1-11.7-.6-24.6-.7-38.3,0-14.9.7-28.7,2.2-41.2,4.1-1.1-1.3-5.1-6.1-5.3-13.4-.2-8.4,4.9-13.8,5.9-14.9l5.8,23.5c8.3-.8,16.5-1.7,24.8-2.5,1.4-.1,2.8-.3,4.2-.4-3.2-15-5.8-35-4.5-58.7,1.7-30.7,9.5-55.3,16.2-71.7-2,10.9-4.2,31.6,5,53.9,2.9,6.9,6.3,12.7,9.7,17.5,3.2-19.5,12.6-60.6,45.1-99.9,24-29,50.7-45,67.4-53.3,0-1.6-17.1-7.2-19.6-8.2-4.9-3.2-5.5-5-5.2-6.1,1.2-5.2,26.8-8.1,44.9,3.7,4.1,2.7,7,5.6,8.4,7.2Z"/>
      <path class="st4" d="M522.5,1110.1c-1.1-12.2-2.5-23.8-4.1-34.9-.9-2-2.3-5-4.7-8.2-1.8-2.5-4.4-5.3-14.7-12.9-9.2-6.7-11.7-7.8-15.2-12.4-2.4-3.2-2.2-4-4.2-6.8-2.8-3.8-7.8-8.7-17.7-12.2-6.8-10-19.1-27.9-24-38.1-.9-1.9-1.7-3.9-1.6-6.1-.3-.4-.7-.7-1-1-.9-1.1-1.8-2.2-2.7-3.3-14.9-18.4-27.9-38.4-40-58.7-2.6-4.4-3.6-8.9-5.6-13.6-2.4-5.8-4.8-11.5-7.1-17.4-4.6-11.6-8.8-23.4-12.1-35.4-5.6-20.5-8.5-42.1-5.8-63.2,1.4-10.7,4.2-21.4,4-32.2-.2-10-3.1-19.7-6.9-28.9-2-4.8-4.2-9.4-6.6-14-1.1-2.1-2.1-3.7-3.2-5.1-1.4-1.7-3-3.2-5.2-5-15.1-12.3-29-26.6-39.7-43-11.4-17.5-9.6-19.4-6.7-40,3.4-23.8,13-46.7,14.1-70.7-2.7-3.5-41.8,39-44.4,43.5-12.7,22.4-21.6,83.3-25.2,110.4-2.9,22.2,3.8,44.8,19.2,61.4,12.3,13.2,25.8,9.9,36.8,26.9,26.5,40.9-4.1,68.1-30.2,93.8-34.7,34.3-56.2,95.8-42.9,143.6,3.8,13.6,23,48,10.1,58.8-4.9,4.1-9.6,1.1-12.7-3.4-1.6-2.4-3-5-4.2-7.6-1.6-3.3-3.1-6.5-5-9.7v-.2c.2.6.1,2.1.2,2.9.2,1.1.3,2.3.5,3.4.3,2.2.7,4.4,1.1,6.5.8,4.4,1.8,8.7,2.9,13,2.2,8.6,5.1,17,8.5,25.2,1.9,4.6,4,9.1,6.2,13.5.9,1.8,1.5,3.9,2.5,5.6,1.3,2,3,3.9,4.8,5.4,1.8,1.5,3.9,2.9,6.2,3,2.5.1,4.9-1.1,7.1-2.4,2.1-1.2,4.4-2.5,5.4-4.7.8-1.8.6-4,.4-6-.2-1-.2-2-.3-3,0-.9-.4-1.8-.4-2.7,0-2.2.3-4.3.8-6.4.8-3.9,2.1-7.6,4.1-11.1,1.3-2.2,2.7-4.3,3.9-6.6.7-1.3,1.3-2.7,1.7-4.1.3-1.3.4-2.5.9-3.7,1.3-3.6,1.7-7.7,1.9-11.5.1-3.9-.2-7.9-.8-11.8-1.2-8.1-3.5-16-5.7-23.8-2.1-7.6-4.2-15.2-4.9-23.1-1.4-15.8,0-33.4,4.8-48.6l10.6-26.4v19.5c0,1.5,3.8,2.9,5.6,2.6,8-1.1,13.6-21.2,15-27.8,2.2,27.4-7.4,55.3-.5,82.2,1.5,2.1,3-1.2,3.8-2.4,27.6-41.6,10.4-89.7,24-132.2l21-52.4,6.7,51.4c25.3,25.8,28.3,50,38.3,82,5.6,18.1,20,39.6,36.2,49.5l3.6-10.3c5.7,7.2,12.2,12.7,20.1,17.5,5.5,7.4,8.9,16.1,13.5,24,2.5,4.3,9.9,11.8,11.6,16.2,2.7,7.2-.6,19.3,6.7,22.5,1.2,2.4,3.2,6.1,5.9,10.4,5.8,9.5,9.1,12.6,12.4,19.9,2.4,5.3,3.3,9.3,4,11.9,2.2,8.4,7.4,21.1,21,39.5.3-18.9-.3-39.3-2.2-61.2Z"/>
      <path class="st15" d="M1268.9,1065.4c-.3-.9-.4-1.4-.4-1.4,7.6.2,13.7,6.3,18.7,12,10,11.3,19.1,23.7,30.3,33.7,16.9,15,31.8,32,46.6,49,11.3,12.9,22.7,26.1,29.1,42,2.5,6.1,4.1,12.6,4.9,19.1.1,1.1.2,2.4-.7,3-.8.6-1.9.3-2.8,0-7.8-2.6-15.6-5.2-23.4-7.8-15.3-5.1-31.1-10.5-43.3-21.2-8.4-7.4-14.5-16.9-19.7-26.8-6.7-13-11.8-26.8-16.8-40.6-3.9-10.6-7.7-21.2-11.6-31.8-1.9-5.2-3.5-10.8-5.8-15.8-.4-.9-4-9.8-5.2-13.3Z"/>
      <path class="st10" d="M970.5,1009.4l96.6-38c1.9,1.7-13.9,12.5-15.4,13.9-12.6,11.5-28.6,34.1-39.6,42.7-7.9,6.2-28.5,12.4-38.5,16.4l11.4-25.2-1.1-2.1c-3.8-1.2-11.5-3.5-13.4-7.7Z"/>
      <path class="st10" d="M1450,1286.1c4.2,7.2,8.3,15.1,12,23.8,16.5,38.4,18.4,74.7,16.9,100.4,14.3-4.8,28.7-9.5,43-14.3-5.3-28.6-15.4-62.8-35.1-97.9-4.3-7.7-8.8-14.9-13.3-21.6-7.9,3.2-15.7,6.4-23.6,9.6Z"/>
      <path class="st10" d="M969.9,1077.2c-4.8-1.4-9.5,3.7-12.9,6.1-1.3.9-2.1,2.2-2.4,3.5-1.8.5-3.3.9-3.6,1.1-6.1,2.1-12.2,2.9-18.3,5.2-8.3,3.1-16.7,6-25.2,8.9-6.6,2.2-13.3,4.4-19.9,6.4-8.9,2.8-17.9,5.4-26.7,8.3-9.3,3.1-19.6,4.3-29.1,6.8,42.4-1.4,83.9-11,124.7-21.4-45.5,15.8-84.4,24.9-112.2,30.4-141.7,27.8-226.1.4-250.8-14.7-8.4-5.1-15.2-13.9-22.7-18.9-3-2.1-26.7-11.4-30.5-12.1-3.3-.7-2.3.4-2.4,2.9,0,1,7.3,15.5,8.2,16.9,4,5.9,13,11.3,18.4,16.1,14.4,12.7,29.1,25.2,44.2,37,30.1,23.5,62.2,44.8,97.2,60.3,59.6,26.3,129.9,34.8,189.7,9,13.2-5.7,26.2-13.3,34.4-25.1,10.7-15.3,11.1-33.6,11.9-51.5,2.2-5.2,8.4-13.6,12.3-23.5,2,.2,4.1-.5,5.5-2.6.6-.9,1.2-1.9,1.7-2.8,1.9.2,3.7-.6,4.8-2.9,5.2-10.3,6-21.6,7.5-32.8.5-4.1.9-8.9-4-10.4Z"/>
      <path class="st10" d="M1291.3,1225.3c0,0,.7-.3,1.3-.2.2,0,.5.5,3,1.1,34.7,8.7,105.9,40.1,123.9,78.1,9.8,20.6,8.9,52.7,7.2,75-29-53.5-83.3-93-139.7-114.1-16-16.6-39.7-26.1-62.7-27.7-.7,0-1.4,0-2.1,0,43.2-7.4,68.3-11.8,69-12.2Z"/>
      <path class="st4" d="M1419.6,1304.3c20.8,20,23.9,57.3,23.6,84.8,0,5.1.7,21.5-6.6,17.9l-9.8-27.7c1.7-22.4,2.6-54.4-7.2-75Z"/>
      <path class="st15" d="M1028.9,1490.3c9.9,10.4,10.1,27.7,12.3,41.6,1.4,9.2,4.5,22.2,11.9,37.5-10.5-5.1-23.3-13.3-34.4-26.4-7.3-8.7-21.2-25.1-20.1-46.1.2-4.6.9-17.6,10.3-26.7,1.7-1.7,3.3-2.8,4.5-3.6,1.7,4.4,4.7,11,10.1,17.8,2.4,3.1,4.3,4.9,5.3,5.9Z"/>
      <path class="st15" d="M1125.1,991c-19.4,3.8-42.6,11.2-65.8,25.9-84,53.2-95.4,156.2-97,173.6-.9-8.3-9.1-103.8,62.7-162.1,38.9-31.6,81.9-36.4,100.1-37.4Z"/>
      <path class="st15" d="M1222.2,1408.3c-21.1-5.7,11.7-33.7,19-16.7,3.9,9.1-10.9,18.9-19,16.7Z"/>
      <path class="st15" d="M1352.5,1490c-3.1,2.3-7,3.6-10.9,3.4-6.4-.3-14.5-6.6-14.2-13.6.3-6.2,9.4-12.3,14.9-13.6,15.7-3.7,22.7,14.7,10.2,23.7Z"/>
      <path class="st15" d="M963.3,1189.2h-1c-.1-8.2-.6-16.8,2.1-24.7-.7,8.2-.6,16.5-1,24.7Z"/>
      <path class="st15" d="M258.5,1120.4c-.8-4.6-1.1-8.4-1.2-11.2-.1-3.2-.2-5.6.2-8.7.5-3.8,1.5-6.9,2.3-9,.5,3.4,2.5,6,5.1,6.8.6.2,1.6.3,2.8,0,12.1-24-5-51.7-7.2-76.1-1.4-15.8,0-33.4,4.8-48.6l10.6-26.4v19.5c0,1.5,3.8,2.9,5.6,2.6,8-1.1,13.6-21.2,15-27.8,2.2,27.4-7.4,55.3-.5,82.2,1.5,2.1,3-1.2,3.8-2.4,27.6-41.6,10.4-89.7,24-132.2l21-52.4,6.7,51.4c25.3,25.8,28.3,50,38.3,82,5.6,18.1,20,39.6,36.2,49.5l3.6-10.3c5.7,7.2,12.2,12.7,20.1,17.5,5.5,7.4,8.9,16.1,13.5,24,2.5,4.3,9.9,11.8,11.6,16.2,2.7,7.2-.6,19.3,6.7,22.5-10.7,0-24.4,7.3-35.2,9.1-9.9-5.8-38.3-29.6-48-30.7-13.5-12.6-26.4-28.3-28.8-47.3-.3,18.3,1.7,36.8-4.1,54.5-16.9,4.5-17.4.7-25.5-2.2,0,0-3.6-1.1-7.2-1.7-8.9-1.4-29.6,12.6-48.1,34.5-6.9,8.1-16.9,13.2-24.3,20.9-.4.4-1.7,1.8-2.7,1.4-1.1-.4-1.2-2.8-1.2-3,0-2.4,1.4-4.1,2.1-4.8Z"/>
      <path class="st15" d="M262.6,675.4c-6.5,26.7,4.5,54.3,17.5,77-35.7-5.5-25.8-49.4-19.5-74.5.4-1.7-1.2-3.1,2-2.6Z"/>
      <path class="st4" d="M398.2,1068c-12.8-1.4-22,4.3-32.9,7.2,5.8-17.7,3.8-36.1,4.1-54.5,2.4,18.9,15.3,34.7,28.8,47.3Z"/>
      <path class="st13" d="M1087.3,174c-2.5,2.2-4.9,4.5-7.4,6.7-9.3,8.4-18.6,16.7-28.5,24.4-8.9,6.9-19.5,15.3-30.5,18.6-6.2,1.9-10.5,5.8-15.9,9.4s-9.5,5.7-14.7,7.7c-11.7,4.4-24.6,5.5-37,7.2-39.7,5.4-95.8,8.3-134-5,0-1.4,0-2.7,0-4.1s0-.7,0-1l48.3-91.5c7.3-5.9,11.6-16,16.4-24.7,0-.1,1.8.4,2.1-.7,15.9-25.2,32.5-50.1,52.3-72.3.3-.2.8.2,1,0,1.6-1,4.1-4,6.2-5.1,5-1.6,3.3-2.3,8.9-.2,14.5,5.6,40.5,22.1,54.3,31,17.2,11,33.5,23.2,49.5,35.8,14.3,11.3,28.2,23,42.2,34.7,1.9,1.6,8.9,5.7,8.9,8.4,0,2.5-6.5,6.5-8.2,8.1-4.7,4.3-9.4,8.5-14.1,12.8ZM915.5,122c-11.8,15.9-20.5,69.3,12.9,52.4,14.2-7.2,25.2-44.1,17.7-57.7s-24.1-3.6-30.6,5.3ZM909.5,216.8c10.4-16.4-7.4-27.8-14-11.4-6.1,15.1,7.9,21.1,14,11.4Z"/>
      <path class="st19" d="M1031.9,219.4c-10.1-26.6-21.9-54.9-36-84.5-12.7-26.7-25.8-51.3-38.7-73.9,48,28.6,89.1,67.6,126.4,108.9-3,7.2-9.2,19.5-21.5,31-11.4,10.6-23.1,15.9-30.2,18.5Z"/>
      <path class="st15" d="M831.8,264.4l-15.4,52.4c-4,.1-9.6,1.9-13.8,2.1s-13.4,1-12.9-1.6l21.6-58c2-1.5,17.2,4.4,20.5,5.1Z"/>
      <path class="st15" d="M1148.3,1509.8l30-64.5,3.7,1c2.7,5.2-8,42.9-10.8,49.9-1.5,3.6-10.4,21.2-12.4,23.6s-1,1.6-3.3.3c-2.3-2.8-6.9-5.6-7.2-10.3Z"/>
      <path class="st4" d="M1375.4,1547.8c-2.4,6.9-7.3,18.1-17.5,28.7-4.8,4.9-13.1,13.5-21.5,15.5-5.1,1.2-9.8,4.1-14.9,5.2-.5.1-1.4.3-1.5.7-.2,1.5,9.5,5.5,17.4,5.4,17.1-.2,28.6-20.3,30.6-23.3,6.2-9.6,13.3-20.9,7.4-32.2Z"/>
      <path class="st10" d="M411.6,1336.7c1.2.9,2.5,1.9,3.7,2.8,19.4,15,37.8,30.1,58.3,43.5,2.6,1.7,5.5,4.1,5.2,7.1-.2,1.9-1.7,3.4-3.2,4.6-7.9,5.9-18.7,5.4-28.4,4-21.1-3.1-41.6-9.8-60.5-19.6-9.9-5.1-18.5-11.7-27.8-17.6-8.1-5.1-17.2-7.5-25.3-13.3-3.3-2.4-6.6-5.1-8.5-8.7s-2-8.5.7-11.5c2.9-3.2,7.7-3.6,12-3.7,9-.3,18.1-.5,27.1-.8,9.5-.3,19.3-.5,28.3,2.6,6.7,2.3,12.6,6.3,18.3,10.6Z"/>
      <path class="st19" d="M451.8,1297.5c-6.7-3.1-13.4-2.7-20.6-3.2-7.3-.5-14.4-1.5-21.5-3.1-14.5-3.2-28.9-11.3-44.1-8.4-6.9,1.3-12.6,3.8-19.7,2.6-7.4-1.2-14.3-4.6-21.2-7.5-6.2-2.6-12.4-4.8-18.9-6.4-2.8-.7-5.8-1.3-8.5-2.4-2.9-1.8-5.7-3.7-8.6-5.5-8.6-5.5-18.1,7-10.8,14,2.1,2.1,4.4,3.7,6.8,5,0,1.4.3,2.9,1.1,4.4,3.3,6.6,8.3,11.1,14,14.4,3.6,5.3,8.9,8.5,15.3,11.2,6.6,2.8,12.7,4.2,19.1,4.2,3,.7,6,1.2,9.1,1.4,3.1,1.2,6.3,2.2,9.7,2.7,8.1,1.2,15.8-.3,22.3-5.1,4.7,1.2,9.6,1.8,14.4,2.5,7,1,14,1.9,21,2.2,14.4.7,28.1-1.8,41.2-7.9,5.9-2.7,5.8-12.7,0-15.4Z"/>
      <path class="st17" d="M316,1101.9c3-4.9,12.2,3.6,16.4,4.2l-10.2,16.8c-15.2-.6-28.2-2.1-43.1,2.6-.2-2.4,2.4-4.1,4.1-5.1,5.9-3.6,34.5-6.5,34.9-11.8-1.3-1.9-1.4-5.1-2.1-6.7Z"/>
      <path class="st20" d="M1083.6,1359.8l-29.8,87.3c.8.3,5.9,4.8,7.9,6,11.2,6.4,23.1,11,36.3,11l41.1-82.8c-13.7-20.2-32.3-25.5-55.5-21.6Z"/>
      <path class="st20" d="M453.7,953.9c4.7,3.2,14.1,4.3,19,8.2l1.5-1.5c-38.6-55.2-68.9-121.3-61.6-190.6-14.2,3.6-28.6,5.5-43.2,7.2,13.4,50.6,33.5,102.1,61.9,146.2,3.5,5.5,18.2,27.7,22.4,30.5Z"/>
      <path class="st20" d="M1477.1,913.8c2.9-3.3,5.1-4.9,7.2-10.3-3.7,2.7-5,6.6-7.2,10.3Z"/>
      <path class="st20" d="M1224.6,1278.9c-4.6-1-13.4-3-17.7-3.4-18.5-1.7-43.7-.5-60.6,7.2,36.2-6.6,86.4-3.5,120.8,10.2,12.3,4.9,23.5,15.7,38.5,16.5-24-14-53.6-24.7-81-30.5Z"/>
      <path class="st20" d="M625.3,1041.2c-.7,0-1.4,0-2.1,0-6.3-.9-14.3-3.4-20.6-3.1-.3,0-.7,0-1,0-3.7-2.1-8.6-1.3-12.3-2.1-.4,2.5.5,4.8,1,7.2,5.3,25.2,35.1,30.7,55.7,37.3,1.7.5,3.3.2,2.8,2.8,2,0,4.1,0,6.2,0,3.2,0,9.4-2.1,13.4,1,2.4,0,4.8-.1,7.2,0,29.6,1.8,54,3.9,84.3,3.1-1.3-.7-4.1-2.9-5.1-3.1-3.8-9.1-19.3-33-28.8-34.9v-2.1c-33.2-.9-67.3-4.2-100.7-6.2Z"/>
      <path class="st20" d="M1142.1,1284.8c-3.4,1.5-6.1,3.4-9.2,5.1,3.2,2.1,3.6-1.4,4.8-2,.3-.1,4.2,1.5,4.5-3.1Z"/>
      <path class="st20" d="M1255.2,475.1c17.2,15.4,33.1,34.8,44,55.2,35.9,67.1,65.6,160,87,233.6,16.8,57.4,30.6,116,42.6,174.7,1.2-.9,4.6-1.8,6.2-3.1,5.7-4.5,11.2-9.4,16.5-14.4,3.1-2.9,6.1-5.8,9-8.8,2.2-2.3,4.6-4.2,6.6-6.5,0,0,0,0,.1-.1-.1-.7-.3-1.5-.4-2.2-3.1-15.9-6.6-31.8-10.3-47.6-4.3-18.5-8.9-36.8-13.8-55.1-4.9-18.3-10.1-36.5-15.4-54.7-5.3-18.1-10.8-36.1-16.4-54.1-33-106-74.5-218.3-134.8-312.2-8.9-13.9-31.1-38.1-33.1-53.2-.2-1.6,10.1-9.6,10.1-9.6,0,0,6.1,11.2,7.2,12.6,7.3,9.8,15.7,19.7,22.4,30.2,5.4,8.4,8.3,19.2,16.6,25-21.5-38.9-47.7-75.1-76-109.4,23,63.4,32.7,132.5,31.8,199.9Z"/>
      <path class="st20" d="M1278,1180.8c6.5-2.5,10.5-7,7.3-13.8-3-6.3-9.8-8.6-13.2-14.3-5.1-8.5-7.4-20.6-10.1-30.2s-5.7-21.7-7.9-32.8c-1.8-9.1-4.1-19.6-12.3-24-4.6-2.5-10.1-2.5-15.3-2.2-20.2,1-39.5,5.5-59.7,5.5l22.6-31.8c-33.9,17.5-90.1,61.6-68.6,105.1,23,46.7,115.6,54.7,157.3,38.5Z"/>
      <path class="st20" d="M1307.6,1523.2l-17.5,40.1c1.5,1.6,29-22.3,31.4-25.1.9-1,4.5-4.9,4.1-5.7l-18-9.2Z"/>
      <path class="st20" d="M381.2,1205.2c3.5-.5,7.2-1.3,9.9-3.6,4-3.4,4.9-9.2,5.9-14.4,1.6-8.6,4-17,4.6-25.7.6-8.7-1-18-6.7-24.6-5.6-6.6-14.4-9.7-22.9-11.2-10-1.7-20.3-1.6-30.2.4-4.1.8-8.2,2-11.9,3.9s-4.2,2.5-6,4.3c-3.7,3.7-5.6,8.5-6.5,13.6s-4,11.6-5.2,17.7c-1.5,7.9-1.7,16.2,1.4,23.6,1.6,3.8,4.2,7.3,7.4,9.9,3,2.4,5.5,5.5,9.6,5.2,3.9-.3,7.4-1.1,11.3-.7,4,.4,7.8,1.4,11.8,1.9,9.1,1.1,18.3,1,27.4-.3Z"/>
      <path class="st20" d="M414.5,1169.9c-1.5,7.1-2.4,14.4-1.5,21.6.7,5.6,3.2,9.5,7.4,13.3,7.6,6.9,18.6,10.9,28.9,10.2,20.1-1.3,20.9-26.9,18-41.7-.9-4.6-2.8-9.1-5.5-12.9-5-6.9-12.8-11.9-21.2-12.8-13.3-1.5-22.4,8.3-25.7,20.4-1.8,6.7-2.8,13.8-1.8,20.7"/>
      <path class="st20" d="M457.5,1134.6c8.7,3.3,10.2,10.3,22.4,22,2.4,2.3,4.5,4.1,5.8,5.2,2.5-3.2,5.5-8,5.9-14,.4-6.7-2.6-11.3-4.7-16.1-2.7-6.3-5.2-16-3.3-30.2-7,1-21.8,4.2-36,15.7-9.9,8-15.6,17-18.7,22.8,5.4-.3,10.8-.5,16.1-.8-.1-1.4,0-3.1,1.1-4.3,2.9-3.2,10.4-.5,11.4-.1Z"/>
      <path class="st20" d="M357.3,1100.5c-1.7,1.7-3.2,3.5-4.4,5.6-2.5,4.1-4,9.3-2.2,13.7,1.5,3.9,5.3,6.5,9.2,8s8.1,2.1,12.2,3.1c5.3,1.4,11.9,3.7,16,7.4,4,3.6,8.6,6.9,14.5,4.9,7.3-2.5,9.4-14.1,9.8-17.1-.8-5.2-2.1-11.2-4.4-17.8-3.1-8.7-7.5-19-13.8-25.9-1.5.7-2.6,1.9-3.9,2.7-1.8,1.1-4.1,1.4-6.1,1.9-4.9,1.3-9.7,2.8-14.3,5-4.5,2.1-8.8,4.9-12.3,8.4Z"/>
      <path class="st4" d="M218.2,1182.7c-.3,2.4-.5,4.8-.7,7.2-.2,3.4-.4,6.7-.4,10,0-1.5,0-2.8.2-4.1,1.4-19.9,15.8-51.4,15.4-67.3-5.4,12.2-12,30.8-14.6,54.2ZM337.6,1383.4c-.3-.1-.7.1-1,0-7.4-6.7-15.5-12.7-23.6-18.5l-1-2.6c-11.4-9.9-24.3-17.7-36-27.2-.4-.3-.7-.7-1-1-2.1-1.7-2.9-2.6-4.1-3.5-.3-.4-.6-.7-.7-.7,0,0-.2,0-.3,0-.7-.5-1.7-1.1-3.1-2-.3-.7.3-2.1-.5-3.1-.6-1.1-1.9-.7-2.6-1-7.7-15-21.7-31-31.3-46.1,41,101.1,154.5,134.4,188.5,141.6-29.1-9.5-56-22.4-83.2-36ZM1245.9,1624.4c3.4,4.7,11.3,10.6,17.2,14.1l-17.2-14.1ZM1270.2,1642.2c11.5,4.7,27.3,6.9,39.4,6.4-10.9.2-22.3-2.6-39.4-6.4ZM1330.5,1644.2c7.6-2.9,14.9-7,21.8-11.2-8.5,5.1-15.5,8.8-21.8,11.2ZM1452.6,1293.1c-.2,1.8.1,3.5.6,5.2.5-.3,1.3-.8,2.4-1.6-.9-1.3-1.9-2.5-3-3.7ZM1453.4,1299.2c.5,1.6,1.1,3.2,1.6,4.8,1.2,4,2.3,8,3.4,12,2.2,8.3,4,16.6,5.5,25,.5,3,1,6,1.4,9-2.2-17-5.7-34.9-11.8-50.8ZM1467,1392.1c-.2,2.7-.4,5.4-.8,8.1.7-5.7,1.1-11.4,1.2-17.2,0,3-.2,6.1-.4,9.1ZM1475.9,1437.4s0,0,.2,0c0-.2,0-.3,0-.5.6-9.8,1.8-20.7,2-30.6-.3,7.6-2.3,31.2-2.3,31.2Z"/>
      <path class="st15" d="M1505.4,1276.6c-6,2.8,2.9,49.8,33.4,84.8,2.3,2.6,4.4,4.9,6.2,6.6,3.7-3.1,9-7,12.2-11.6-1.1-2.5-2.4-5.6-4.1-9.1-15.6-33.5-41.7-73.5-47.7-70.8Z"/>
      <path class="st17" d="M1324.9,1195c-2.1-13.9-4.8-31.9-10.2-44.8v-1l-1-1c-14-18.7-27.1-46.8-37-68.8-3.5-7.7-5.4-8.6-12.1-13.3-28.2-19.6-67-39.2-101.3-41.8-71.2,40.1-124.5,115.4-80.6,197.3,8.3,15.5,20.4,23.1,29.1,37.7,18.5,4.5,21.5-12.1,31.8-22.6,18.7-19,78.4-36.6,104.8-36.8,23.9,0,55.6,5.9,78.6,12.6,24.7,7.2,47.8,20.1,68.3,35.4-14.2-29.7-41.7-41.3-70.5-52.8ZM1278,1180.8c-15.3,8.3-129.9,17.3-157.3-38.5-21.4-43.6,34.8-87.6,68.6-105.1l-22.6,31.8c11.3,0,22.7,0,34,0,6.6,0,13.2.3,19.8,0,6.8-.3,12.3-2.2,19.4.4,10.9,3.8,18.9,13.5,23.5,24,4.2,9.6,5.4,19.6,7.3,29.7.3,1.8.6,3.5.8,5.2,0,.8.5,5,.4,8.3-.1,2.5-.8,7.3-4.2,13.4,2.8,2.3,6.5,5.7,10.5,10.1,7.5,8.3,7.5,11,7.4,12.2-.5,4.5-5.8,7.4-7.7,8.5Z"/>
      <path class="st17" d="M417.7,762.8c4,.7,8.4,2,12.3,3.1-6.2-.2-11.7,2.7-17.5,4.1-7.2,69.3,23,135.4,61.6,190.6l-1.5,1.5c-4.9-4-14.3-5-19-8.2-2.1,1.1,2.4,6,3.1,6.7,45.5,48.5,121.3,55.4,183.9,61.1l-48.3-19c-47.1-23-79.9-43.1-101.2-93-19.2-45.1-38.4-103.3-29.3-152.1-23.2-9.4-50.3-19-61.7-43.2-7.2,13.9-9.6,20.3-5.1,34.9,8,1,18.1,6.5,22.6,13.4Z"/>
      <path class="st17" d="M1287,751c-3.5-2.3-7.2-2.5-11.3-2.6-26.8-.3-60,9.2-87.9,11.3-22.1,1.6-44.7-.3-66.7,2.1-18.9,2-35.6,9.2-54,13.3,0,0,0,.2,0,.2,0,0-.1,0-.2,0-3.6.6-7.4,4.5-8.1,8.1-4.9,25.3-11.7,50.1-20.3,74.4-7.7,21.6-16.4,44-32.3,61-16.1,17.1-36.8,30.4-56.4,43.1-20.1,13.1-41.2,24.6-64,32.5-.2,0-.4.1-.6.2-6.8.3-13.6.6-20.4,1.4-10.6,1.3-20.6,4-30.8,7.1-7.7,2.3-15.3,4.5-23.2,5-1.5,0-2.9,0-4.4.1-14.9.2-14.9,22.8,0,23.1,2,0,4,0,5.9-.2,26.2-.9,51.7-5.6,76.1-13.7,9.7-.6,19.3-1.6,28.9-3.5,0,3,.1,6,.2,9-51.6,12.3-105.4,21.9-157.6,24-4-5.2-8.3-10.3-12.9-15.1-3.6-3.8-8-4.3-11.6-2.8-1.2-1-2.4-2.1-3.6-3.1-4.8-4-11.7-4.7-16.4,0-4.1,4.1-4.8,12.4,0,16.4,17.5,14.5,31.9,29.9,41.5,50.7,2.6,5.7,10.8,7.1,15.8,4.2,4.1-2.4,5.8-6.4,5.5-10.6,61.1-3.1,117.2-14,174.3-34.5,1,.6,2.2,1.1,3.5,1.4.4.1.9.2,1.3.3,1.6,1,3.7,1.7,6.1,2.1,6.6,4.7,18.1,1.6,18.6-9,.1-2.7.3-5.3.5-8,2.6-15.4,5.1-30.9,7.7-46.3,17.5-5.8,34.8-11.9,52.2-18.2,13.2-4.7,26.4-9.4,39.5-14.4,11.8-4.5,23.5-9.6,33.8-17.1,10.7-7.9,19.9-17.5,27.1-28.7,3.5-5.4,6.2-11.1,8.7-17,1.2-3,2.3-6,3.3-9.1,0-.3.2-.6.2-.9.2.1.4.2.6.3,2.8,1.4,5.7,2.7,8.7,3.5,6.2,1.6,12.6,1.7,18.9.8,12.3-1.9,22.9-9,29.8-19.3,7.3-10.8,8.9-24.2,13.2-36.2,4.1-11.4,10.7-21.8,19-30.6,4.5-4.8,3.8-10.7.7-14.8,13.9-12.9,27.4-27.3,41.1-40Z"/>
      <path class="st17" d="M1278.9,1496.7c.7-26.2-37-58.1-61.4-62.2,4.8,2.8,20.2,12.6,25.3,31.2,3.9,14.6,0,26.9-6,40.6-4.3,10-15.9,32.6-24.7,36.8-11.7,5.6-26.8-.6-37.3-6.4-11.8-6.5-24.7-16.3-29.4-29.4-.9-2.6-1.5-5.3-1.8-8-4.2,9.3-5.6,18.4-6.5,28.4-.4,4.1-1.5,7.9-1.2,12.1.4,4.6,1.9,9,3.9,13.1,12.4,24.6,69,43.7,90.4,25.3,4.8-4.1,28-42.1,32.6-50.1,2.8-4.7,15.9-27.9,16-31.5Z"/>
      <path class="st17" d="M1138.3,1381c-11,24.4-23.1,48.3-35,72.2-1.8,3.6-3.6,7.2-5.4,10.9-.7,1.4-12-1.3-13.5-1.6-5.6-1.3-9.5-2.8-13.3-4.6-14.5-7-23.6-22.7-25.5-26.1-3.7,5.7-9.9,17.3-10.5,32.9-.3,7.5-1.2,19.2,6.2,28.9,7,9.1,18.3,13.6,28.4,19.2,6.9,3.8,13.5,8.4,20.8,11.3,7.4,2.9,15.8,4,23.1.9,7.4-3.3,12.3-10.4,16.4-17.4,8.9-15.2,15.9-31.5,21.1-48.4,3.5-11.5,6.2-23.4,5.6-35.4-.9-16.7-7.7-33.8-16.1-48.1-.8,1.8-1.6,3.6-2.4,5.3Z"/>
      <path class="st17" d="M684,1089.5c.6-6.8-82.6-8.2-93.6-46.2-1.6-5.5-1.3-10.5-.8-13.6-14.9-3.2-30-6.8-45.5-10.6-19.3-4.8-38-9.8-56.1-15,4.5,8,11.5,18.4,22.4,28.4,5.8,5.3,11.4,9.3,16.5,12.5-6.2-1.2-12.5-2.5-18.7-3.7,12.3,11.9,31,27.2,56.7,38.6,59.4,26.3,118.6,15.3,119.1,9.7Z"/>
      <path class="st17" d="M1086.1,1534.5c-14.9,0-55-26.4-62.2-40.1-.3,0-.9.2-1.5,0-1.1-.3-1.6-1.3-1.7-1.5,4.3,12.4,8.8,24.8,13.4,37.4,4.5,12.1,8.9,24.1,13.5,35.9,10,7.3,23.7,5.9,36,6.2.4-.3.7-.7,1-1,11.8-10.6,24.2-18.5,18.5-37h-17Z"/>
      <path class="st3" d="M964.4,253.8c-8.7,4.5-18.1,6.6-27.9,6.4-10.3-.2-20.1.2-30.3,1.5-20.9,2.6-41.8,2.3-62.4-1.9-4.7-1-8.3,1.5-10,4.9-.6-.1-1.3-.3-1.9-.4l-15.4,52.4c.3,0,.6,0,.8,0,0,0,0,0,0,0-1.8,2.2-2.9,5-3.1,8.5-.5,8,9.8,11.3,15,6.6,1.2-.7,2.2-1.8,2.9-3.3,0,0,0,0,0,0,.3,0,.6,0,.9,0,1.9-.2,3.8-.3,5.7-.4,3.7-.2,7.4-.3,11.1-.2,7.9.1,15.8.8,23.6,1.3,14,.9,32.1,3.3,44.1-5.5,5.1-3.8,8.6-8.9,12.7-13.6,4.6-5.3,9.8-10.1,15.1-14.7,10.2-8.8,21-17,29.9-27.3,6.6-7.6-1.6-18.8-10.8-14Z"/>
      <path class="st17" d="M670,428.1c-13.1-7.3-28.7-8.5-43.7-8.1-14.5.4-29,2.2-43,6-6.9,1.9-13.7,4.4-19.4,8.6-3.7,2.8-6.2,6-8,9.5-2.4-.3-5.4-1.1-6.8-3.5-4.9-7.9,11.8-26.4,17.5-32.7,17.5-19.4,39.8-35.9,91.7-62.4,14.9-7.6,27.8-13.8,38.1-18.5-8.6-14-17.1-28.1-25.7-42.1-.5-1.9-1.5-4.2-3.7-5.5-6-3.7-16.4,3.3-22.1,7.3-23.4,16.3-56.2,44-65.5,51.9,11.6-2.8,23.2-5.6,34.7-8.5-15,7-31,17.1-44.1,27.4-19,14.9-78,73.8-78,97.2,0,8.8,7.6,34.5,11,43.5,8.8,22.6,25.5,48,48.3,58l-7.2-58.6c-2.9-24.1-3-36.6-.1-37.3,1.2-.3,3,1.5,5.2,5.4l7.2,40.1,23.6-15.4,3.1-2.1h1c.9,0,5.3-4.9,6.7-5.7,3.2-1.8,6.3-3.8,9.5-5.7,7.1-4.4,14.3-8.6,21.7-12.6,14.5-7.8,29.5-14.8,44.9-20.7,2.1-.8,4.2-1.6,5.9-3s3-3.5,2.9-5.8c-.2-3.1-3.1-5.2-5.8-6.7Z"/>
      <path class="st17" d="M313.2,1144.6c0-.6,0-1.2,0-1.7-.5-4.1-4.4-7-8.3-8.3-9.8-3.3-20.4,0-29.1,4.6-8.2,4.5-17.1,8.3-21.8,16.9-2.9,5.3-3.6,11.6-3.8,17.7-.2,8.8.7,17.6,1.6,26.4.9,8.1,1.7,16.3,4.2,24.1,1.6,5.2,4.2,10.5,8.9,13.2,2.6,1.5,5.7,2,8.7,2.2,2.3,0,4.7,0,6.8-1,2.8-1.2,4.9-3.5,6.7-5.9,7.4-10.1,10.4-22.7,12.4-35,1.3-8.1,2.2-16.3,3.9-24.3,1.7-8.1,4.1-15.2,7.7-22.6,1-2,1.9-4,2.2-6.2Z"/>
      <path class="st17" d="M325.9,1185c-3.5-.9-6.4-2.4-6.4-2.4-1.8-1.1-3.4-2.4-5.5-3.7-2.3,4.8-5.3,12.7-5.2,22.7,0,5.4.1,14.9,6.5,23.8,0,0,6.6,9.1,18,12.9,16,5.3,35.9-2.2,51-18.5,5-19.4,10-38.8,15-58.2-3.5,2.4-26.6,18-47.9,22.9,0,0-14.1,3.3-25.4.4Z"/>
      <path class="st17" d="M331.4,1264.2c6,.9,9.2,6.3,13.8,9.3l33.4-4.2-2.1-29.8-45.2,24.6Z"/>
      <path class="st17" d="M411.6,1273.5c.7,7.8,17,12.6,23.4,13.1,16.4,1.4,26.1-16.6,23.9-31.6-11.8,10.6-31.5,15.8-47.2,18.5Z"/>
      <path class="st17" d="M408.2,1134.9c.6-1.9,1.2-4,1.2-6s-.3-1.1-.7-1.9-.6-1.4-.2-1.5c-12.7,3.6-21-11-30.8-12.9-6.1-1.2-12.5.6-18.6-1.5-.4-.1-2.6,2.3-2.9,2.6-.6.7-.9,1.4-1.5,2s-1.3,1.5-1.6,2.4c-.5,1.3-.2,3,1,3.7.8.5,1.8.4,2.7.3,12-.7,24.2,3,33.7,10.4,2.8,2.2,5.5,4.8,8.8,6.2,1.9.8,4.1,1.3,5.9.2,1.5-.8,2.3-2.5,2.9-4.1Z"/>
      <path class="st17" d="M480.6,1152.3c-3.5-4.4-9.8-12.2-20-16.7-5.4-2.3-14.7-5.1-16.9-2-.7.9-.5,2.2-.3,3.2,2.9,1.7,6.3,3.9,9.8,6.8,3.9,3.2,7,6.4,9.4,9.2,7,8.7,14,17.4,20.9,26.1,3.5-3.9,2.1-13.9,2-19.5-1.1-1.8-2.7-4.3-4.9-7.1Z"/>
      <polygon class="st17" points="288.3 1256 312.9 1258 306.7 1235.5 288.3 1256"/>
      <path class="st17" d="M1096.4,279.8l1.5,53.5c2-1.5,8.5-4,11.3-4.6-1.2,1.3-1.1,3.2-.8,4.9,2.9,14.2,10.6,30.6,13.9,45.8,12.5,57.7,9.6,118.9,1.3,176.9,37.4-23.2,76.6-67.1,83.8-111.9,1.7-10.5.5-21.5,2.5-31.9-4.8-61.1-21.8-125.9-57.7-176-3.7-5.1-14.5-22.7-22.2-19l-57.7,75.3,21.5-13.5,2.7.6Z"/>
      <path class="st4" d="M1604.5,1026.4c25,21.5,52.5,40.9,75.8,63.9,8.7,20.1,17.3,41.2,25.6,63.3,16.5,44.2,29.5,86.4,39.9,126-4.1-46.7-13.4-130.1-34-189.5-2.7-7.7-5.7-15.4-10.6-24.3-13.6-24.6-32.1-40.8-83.6-74.2-18.8-12.2-42.3-26.9-69.7-42.9,1.4,35.6,32.1,56.6,56.5,77.6Z"/>
      <path class="st15" d="M1040.9,1330.2c-11.5,2.4-15.5,15.4-26.6,36.7-28.9,55.8-58.4,77.2-51,87,6.1,8.2,25.7-7.6,49.6,4.4,8.4,4.2,19.1,12.7,27.5,21.9,3.6,3.9,6.4,7.5,8.2,10-.9-4.4-1.5-9.3-1.7-14.7-.5-13.9,2.2-25.6,5-33.7.9.9,1.8,1.9,2.7,2.8,9.7-28.3,19.3-56.6,29-84.9-7-9.7-25.4-33.2-42.6-29.6Z"/>
      <path class="st20" d="M928.4,174.5c14.2-7.2,25.2-44.1,17.7-57.7-7.3-13.3-24.1-3.6-30.6,5.3-11.8,15.9-20.5,69.3,12.9,52.4Z"/>
      <path class="st20" d="M895.5,205.3c-6.1,15.1,7.9,21.1,14,11.4,10.4-16.4-7.4-27.8-14-11.4Z"/>
      <path class="st8" d="M1000.5,878.6c-33.7,59.2-88.6,87.8-148.8,109.6-10.8,4.9-22.2,8.8-33.2,12.7,0,0,0,.2,0,.3-.4,0-.9.1-1.4.2-.3.1-.6.2-.9.3-14.4,5-29.2,9.1-44.2,11.3-2.5.9-5.1,1.8-7.6,2.6-5.3,1.7-10.8,3.1-16.5,3.2-5.1,0-10.2-1-15.3-1.7-10.9-1.5-21.8-1.1-32.7-2.2-8.2-.8-16.3-2.9-22.6-8-3.1-1.1-6-2.3-8.8-3.6-75.5-37.4-165.4-188.2-129.7-270.9,13.9-32.2,73.8-51.5,125.2-62.5,23.8-5.1,45.8-8.5,60.6-10.6,2-.3,3.9-.5,5.9-.8,27.2-3.8,54.5-6.8,81.9-7.2,45.6-.7,93.3,5.5,133.5,28.2,36.2,20.4,67.2,53.5,76.2,93.1,8.3,36.8-3.5,74.3-21.7,106.3Z"/>
      <path class="st17" d="M1233,848.4c2,5.9,4.1,11.8,6.1,17.8,16.3,1.5,32.6,3,49,4.5,1.4,3.6,2.9,7.3,4.3,10.9-12.5,20.6-24.9,41.2-37.4,61.7,1.8,3.9,3.6,7.8,5.3,11.6,13.2-14.4,26.4-28.8,39.6-43.2,13.7,47.4,27,94.8,40,142.4,5.3,19.3,10.5,38.6,15.7,58,.9-4.6,1.7-9.2,2.6-13.8,4.7,15.9,9.5,31.8,14.2,47.7-.7-31.3-3.5-66.1-9.8-103.6-12.9-77.6-36.3-141.9-58.9-190.8-23.5-1.1-47.1-2.2-70.6-3.3Z"/>
      <path class="st20" d="M1149.3,700.1c43-3.5,79.6-30.6,107.9-61.1.4-2.4-1.1-1.3-2.6-1.5-11.9-1.8-24-3.1-36.1-4.6-.8-2.5-2.6-4.7-5.8-5.7-19.9-6.2-41-3.1-61.1-7.7-9.7-2.2-18.4-6.9-27.9-9.8-4.5-1.4-9.1-2.2-13.8-2.5,3.1-6.4,1.8-14.5,0-21.1-4.1-15.1-14.4-27.4-25-38.5-10.5-10.9-20.5-21.4-27.3-35.1-6.7-13.5-9.6-28.6-9.3-43.6.1-5.8-5.8-10.2-11.3-8.6-9.7,2.8-18,8.9-24.4,16.7-.2.3-.4.5-.6.8-.2-3.2-2.2-5.9-4.7-7.5,9.2-25.3,20.7-50,34.6-72.1,12-19,38-51.9,55.9-64.8l-1.5-53.5-2.7-.6-21.5,13.5,57.7-75.3c7.7-3.7,18.5,13.9,22.2,19,35.9,50.1,53,114.9,57.7,176,.2,2.4.4,4.8.5,7.2,0,.4,0,.8,0,1.2-.3,29.6-.7,59.3-1.2,88.9-.4,28.8-1,57.5-5.3,86.1-.7,4.8,1.2,9.6,6.2,11,4.2,1.2,10.3-1.4,11-6.2,4.4-29.6,5.4-59.1,5.9-88.9.4-26.4.8-52.8,1.1-79.2,3.5-.9,6.4-3.7,6.4-8.3,0-15.5-1.2-31-3.5-46.4,4.3-1.5,7.8-5.7,6-10.7-8.3-22.9-16.5-45.8-24.8-68.7-7.4-20.4-14.8-40.7-23.9-60.4-8.9-19.1-19.4-38.5-33.4-54.4-6.9-7.8-16.5-12.5-26.9-9.4-10.7,3.2-19.7,12.3-28.3,19l-33.5,26.1c-2.1-.8-4.6-.6-6.9,1.2-36.6,27.6-71.6,57.4-104.5,89.4,0,0,0,0,0,0-31.7,26.7-61.2,55.9-88.3,87.3-2.2-4-5.3-7.4-9.6-9.3-2.8-1.2-5.4-1.7-7.9-1.6-3-1.1-6.6-.8-9.4,1.7-6.4,5.6-10.7,12.6-13.7,20.5,0,0,0,0,0,0-1.2.5-2.4,1.2-3.4,2.5-16.2,18.5-29.9,38.6-42.1,59.7-.4.4-.7.9-1.1,1.4-20.5,34.2-41.1,69.1-50.5,108.1-1,4.2.4,7.3,2.9,9.1-.6,2.4-1.2,4.7-1.7,7.1-.4,1.7-.4,3.3,0,4.6-.8,1.1-1.6,2.3-2.2,3.6-3,5.6.6,13.9,7.7,13.5,28.4-1.6,56.8-3.3,85.2-4.9,26.6-1.5,54-3.8,80.4,1.6,25.8,5.3,48.1,19.1,70,33.2,20.7,13.4,40.9,27.9,57.2,46.7,17.3,20,29,45.5,27.9,72.3-.2,4.8,4.3,8.9,8.9,8.9s3.8-.6,5.2-1.7c17.2-4.2,33.1-10.7,51-12.6,22-2.4,44.6-.5,66.7-2.1,27.8-2,61.1-11.5,87.9-11.3-46.3-5.4-79.9-45.5-126.4-48.3Z"/>
      <path class="st13" d="M838.3,496.5c-16.3,9.2-36.5,20.6-63.7,29.8-5.8,2-10.6,3.4-13.7,4.2-1.9-1.9,9.1-20.7,10.8-23.6,20-34,46-64,67.2-96.4,2.4-3.7,6.4-6.7,9.6-9.7,2.6-1.6,5.3-3.1,7.9-4.7-8.5-6.4-17.1-12.8-26.7-17.5-13.1-6.5-27.6-9.5-42.1-11.7-56.1-8.7-113.8-6.4-169,6.7,18,22.7,45.3,38.6,71.4,50.4,2.7,1.2,25.9,10.2,24.6,14.2-1.4.8-3,1.7-4.5,2.6-16.6,9.7-33.3,19.5-49.9,29.2h-1l-7.1,85.9c-.6.9-1.3,1.5-2.1,2-11.2,6.5-39.8-24.5-44.2-29.2,10.8,44.3,21.1,59.8,29.3,64.8,1.2.7,6.3,2.5,9.7,8,4.2,6.6,5.3,18.8,10.3,25,26.9-6,55.7-9.6,83.2-12.3.5-.8,0-6.3.7-7.3,8.4-12.7,47.9-23.2,61.6-35.3,5.7-5.1,13.8-18.4,18.5-25.2,13.9-20.4,26.3-42.1,40.4-62.3-8.6,5.5-16,9.8-21.2,12.8Z"/>
    </g>
    <path class="st2" d="M833.2,255.9c11-25.5,24.3-52.9,40.7-81.4,32-55.6,66.9-100.5,98.7-135.6-9.8-2.6-19.6-5.3-29.5-7.9-31.8,28.2-72.5,71.4-106.2,132.3-16.9,30.5-28.6,59.5-37,84.9,11.1,2.6,22.2,5.1,33.3,7.7Z"/>
    <path class="st15" d="M1350.9,1304.8c-23.9-9.4-47.9-18.9-71.8-28.3-4.8-1.9-9.6-3.9-14.4-5.8-.9-2.3-2.5-4.2-4.9-5.3-1-.4-1.9-.8-2.9-1.2,0,0,0,0,0,0,0,0-.2,0-.3,0-8.5-3.2-17.3-4.1-26.2-4.1-8.4-.8-16.8-1-25.3-.7-2.5,0-4.6.8-6.3,2-11.6.6-23.2,1.3-34.6,2.9-30.1,4.2-57.4,18.3-82.5,34.7-13,8.5-.9,29.4,12.2,20.9,22.4-14.6,46.2-27.6,72.9-31.7,13.7-2.1,27.9-2.3,41.7-3,.8,0,1.7,0,2.5-.1,8.7,1.2,17.5,1.1,26.1,2.7,12.3,2.2,23.9,7.7,35.5,12.2,23.9,9.4,47.9,18.9,71.8,28.3,6.1,2.4,13.3-2.6,14.9-8.5,1.9-6.9-2.3-12.5-8.5-14.9Z"/>
    <path class="st15" d="M1132.6,1331.5c-.1-1.7-1.1-3.3-2.8-3.8-1.1-.3-2.2,0-3.3.4-.4,0-.8.2-1.1.3-1.4.5-2.5,1.3-3.5,2.5-.6.7-1.2,1.5-1.6,2.3,0,0,0,0,0,0-.3.4-.5.9-.6,1.4-.7,1.6-.3,3.5,1.3,4.4,1.3.7,3,.6,4.4.2,1.1-.3,2.1-.9,3.1-1.5.9-.7,1.9-1.4,2.6-2.2.9-1.1,1.7-2.4,1.6-3.9Z"/>
    <path class="st20" d="M1517.9,1184.2c-1.4-22.7-3.4-45.3-5.6-68-2.3-23-5-45.9-7.8-68.8-1.4-11.6-2.8-23.2-4.4-34.7-1.5-11-4.1-21.6-6.9-32.3-3-11.7-3-22.9-2.2-34.8.6-9,1.1-18.3,4.8-26.6.6-1.1,1.2-2.3,1.8-3.5,0,0,0,0,0,0,0,0,0,0,0,0,.4-.9.8-1.8,1.2-2.8,4.8-12.5-14.6-19.9-21.2-8.9-1.3,2.2-2.5,4.6-3.5,7-4.9,6.9-14.2,12.1-20.4,16.5-10.1,7.2-20.5,14-31,20.5-21.1,12.9-43.2,24.3-66,33.9-5.8,2.4-9.9,7.7-8.1,14.2,1.6,5.8,8.3,10.1,14.2,8.1,12.4-4.2,24.5-9.5,35.9-16,.7-.4,1.3-.8,1.8-1.3,9.4-4.1,18.4-9.1,27-14.7,0,.2,0,.3,0,.5,8.2,41.6,17.4,83.2,24.4,125,7,41.4,4.2,84.1,4,125.9,0,8.1,10.1,15.3,17.4,10,9.3-6.8,18.5-13.6,27.8-20.5,4.2-3.1,8.7-5.9,12.6-9.3,5.9-5.2,4.4-12.3,4-19.4Z"/>
    <path class="st3" d="M1535.7,1171.7c-.5-3.4-1.6-6.8-2.1-10.3,0-.6-.9-1.5-1-2.1-4.6,13.3-12.5,22.5-22.6,31.9-14,13-30.5,20.4-46.2,30.8,7.4-20.3,4.1-44.3,5.1-65.8-5.7-64.1-22.5-126.7-32.9-190.1-21.9,15.7-47.1,27.7-74,31.9,7.6,33.6,16.5,67.1,24.2,100.7,5.2,22.8,9.2,62.6,16.4,82.2,4.2,11.4,20,28.7,26.4,42.5,7,15.2,10.7,31.9,15.2,48,34.1-22.3,69.9-46.7,94.5-79.7.7-6.9-2-13.4-3-20Z"/>
    <path class="st15" d="M1532.6,1159.4c-6.9,15-16.2,25.6-22.6,31.9-4.1.3-2.6.3-3.1-2.5-3.7-21.7-2-44.7-4.8-66.9-3-23.4-7.4-46.6-11.1-69.9-4.1-25.9-8.2-51.8-12.3-77.6-2.6-16.7-13.5-47.3-1.7-60.6.2-.2,1-1,2-2.2,4.9-5.8,5.6-9.6,9.5-15.4,1-1.4,2.6-3.6,4.8-6,7.2,43.8,15,78.9,20.7,102.6,20.1,83.3,38,123.7,18.4,166.5Z"/>
    <path class="st13" d="M1073.8,1274.4c-.7-2.6-2.2-4.8-3.7-6.9s-3-3.1-4.1-5.3c-2.1-4.3-2.9-9.2-5.2-13.5-2.5-4.5-6.5-8-11-10.5-7.7-4.3-17.1-5.9-25.7-3.9-8.6,2.1-16.4,7.9-20.3,15.9-3.4,7-3.7,15.3-1.9,22.9s5.6,14.6,10.2,20.9c-14-8.1-23.1-23.9-23-40.1-.1.4-.2.9-.4,1.3-2.3,8.8-3.1,18-2.4,27.1.6,8.9,2.9,17.2,7,25.2,4.4,8.6,12.4,11.4,21.7,10.9,8.3-.5,16.4-2.6,23.8-6.5,7.4-3.9,13.6-9.8,19.8-15.3,6.4-5.5,18-12.2,15.3-22.2Z"/>
    <path class="st10" d="M1072.9,967.8c-2.9-5-10.7-7.8-15.8-4.2-.3.2-.6.5-.9.7-1.6.2-3.2.8-4.8,2-7.7,5.6-17,7.7-25.4,11.7-2.8.2-5.4,1.3-7.3,3.3-.8.8-1.5,1.7-2.2,2.5-.4-.2-.9-.4-1.3-.5-6.5-1.8-12,2.2-14.2,8.1-2.5,6.4-4.3,13-5.4,19.8-.2,1-.2,2.1-.2,3.1l-1.3,5.9c-1.6,7.6-4.9,16.2-.7,23.5,4,6.9,16.4,8.2,20,0,.8-1.9,1.6-3.9,2.4-6,1.6-1,2.9-2.3,4.1-3.9,1.1-1.6,2.2-3.1,3.3-4.7,6.6-9,13.9-17.6,21.9-25.5,5.9-5.2,12.8-9.9,18-15.8,1.9-1.5,3.8-2.9,5.7-4.3,5.1-3.7,7.5-10.1,4.2-15.8Z"/>
    <path class="st20" d="M504.5,566.7c-11.5,2.7-21.9,8.5-31.5,15.4-4.7,3.4-9.3,7-13.9,10.6-2.3,1.8-4.6,3.6-6.9,5.3-.7.5-1.5,1.1-2.2,1.6-.8-2.2-1.4-4.5-2.1-6.6-1.5-4.6-2.9-9.3-4.1-14.1-2.5-9.7-4.2-19.5-5.2-29.4-.5-4.8-3.8-8.9-8.9-8.9s-9.4,4.1-8.9,8.9c1.3,13.8,3.7,27.4,7.6,40.7,1.9,6.6,4.1,13.1,6.7,19.4,2.6,6.5,7.4,12.2,15.2,10.3,5.3-1.3,10.1-5.9,14.3-9.1,4.7-3.6,9.3-7.3,14-10.8,3.1-2.3,6.3-4.6,9.6-6.7-5.2,6.9-11.1,13.5-15.4,20.7-4.8,8.2-8.3,17.3-14.4,24.7-6,7.3-13.4,13.4-20.4,19.8-12.4,11.4-25.5,22.1-37.9,33.4-1.3.4-2.7,1.1-3.8,2.3-2.3,2.4-4.5,4.9-6.4,7.5-1.1,1.2-2.1,2.4-3.2,3.6-3.6-4.8-12-6-14.9.5-6,13.3-3.1,26.3,2,39,.4,5.4,1,10.7,1.3,15.8.1,1.8.2,3.6.3,5.4-1.6.1-3.2.2-4.8.3-11.5.3-11.5,18.2,0,17.9,3,0,5.9-.3,8.7-.6,1,2,2.2,4,3.7,5.8,5.2,6.5,14.9.7,15.3-6.3,0-1.2,0-2.4-.3-3.6,3.3-1.1,6.6-2.3,9.9-3.7,4.4-1.9,5.4-8.4,3.2-12.2-2.7-4.6-7.8-5.1-12.2-3.2-1.9.8-3.9,1.5-5.9,2.2,0-1.6-.2-3.2-.3-4.8,2.9-2.1,4-5.9,3.3-9.6-2.3-13.8,5-27.3,11.9-39.1,2.4-2.2,4.8-4.2,7.1-6.1,15.1-12.8,29.8-26.2,44.4-39.7,6.9-6.4,13.4-13,18.5-20.9,4.8-7.6,8.2-16.1,13.2-23.6,8.9-13.4,21.3-24.5,24.4-40.9,1.3-6.7-4-12.7-11-11Z"/>
    <path class="st17" d="M433.5,759.2c-3-1.8-6.2-3-9.8-3.1-.5,0-1.1,0-1.7.1-.6-.3-1.4-.6-2.1-.7-.8-.2-1.6-.2-2.4-.3,0,0,0,0,0,0-.3,0-.4-.2-.6-.4-.7-1.1-1.4-2-2.2-2.9,0-.5,0-1,0-1.5.4-11.4-17-11.5-17.9-.4,0,.1,0,.2-.1.4-1.1,4.8-.6,9.3,2,13.5,1.6,2.5,4,3.9,6.6,4.3.4.2.7.4.7.6.2,1.7-12.3,4.6-37.3,8.5,8.4,6.3,19.7,13.1,34,17.3,3,.9,6,1.6,8.8,2.2,6.6-18.8,9.9-22.9,11.7-22.6.4,0,.7.2,1.2.5,9.9,6,18.9-9.5,9-15.4Z"/>
    <path class="st14" d="M730.5,658.3c-6.2,22.8-12.3,43.8-18.2,63-6,19.6-8.6,26.9-13,27.4-9.8,1.1-22.4-32.3-35.2-79,3.2-3.5,13.5-13.7,30.5-16.8,18-3.4,31.9,3.3,36,5.4Z"/>
    <path class="st0" d="M791.8,676.1c-2.7,2.4-5.4,4.9-7.2,8s-2.7,6.9-1.9,10.4c1.3,5.2,6.2,8.8,11.4,10,11.4,2.7,23.2-4.7,29.3-14.7,3.6-6,5.5-12.8,6.6-19.7s1.2-6.9,1.1-10.2-1.3-3.8-4.9-2.9c-12.6,3.3-24.7,10.5-34.5,19Z"/>
    <path class="st0" d="M588.8,692.2c1.1-.3,2.2,0,3.3.2,8.4,1.9,16.8,3.7,25.2,5.6,4.8,1.1,9.7,2.2,13.7,4.9s7.1,7.5,6.4,12.3c-.6,4.2-3.9,7.5-7.6,9.5-9,4.8-20.7,2.8-28.7-3.6-4.6-3.7-8.1-8.6-10.5-14s-6.3-13.8-1.9-14.9Z"/>
    <path class="st20" d="M264.5,1177.3c4.4-1.3,12-4.2,19.4-10.7,6.5-5.7,10.2-11.8,12.2-15.7-9.7-2.4-20.4-.9-29,4.2-1.2,2.3-2.8,6.1-3.4,11-.5,4.8.2,8.8.8,11.2Z"/>
  </g>
  <g id="_Слой_2" data-name="Слой_2">
    <path class="st1" d="M846.7,309.5c13.2,0,16-27,1.3-25.4-15.5,1.7-13.4,25.4-1.3,25.4Z"/>
    <path class="st1" d="M626.3,748.4c-43.4-72-77.5,50.8-40.1,78.1,46.6,26.8,56.3-47.9,40.1-78.1Z"/>
    <path class="st1" d="M931.2,779.6c24.9-13.8,32-47.9,25.7-74.4-6.3-26.2-27.3-49.6-56.2-40-11.5,3.9-19.6,13.5-24.4,24.3-9.1,20.4-9.3,45.9-1.7,66.8s24.2,33.9,46.8,27.4c3.6-1,6.9-2.4,9.9-4.1Z"/>
    <path class="st1" d="M822,849c7-8.4,10-17.5,11.4-23.5-33,20.3-82.4,44.8-113.5,8.7l-22.6,1.5c5.5,6.9-3.2,15.2-8.8,19.5-11.9,9.1-28.7,11.6-41.6,3.1,2.6,19,41,33.4,50.9,32.7-8.8-15.1,20-31.5,23.6-31.7,9-.5,10.3,4.9,36.2,12.2,10.1,2.8,17.5,3.9,25.8,10.3,4.8,3.7,8,7.6,10,10.4,1.4-13.5,6.1-21.2,10.2-25.6,6.7-7.4,11.6-9.5,18.4-17.6Z"/>
    <path class="st1" d="M713,815.8c10.1-.9,17.7-7.7,20.6-10.2,8-7.1,11.5-15.4,12.9-19.6-7.5-2.1-19.9-5.4-34.9-3.1-11.6,1.7-23,5.6-33.9,9.7,8.1,15.1,22,24.5,35.3,23.2Z"/>
    <path class="st1" d="M1779.9,1292.8c-3.7-29.9-10.3-59.7-18.6-88.7-6.7-25.6-13.4-51.2-20.1-76.8-2.5-9.5-5-19-7.5-28.5-2.8-10.7-3.7-22.8-9.8-32.2-6.2-9.5-15.6-16.6-24-24-13.8-12.3-28.1-24.1-41.6-36.6-46.4-43-91.6-87.6-140.1-128.6-17.4-47.9-27.8-98.5-43-147.1-15.3-48.9-31.9-97.5-50.4-145.3-37-95.6-81.9-188.6-139-273.9-13.1-19.6-26.8-38.7-41.2-57.4-43.3-56.1-92.9-107.4-149.3-150.4-22.3-17-45.6-32.9-69.7-47.3-20.7-12.4-48.1-32.6-73.1-33-44.3-.8-87.2,75.2-108.2,106.6-18.9,28.3-35.7,58.1-50.2,88.9-10.2,21.6-17.2,44.5-25.6,66.8-2.5,6.5-5.1,13.1-8,19.4-2.1,4.8-4.1,9.8-7.3,14-2.6,3.4-7.8,3.5-11.4,1.3-7-4.3-12.8-19-17-25.9-13.9-22.8-27.5-60.8-52.5-73.8-31.4-16.3-61.6,13.9-86.1,30.7-56.4,41.2-123.6,93.4-158.5,154.9-8.9,16.4-15.5,34-21.3,51.7-9.7,60.7,2.6,122.8,17.4,181.5.2.8,0,3.4,0,3.4-9.7,6.9-19.8,13.9-30.5,20.8-23.9,15.5-47.1,28.8-69.2,40.2,13.4,16.3,26.7,32.6,40.1,48.9-5.7-1.1-11.5-2.2-17.4-3.3-7.7-1.6-15.3-3.2-22.7-4.9,10.6,41.6,22.6,76.1,33.1,102,13.8,34.1,32.4,66.7,52.8,97.3,20.9,31.3,38.9,66,63.7,94.9,60.7,70.8,149.5,71.8,235.2,74.8,47.9,1.7,96,2.1,143.8-2.6,23.9-2.3,48.1-4.8,71.3-11.3,5.1-1.4,39.4-10.7,39.8-16-.6,9-6,16.5-9.1,24.7-1.8,4.6-9.9,44.6-13.9,45.5-30.5,6.6-62,4.8-92.9,4.6-31.7-.2-63.4-.5-95-2-36.6-1.8-76.3-1.5-111.5-11.5-33.6-9.5-66.7-21.9-96.2-40.7-.5,7.3-1.4,15.1-2.8,23.4-3.2,18.9-8.3,35.2-13.7,48.5-1.4-3.8-3.8-10.2-5.2-14-12.9-34.8-14.9-38.7-17.8-44.8-4.2-9-12.2-27.4-24.3-27.5-10.8,0-24.4,7.3-35.2,9.1-9.9-5.8-38.3-29.6-48-30.7-12.8-1.4-22,4.3-32.9,7.2-20.9,5.5-16.7-1.6-32.6-3.8-22.7-3.2-35.9,15.3-50.6,30-5.8,5.8-14.4,17.6-20.5,21.1-.7.4-.9,2.8-3.1,2.1-.2-1.3.2-2.9,0-4.1-2.9,1.6-6.3,3.2-10.2,4.7-5.9,2.1-11.2,3.1-15.4,3.6-5.4,12.2-12,30.8-14.6,54.2-.3,2.4-.5,4.8-.7,7.2-.2,3.4-.4,6.7-.4,10,0,.5,0,1,0,1.5,0,.7,0,1.4,0,2.1s0,1,0,1.6,0,.9,0,1.3c0,.9,0,1.8,0,2.7,0,.5,0,.9,0,1.4,0,1.1,0,2.2.2,3.4,0,.4,0,.8,0,1.2,1.6,24.8,7.9,43.5,11.1,52.9,1.2,3.3,2.4,6.6,3.7,9.8,41,101.1,154.5,134.4,188.5,141.6.3,0,.7,0,1,0,8.5,1.6,16.9,3.3,25.5,4.3,5,.6,8.9.9,13.4,1.1,5,.2,9.2,0,12.5,0,.5,3,1.2,6.4,2.4,10.1,1.7,5.1,3.8,9.3,5.7,12.6h-.5s-217.9,37.9-217.9,37.9h0s5.6,112.4,15.9,321.3c336.1,42.4,976.7,127.2,976.7,127.2l149.5-194.8c-6.1-14.8-12.1-30.6-17.9-47.4-5.3-15.6-10-30.7-14-45.1-9.9,5.8-20.9,11.8-33,17.5-12.3,5.8-24,10.7-34.9,14.7-2.1-7.9-4.3-15.7-6.4-23.6,18.8-6.5,26.7-9.2,27.1-9.3,0,0,.3,0,.6-.2.3,0,.6-.2.9-.3.5-.2.9-.3,1.4-.5.5-.2.9-.3,1.3-.5,7.6-2.9,14.9-7,21.8-11.2.6-.4,1.2-.7,1.8-1.1.4-.3.8-.5,1.3-.8,44.5-27.5,47.6-52.1,69.2-95.2,9.3-18.5,22.9-32.7,25.8-54.3,1.6-11.7.3-26.2,2.3-37.7,2.1-11.8,9.8-22.6,12.1-34.7.2-.9.3-1.7.5-2.6,0-.6.2-1.1.3-1.7.2-1.4.4-2.8.6-4.2,0-.2,0-.4,0-.5.7-5.7,1.1-11.4,1.2-17.2,0-2.1,0-4.1,0-6.1,0-1,0-2,0-2.9,0-1,0-1.9-.1-2.9-.3-5.9-.8-11.7-1.5-17.5-.1-1.1-.3-2.3-.4-3.4,0,0,0,0,0,0-2.2-17-5.7-34.9-11.8-50.8,0,0,0,0,0,0,0-.3-.2-.5-.3-.7,0,0,0,0,0,0,.5-.3,1.3-.8,2.4-1.6,11.8-7.4,56-34.6,56-34.6,2.3,3.5,4.7,7.1,7,10.6,2.2,3.4,10.1,11.7,8.2,16-.6,1.3-1.7,2.3-2.8,3.3-8.5,7.3-17.1,14.1-26.7,19.9-4.9,3-9.9,5.8-14.9,8.7-2.5,1.5-5,2.9-7.4,4.4-1.3.8-5.5,2.5-6.1,3.8,0,.1-.1.3-.2.4.8,2.6,1.5,5.2,2.2,7.9.5.9,1,1.6,1.1,2,16.2-3.5,33.4-12.3,47.3-21.6,6.4-4.3,12.1-9.8,18.1-14.6,1.4,3.1,4.4,5.8,6,9.2,1.7,3.8,2.3,7.6,1.5,11.8-1.5,7.9-9.5,12.6-15.9,16.6-16.8,10.6-33.7,21.8-51.7,30.4h0c.4,3.5.7,6.9.9,10.3,15.4-5,30.5-11,44.3-19.6,6.2-3.9,12.4-8.6,18.2-13.4,4.4-3.7,11.3-13.7,17-7.8,9.6,9.8-6.2,21.9-12.7,27.5-19.2,16.5-42.3,30.3-66.8,37,0,0,0,.2,0,.3,0,.3,0,.6,0,1-.3,7.6-2.3,31.2-2.3,31.2,0,0,0,0,.2,0,2.7-1.2,31.9-14.2,46.3-22.1,6.2-3.4,12.6-6.7,18.3-10.9,6.6-4.9,13-9.9,19.2-15.1,5.3-4.4,10.6-9,15.1-14.3,14.8-17.3,16.6-37.8,6-57.9-7.5-14.2-18.8-25.7-27.1-39.4-2.9-4.8-7.5-11.2-8.6-16.8-1.2-5.9,2-10.7,4.2-16.3,4.6-11.7,9.7-22.7,20.7-29.7,2.3-1.5,23.3,11.3,28.2,13.9,8,4.4,16.1,8.8,24.1,13.2,23.3,12.7,46.7,25.5,70,38.2,28.4,15.5,57.1,30.6,84.6,47.6,5.2-12.5,4.4-22.1,2.8-35.1ZM362,1105.4c3.4-4.7,11.3-13,29.6-18.4-.2,10.6,2.6,17.4,5.2,21.5,5,8,11.5,10.3,11.7,17,.2,4.5-2.3,11.7-6.4,11.2-2.4-.3-18.2-13-23.4-14.8-7.3-2.6-16-2.8-23.6-2.6,0,0-.3,0-.4-.1-1.4-1.2,5.4-11.2,7.3-13.8ZM411.6,1273.5c15.8-2.7,35.5-7.9,47.2-18.5,2.3,15-7.5,32.9-23.9,31.6-6.4-.5-22.7-5.3-23.4-13.1ZM335.2,1140c10.7-5.4,23-8.5,34.6-4.3,5.2,1.9,9.9,5,14,8.6,3.1,2.7,11.9,9.7,11.9,14.1,0,.7-.3,1.4-.5,2.1-1.8,4.9-3.6,9.7-4.9,14.7-1.4,5.1-2.3,11.4-4.7,16.1-1.2,3.8-2.4,7.6-3.6,11.4-.9,3-1.4,9.1-3.3,11.5-1.6,2-35.5,18.6-38.7,18.9-6.1.7-10.8-3.7-14.8-7.7-10-9.9-12.7-25.2-12.1-38.7.3-6.8,1.8-13.4,3.5-20,1.3-5.3,2-13.2,5.1-17.8,1.1-1.7,11.1-8,13.4-9.2ZM284.1,1272.4l40.4,15.6c6.9,2.4,16,4.8,26.8,5.7,15.3,1.4,28.1-.6,36.9-2.8,3.5,3.6,9.7,8.9,18.7,12.6,13.2,5.4,25,4.4,30.4,3.5-2.8,1.9-14.2,9.3-29.5,7.2-11.3-1.5-18.9-7.4-21.9-10-5.1,2.1-37.4,15-69.8-1.6-17.9-9.2-27.7-23.1-31.9-30.2ZM288.3,1256l18.5-20.5,6.2,22.6-24.7-2.1ZM331.4,1264.2l45.2-24.6,2.1,29.8-33.4,4.2c-4.6-3.1-7.9-8.4-13.8-9.3ZM283.1,1120.4c3.7-4.4,8.4-9.4,14.3-14.3,9.5-7.9,18.9-12.8,26.2-15.9-2.3,3.7-2.3,8.4.2,11.7,3,4.2,8.1,4.2,8.6,4.2l-10.2,16.8c-15.2-.6-28.3-2.1-43.1,2.6-.2-2.4,2.4-4.1,4.1-5.1ZM262.4,1149.4c7.4-10.8,34.9-7.2,46.3-5.3-2.6,8-5.4,15.5-7.4,23.7-3.8,15.1-8.7,55.3-24,62.3-21.1,9.7-20.9-9.8-22-26-.9-13.8-.9-43.1,7-54.7ZM356.1,1353c-6.2-4.7-11.3-10.2-11.3-10.2-3.9-4-7.1-7.8-9.7-11.1,10.5,2.8,19.3,4.5,25.6,5.6,8.3,1.4,15.5,2.3,23.6,3.1,8.5.8,14.9-2.2,22.7,2.5,11.3,6.6,15.8,12.6,26.8,23,7,6.6,18.3,14.9,36.3,20.7-38-.5-83.4-10.1-114-33.4ZM471.6,1223.6c-2.6,5-6.5,8.8-11,11.8-3.5,2.3-7.5,4.2-11.4,5.7-9.2,3.6-19.3,7.7-29,9.3-5.1.9-12.6,1.4-16.2-3.1-1.9-2.3-2.1-5.5-2.2-8.4-.5-12-1.2-23.9-.5-35.9.4-7.4,6.4-42.7,10.8-46.7,6.3-5.8,16.8-5.2,24.7-4.1,7.1,1,15.1,2.2,21.1,6.4,10.3,7.2,14,24.8,17.6,36.1,3.1,9.7.7,20.1-3.9,28.9ZM483.5,1178.9c-.7-2-13.7-39.7-40.1-42.1-3.1-.3-6.8-.1-11,1,3-4.4,7.5-10,14-15.2,12.8-10.1,26.1-13.1,33.1-14.1-1.1,4.9-2,11.6-1.2,19.3,1.3,13.2,6.4,18.7,7.3,31.5.4,5,.2,11.6-2.1,19.5ZM834.4,209c9.3-19.3,17.3-33,25.2-46.6,12-20.5,24.9-40.5,38.4-60.1,6.7-9.8,13.6-19.5,20.6-29.2,7-9.8,13.8-20.3,24.1-27.1,10.4-6.9,21.5.8,30.5,6.3,12,7.3,24.1,14.5,36,22.1,35.5,22.8,67.8,50.7,100.1,77.6,0,2.8-22.4,15.6-25.7,18-14.2,10.3-29,21.4-42.9,32.8-13.6,11.2-25.9,25.3-41.5,33.9-14,7.7-30.1,9.1-45.7,11.2-39.7,5.4-95.8,8.3-134-5,3.5-8.7,8.4-20.4,14.9-33.9ZM811.3,259.3c2-1.5,17.2,4.4,20.5,5.1,43.8,9.3,94,6,137.7-2.6l-62.4,58.9c-3.2,3-24.6-1.1-29.6-1.5-11.4-.9-22.8-2-34.2-2.5-4.6-.2-53.9,1.7-53.7.6l21.6-58ZM412,887.4c-9.1-17.6-17.3-35.7-24.4-54.1-1.8-4.7-18.1-56.1-18.2-56.1-7.7.9,14.2-1.6,43.2-7.2,7.5-1.5,13.6-3,17.5-4.1-7.5-2.6-17.6-7-28-14.7-14.8-10.9-23.6-23.4-28.4-31.4,21.1-12.2,47.6-30.4,74.2-56.7,32.8-32.5,53.6-65.4,66.4-89.8l-67.8,38.5c-6.7-29.5-13.8-59-15.4-89.4-.8-37.2,1.5-64.6,21.7-96.9,4.7-8.3,10.5-14.5,16.8-21.7,9.8-11.6,19.3-25.1,28.9-35.9,35-36.6,92.3-86.8,141.4-114.3,8.4-4.7,16.2-6.4,23.5,1.5,4.2,4.6,7.9,9.7,11.1,14.9,5.6,9.1,10.2,18.8,15.2,28.2,2.4,4.6,4.9,9.1,7.3,13.7,2.3,4.3,5.6,9.2,6.9,13.9-3.1.7-6.4.8-9.6,1.4-3.7.8-7.4,1.6-11.2,2.4-8,1.7-16,3.7-23.9,5.8-83.8,22.3-106.7,73.7-106.7,73.7-19.8,38.1-12.1,77.9-7.7,94.9-1.2-7-2.7-21.9,4.4-38.1,1.9-4.4,11.3-25.8,33.7-33.4,15.6-5.3,30.6-1.5,30.6-.7,0,.4-4.8.1-10.1,3.3-3,1.8-5,4.1-6.5,6.1,7.9-2.7,19-5.5,32.4-6.2,13.9-.7,25.5,1,33.8,2.9-11.9,3.9-27.5,10.2-44.1,21.1-15.4,10-26.9,20.8-34.9,29.6,30.9-14.8,63-28.7,95.6-40.1,11.8-4.1,22.8-7.9,34.9-10.3,1.9-.4,3.9-.5,5.6-1.5-18.4-7.9-32.4-16-41.9-22.2-15.5-10-17-11.7-25.4-18.2-4.4-3.4-8.8-6.9-13-10.5-4.7-4.1-2.2-3.9,2.1-2.6,17.4,5.3,35.8,7.4,52.7,14.2,13.7,5.4,39.8,12.2,94.8,17.2-5.6-4.6-14.3-11-25.9-16.7-13.1-6.4-22.4-8.2-22.2-9.6.4-2.2,23.7-1.1,45.3,3.3,19.1,3.9,45.9,12.1,76.2,31.2,23.1-30.2,43.8-52.9,58-67.7,70.4-73.5,132.6-117.4,165.5-142.9,9.1-7.1,17.4-15.3,27-21.8,16.9-11.5,16-14.7,30.5,1.8,30.2,34.3,53.9,103.3,65.3,147.4,4.9,18.8,8.2,35.7,10.5,52.2,1.1,7.8,5.6,40.2,4.4,87-.8,30.4-4,71.4-14.4,119.7.8-11,1.5-22.1,2-33.4,2.6-53.8,1.5-104.8-2-152.6-2,10.4-.8,21.4-2.5,31.9-7.2,44.8-46.4,88.8-83.8,111.9,8.3-58.1,11.1-119.2-1.3-176.9-3.3-15.2-11-31.6-13.9-45.8-.3-1.7-.4-3.5.8-4.9-2.7.6-9.2,3.2-11.3,4.6-18,12.9-43.9,45.8-55.9,64.8-22.4,35.5-38.4,77.6-48.9,118.1l45.7-45.2c.2,9.2.3,18.5.5,27.7,2.7,18.6,9.6,29.6,15.7,36.3,8.4,9.3,17.4,12.7,30.2,28.7,2.9,3.6,5.8,7.4,8.9,12.9,6.7,12.5,8.4,24.3,8.8,31.8-3,1.1-6,2.2-9.1,3.2,72.9,13.8,101,18.6,103.8,18.5.1,0,1.4-.2,3.1,0,2.1.3,4.1.7,6.2,1,15.9,2.3,32,3.8,47.8,6.2,1.5.2,3-.9,2.6,1.5-28.3,30.6-64.9,57.7-107.9,61.1,46.5,2.8,80.1,42.9,126.4,48.3,4.1,0,7.8.3,11.3,2.6-16.6,15.6-33.1,33.6-50.3,48.3-11.7,10-21.2,18.3-36.1,22.1-7.6,2-12.7,1.8-27.5,1.9-11.4,0-28.3.3-49.5,1.1,6.5-.4,26.1.6,47.2,12.9,13.6,7.9,24.2,20,29.4,37.5l-59.1,14.9-11.9,33.3-35.4,21.6c-.3.1-.7-.1-1,0-87,35.5-163.9,67.9-260,75-.7,0-21.6,0-21.6,0,0,0,11.7-2.4,17.5-4.1,17.8-5.2,37-8,55.1-14,18.6-6.2,36.8-13.9,54.3-22.9,48-25,93.6-61.2,112.1-114.1,14-40,24-88.3,10.3-129.5-11.7-35.2-37.1-64.7-66.8-86.2-25-18-54.1-31.3-84.5-36.7-45.7-8-93.1-7.3-139.2-4-47.3,3.4-94.1,9.7-140.2,21.6-50,13-106.2,28-140.2,69.7-13.8,16.9-23.6,36.9-27.6,58.3-9.1,48.8,10.1,107,29.3,152.1,21.3,49.9,54.1,70,101.2,93,0,0,45.3,17.8,48.1,19-6.1-2.3-15.8-1.4-22.3-2.1-8.5-.9-17-1.8-25.5-2.9-16.8-2.2-33.6-5.1-50-9.4-24.4-6.4-48.8-15.7-68.9-31.3-7.9-6.2-15-13.4-21.5-21.4-16.5-20.2-28.7-44.8-40.3-67.2ZM1314.8,1150.2c5.4,12.9,8,30.9,10.2,44.8,28.8,11.5,56.3,23.1,70.5,52.8-20.5-15.3-43.6-28.2-68.3-35.4-23-6.7-54.8-12.7-78.6-12.6-26.4.1-86.1,17.7-104.8,36.7-10.4,10.6-13.4,27.1-31.8,22.6-8.7-14.6-20.8-22.2-29.1-37.7-43.9-81.9,9.4-157.2,80.6-197.3,21.1,1.6,41.7,9,60.7,18.1,39.7,19,78.1,49,96.4,90.5,12.3,27.8,56.2,51.2,68.8,81.3.3.7,1.3,3,0,3-15.1-9.4-30.6-18.6-48.8-20.5,0-.4,0-.8,0-1.1,1.1-3.5,11.4-2.8,12-2.8-4.5-6.1-9.5-12.6-15.2-19.2-7.7-8.9-15.3-16.6-22.5-23.2ZM1106.2,1332c9.6-3.2,22-6.5,31.9-5.1,6.5.9,23.3,8.5,27.2,13.4,2.1,2.8,4.5,14.7,4.7,18.4.3,6.5,0,16.8-4.7,21.6-1.8.7-11.4-13.1-12.8-14.4-12.2-11-27.4-23-44.6-23.6-3.5-.1-7,.9-10.5,1.1-2.8.2-10.6-2.1-12.7-1.2,7.9-3.6,12.9-7.4,21.6-10.3ZM998,1300.1c-12.9-15.6-21.3-34.6-27.5-53.7-.9-2.7-5.5-22.6-5.5-22.6,0,0,14-1.9,20.6-1.8,9.8.1,19.6.2,29.4.4,3.4,0,6.8,0,10.1.1l-32.5,13.3c5.9-.3,11.8-.7,17.7-1.1,2-.1,24.1-2.6,24.7-1.2,7.3,17.5,18.9,33,33,45.6-2.7-1.9-16.3,11.4-18.2,13-3.4,2.9-6.8,5.9-10.3,8.6-4.8,3.6-10,6.7-15.9,8.2-10.2,2.5-19.1-.7-25.7-8.7ZM1343.5,1117.8c-9.5-32.3-30-49.5-49.3-74-21.2-26.9-23.3-62.4-41.7-90.4-4.2-6.4-9.4-12.2-15.9-16.4l18.5-6.7c5.2-9.3,10.5-18.7,15.7-28.1,5.8-10.6,11.6-21,17.2-31.5h-14.4c-6,11.7-17.6,45.2-28.2,51.4-6.8,4-22.1,6.8-30.3,8.7-20.4,4.6-41.4,6.8-61.7,11.8,8.7-10.6,29.6-30,42.6-34,16.4-5,38.9-4.2,56.1-5.1-2-12.2-3.7-24.9-6.2-37-.4-1.8-4.9-13.6-4.1-14.4l58.3,9.5c7.8,17.9,12.1,37.3,18,55.9,6.4,20.6,12.6,41.4,18.3,62.2,15.2,55.1,26.9,110.2,35.9,166.3l-28.8-28.3ZM669.5,1007.3c-107.8-33.7-146.2-49.4-179.5-164.2-43.6-150.3,68.6-182.1,189.6-203.3,66.4-11.6,198.5-25.2,259.8.5,106.3,44.6,134.3,137.8,83.3,239.8-16.5,33-48.6,56.8-79.8,74.9-61,35.2-128,50.1-197.9,56.5-25.1,2.3-53.2,3.2-76.4-8.3l1,4.1ZM759.9,1087.5c-32.7.8-65.8-1.5-98.4-2.8-52.9-2.2-107.5-16.3-153.3-43.4-12.9-7.7-18.6-12.6-28.8-23.6-7.5-8.2-14.4-19.3-22.6-27.2l1-.5c11.8,7.2,25,13.2,38,18.5,68.4,28,140,34.9,213.1,38.4,5.7.3,11.4.5,17,.6,80.3,2.1,166.8-16.5,244.6-38l96.6-38c1.9,1.7-13.9,12.5-15.4,13.8-12.6,11.5-28.6,34.1-39.6,42.7-7.9,6.2-28.5,12.4-38.5,16.4-70.2,28-137.7,41.2-213.7,43.2ZM963.8,1164.5c3.5-26.8,12.9-52.8,26.1-76.6,13.4-24.4,31-47,53.2-63.9,31-23.6,74.2-42,112.4-25.9,1.3.6,2.6,1.3,2.1,3.1-23.1,15.8-46.1,32.4-65.4,52.8-28.9,30.6-44.3,62.8-52.5,103.2-4,19.6-1.6,38.9-3.4,58.8-24.3-3.2-46.3,1.7-70.2,4.1-2.7-1-2.8-14.1-3-16.4-1.3-13.2-1-26.3.7-39.2ZM993.8,1437.3c-2.1,1.7-4.2,3.5-6.3,5.2.3-.5.5-1,.8-1.5,8.6-16.8,17.5-33.4,26.8-49.8,2.3-4.1,4.7-8.2,7.1-12.2,2-3.3,2.9-6.7,4.6-10.2,4.1-8.5,8-17,11.8-25.6.4-.9.8-1.7,1.1-2.6-6.6,25.8-14.9,51.3-23.7,76.4-.6,1.8-4.3,4.3-5.7,5.6-1.9,1.9-3.8,3.7-5.7,5.6-2.1,2-4.3,3.9-6.6,5.7-1.4,1.1-2.8,2.3-4.2,3.4ZM1084.6,1571.4c-.4.3-.7.7-1,1-12.2-.2-25.9,1.1-36-6.2-11-8-43.3-57.2-43.2-70.3,0-8,5.1-16.2,5.1-24.2.2-.4.9-.7,1-1-1,2.2,4.3,12.6,5.4,14.9,5.2,10.4,16.2,19.1,24.8,26.6,12.5,11,27.9,22.2,45.3,22.2h17c5.7,18.5-6.7,26.4-18.5,37ZM1112.3,1507.2c-7.3,17.2-50.4-8.4-58.7-14.6-7.6-5.6-16-14.2-17.2-24.1-2.4-20.4,4.4-42.1,10.8-61.3,4.2-12.5,7.5-29.4,15.3-40.2,3.4-4.6,15.3-6.3,21-7.3,23.2-3.9,41.8,1.3,55.5,21.6,9.1,13.5,13.7,37.9,8.7,53.4-7.5,23.4-25.7,49.4-35.5,72.4ZM1229.5,1576.1c-20.7,17.8-75.6-.7-87.6-24.5-8.1-16.2-1.8-26.4,3.3-41.8,7.6-22.8,18-44.8,28.1-66.5,13.1-4.6,30-8.8,43.9-6.5,23.7,3.9,60.2,34.9,59.5,60.3,0,3.4-12.9,25.9-15.5,30.5-4.5,7.8-27,44.6-31.6,48.5ZM1238.7,1385.1c7.1.4,14.3,3.3,21.3,7.2,10,5.5,24.1,13.6,29.3,24.3,8.8,18.3,5.7,46.6-3.3,64.4,2.1-4.1-8.3-22.7-10.3-26.8-7.7-15.6-23.1-25.4-38.9-31.2-5.9-2.1-44.6-13.8-46.3-3.7,2.5-14.6,16.1-26.7,30.2-30-.7.9-1.4,1.7-2,2.6,6.5-5.4,13.3-7.3,20.1-6.9ZM1368,1580c-10.4,15.8-23.4,25.2-42.7,22.3-9.9-1.5-20.7-3.7-29.9-8.6-2.9-1.5-20.4-15-22.8-12-3,3.8,13.7,16.5,16.9,18.5,9.1,5.9,20.9,10.4,31.4,13.3.9,2.8-.4,1.4-1.2,1.8-20.7,9.4-47.8,2.3-59.8-17.3-9-14.7,8.8-29.6,16-42.4,4.2-7.4,16.4-36.3,21.1-39.8,10.9-7.9,43.5.7,55.7,5.7,14.6,6,15.7,12.1,22.6,25.1v1c5.9,11.3-1.1,22.6-7.4,32.2ZM1385.6,1530.3c-15.1-30.4-46.1-34.7-77.1-34.9,4.7-11.4,12.7-17.4,22.6-23.6,9.6-6.1,13.6-10.2,25.7-8.2,28.3,4.6,32.1,43.8,28.8,66.8ZM1412.4,1502.6c-.7.5-.9,2.3-1.5,2.1-4.6-10-4.2-22.2-9.4-32.8-9-18.4-31.7-27.8-50.3-33.1-12.4,4.3-22.8,14.4-36.4,14.5l-3.3-41.6c-4.3-8-2.1-10.9-10.2-17.4-16.4-13.2-43.9-23.5-62.3-34.4l-43.3,19.3c-4.4-9.4-5-19.8-7.3-29.7-1.1-4.9-3.9-22-6.8-24.5-24.5-9.4-46.6-26.3-73.4-13.5l-1-2.5c2-1.9,4.1-3.7,6.2-5.7,6.7-6.4,11.6-8.9,19.5-13.4,3.2-1.8,5.9-3.6,9.2-5.1.3-.1.7.1,1,0,.4-.9,1.1-1.8,2.1-2.1.3,0,.7,0,1,0,16.9-7.7,42.2-8.9,60.6-7.2,45.8,4.2,90.8,26,128.4,51.4,36.2,24.4,76.3,67.9,86,111.8,4.7,21.1-3.1,43.8-8.9,63.9ZM1443.1,1389.1c0,5.1.7,21.5-6.6,17.9l-9.8-27.7c-29-53.5-83.3-93-139.8-114.1-29.5-11-57-15.8-88.4-17.5-1.4,0-13.3,1-11.8-2.1l26.2-12.3-15.4-3.6c14.3-6.5,30.5-8.4,46.1-8.7,43.9-.9,87.2,13.8,124.8,35.9,11,6.5,21.6,13.7,31.1,22.3,4.3,3.9,8.3,8,11.9,12.5,2.8,3.6,4.8,9.5,8,12.6,20.8,20,23.9,57.3,23.6,84.8ZM1538.7,1191.7c-24.6,33-60.4,57.4-94.5,79.7-4.6-16-8.3-32.7-15.2-48-6.3-13.8-22.2-31.1-26.4-42.5-7.2-19.6-11.3-59.4-16.4-82.2-8.9-39-16.7-78.3-27.9-116.5-11.7-39.9-23.1-79.8-33.8-120-.8-3.2-7.1-23.5-9.7-23.8l-68.9-6.9c2.6-.5,4.3-4.4,5.1-5.1,28.9-26.1,55.1-54.8,81.1-83.9l-77.9-46.3,57.4-84-68.8-7.7,12.3-129.5c.9-67.4-8.8-136.5-31.8-199.9,64.9,78.7,112.2,170.1,150.8,264,39.5,96,75.5,195.2,100.4,296,26.5,107.3,43.5,214.8,58,324.2,0,.6.9,1.5,1,2.1.5,3.5,1.5,6.8,2.1,10.3,1,6.6,3.7,13.1,3,20ZM1731.2,1267.5c-44.3-29.9-101.7-59.9-150-83.3-4.7-2.3-9.8-3.5-14.5-5.6-9.6-75.1-19.2-150.6-33.5-224.9-.4-2.2-6.1-20.3-4.3-20.4,4.9,3.1,9.3,6.7,13.9,10.3,1.4,1.1,3.2,3.6,5.1,5.1,26.9,20.8,53.5,42.6,79.3,64.8,15.1,12.9,67.9,55.5,74,70.2,1.2,3,2.1,7.1,3,10.3,3.6,12.8,7,25.4,10,38.4,11.1,49,22.9,97.9,31.5,147.2-4.2-5-9.2-8.5-14.6-12.1Z"/>
    <path class="st1" d="M1238,1168.8c2.3.5,4.7.7,7.2.5,8.3-.7,19.6-6.7,24-14,2.7-4.4,2.6-11.8,3-16.9.6-7.8-.2-15-.6-22.7-.5-8.9.9-18.4-3.8-26.1-5.5-9.1-12-16.9-21.2-22.6-4.4-2.7-10.2-5.9-15.1-3.4-5.2,2.7-10.5,5.7-15.7,8.5-11.2,6.1-22.1,12.9-32.4,20.4-7.6,5.5-15,11.4-22.1,17.6-3.5,3.1-7,6.3-10.4,9.6-2.7,2.6-6.9,5.3-6.9,9.4,0,4.1,3.9,6.5,7.6,7.2,5.5,1,11.4,1.6,16.8,2.8,6,1.4,12,4.5,17.7,6.9,11.9,5,23.7,10.4,35.2,16.2,5.3,2.7,10.8,5.5,16.6,6.6ZM1252.1,1119.9c-1,6.2-16.4,11.8-22.8,11.5-16.1-.8-38-11.9-54.3-15.2,9-6.5,38.6-27.4,60.4-37.8,1.7-.8,6.3-4.1,9-1.3,3.2,3.3,8.6,37.4,7.8,42.7Z"/>
    <g>
      <path class="st1" d="M1447.2,902.9c1-.7,1.6-1.8,2.2-3.1,2.6-5.6,2.7-11.4-1.3-16.4-1-1.2-4.7-1.4-6.1-1.2s-3.2.9-4.3,2.1c-2.5,2.4-3.3,6.2-3,9.5.2,3,1.3,6.2,3.7,8.2,1.7,1.4,4.1,2.1,6.3,1.9s2-.4,2.7-.9Z"/>
      <path class="st1" d="M1495.3,1156.6c-13.8-10.2-20.6,23.1-7.2,25.3,12.8,2.1,12.6-21.2,7.2-25.3Z"/>
    </g>
    <path class="st1" d="M1355,981.2c20.1-8,47.6-21.3,76.1-43.9,27.5-21.7,46.5-44.5,58.8-61.8,1.1,5.9,2.2,11.8,3.3,17.8-12.9,16.8-31.2,37.4-56.4,57.3-29.3,23.2-57.6,37.5-79,46.3-.9-5.2-1.9-10.4-2.8-15.7Z"/>
    <path class="st1" d="M546.3,1121.8c-.1-1.1-1-6.7-1.1-14.3,0-1.5,0-2.8,0-3.6-1-2.4-1.9-5.1-2.7-8.1-1.4-5.3-2.2-10.1-2.5-14.3-3-1.3-6-2.5-8.9-3.8-.4-.2-.5.2-.3,1.1-.3-.3-.7-.6-1.1-.9-2.6-2-6.1-3.5-6.1-3.5-2-.9-9.5-4.1-20.1-8.3,5.9,10.9,15.3,32.1,14.8,59.5-.2,12.8-2.6,23.7-5.1,32,4,4,8,8,11.9,11.9-1.2,2.5-2.5,5.3-3.9,8.4.3.2,2.1,1.1,4.3.5,2.1-.6,3.1-2.3,3.2-2.7,4.4-8.1,8.7-16.2,13.1-24.3,4.6-17,5-25.3,4.4-29.7Z"/>
    <path class="st17" d="M489.7,1467.1c-60.6,10.9-127.8,20.4-188.5,31.3-3.3.6-7.5,3-8.9,6.2-2.8,6.5,8,8.3,12.1,8.6,7.3.4,14.5.7,21.8,1.3,9.7.7,19.4,1.4,29.1,2,19.4,1.4,38.8,2.8,58.2,4.2,19.4,1.4,38.8,2.8,58.2,4.3,19.4,1.4,38.8,2.9,58.2,4.3s38.8,2.9,58.2,4.3c19.4,1.4,38.8,2.9,58.2,4.3s38.8,2.9,58.2,4.3c19.4,1.4,38.8,2.8,58.2,4.2,9.6.7,19.2,1.4,28.8,2,9.5.7,19.1.8,28.5,2-126.6-15.1-253.3-31.3-379.9-46.5-10.7-1.3-12.6-13.6-3.3-18.4,15.2-7.9,37.1-13,52.5-18.3Z"/>
    <g>
      <g>
        <path class="st15" d="M614.5,1355.7c-2.4-2.8-6-62.6-3.2-64.7l95.6,6.1s8,126.7,4.6,144.4c-4.2,21.7-22.9,35.8-39.5,36.4-17.4.7-97.1-6.5-112.3-14.9-15.2-8.5-29.1-28.7-35.8-51.7-7.4-25.3-11.2-148.8-11.1-177.2.2-37,11.5-57,36.5-59,39.4-3.2,148.7,6.8,148.7,6.8,0,0,3.1,66.9,4,79.4-46-2.6-91.1-5.1-135.4-7.6l15.2,23.7,5.7,106.5,42.9,3.8c10.2.9,12.5-14.5,8.8-29.9l-24.5-2Z"/>
        <path class="st15" d="M844.5,1376.8c-2.6-2.9-7.1-65.6-4-67.8l104.8,6.7s9.8,132.9,6.2,151.5c-4.5,22.8-24.9,37.4-43.1,38-19,.6-106.5-7.3-123.2-16.2-16.7-9-32.1-30.2-39.6-54.4-8.3-26.5-13.4-155.8-13.5-185.5,0-38.8,12.1-59.6,39.5-61.6,43.1-3.2,161.8,7.6,161.8,7.6,0,0,5.2,69.9,6.2,83.1-50.5-2.9-99.9-5.6-148.4-8.4l16.8,24.9,7.1,111.6,47.1,4.1c11.2,1,13.6-15.2,9.4-31.3l-26.9-2.2Z"/>
      </g>
      <g class="st18">
        <g>
          <path class="st9" d="M699.3,1439.2c-3.1,15.8-16.9,26-27.9,26.5-17.8.7-94.3-6.9-105.8-13.4-12.2-6.8-24.4-24.8-30.2-44.6-6.6-22.5-10.8-141.2-10.7-173.8.2-44.9,17.7-46.3,25.2-46.9,5.2-.4,11.6-.6,18.9-.6,36.4,0,94,4.5,117.3,6.5.7,14.1,1.9,39.2,2.7,55.6l-145.4-8.2,26.2,41,6,113.8,53.4,4.7c6.7.6,12.7-1.9,17.1-6.9,10.2-11.7,6.2-32.1,4.7-38.1l-2.1-8.4-24-1.9c-1.1-10.4-2.3-28.9-2.4-40.5l72.9,4.6c2.9,48.7,6.2,119.8,4.1,130.8Z"/>
          <path class="st7" d="M939.5,1464.8c-3.4,17.1-18.7,27.7-31.5,28.1-20.1.6-103.7-7.7-117-14.8-13.9-7.4-27.1-26-33.8-47.3-7.4-23.6-12.9-147.8-13-182-.1-47.5,19.7-49,28.2-49.6,5.3-.4,11.9-.6,19.3-.6,40.3,0,105.3,5.2,130.3,7.3,1.1,14.7,3.1,41.9,4.4,59.2l-158.9-9,28.5,42.3,7.4,118.7,57.5,5c7.1.6,13.4-2,17.9-7.3,7-8.3,8.6-22.9,4.3-39.2l-2.2-8.3-26.4-2.1c-1.4-11-2.8-31.3-3-43.6l82.4,5.3c3.6,51.1,7.8,126.2,5.5,137.7Z"/>
        </g>
      </g>
    </g>
    <g>
      <g>
        <path class="st13" d="M767,1764.1l-64.4-7.4-.5,72.6-79.5-10.3c-2.6-7.4-2.1-13.8-2.6-20.4-4-54.5-8.5-131.4-6.3-182.1.8-18.1,6.5-33.3,19.2-41.3,18.9-12.1,118.2-2.4,150.9,2.7,35.7,5.6,58.7,26.2,70.8,67.3l4.2,204.4c-29.4-3.8-58.7-7.6-88.2-11.4-1.2-24.7-2.4-49.4-3.6-74.1ZM764.8,1646.8l-82.5-7.7c4.8,4.3,9.5,8.7,14.3,13,.8,11.6,1.6,23.3,2.3,34.9,21.8,2.2,43.7,4.4,65.9,6.6v-46.9Z"/>
        <path class="st13" d="M1229.1,1612.3c-35.8,23.7-71.7,47.4-107.5,71.1-24.4-2.1-48.7-4.3-73.1-6.4,9.5,6.9,19,13.8,28.6,20.7.7,60.3,1.4,120.4,2.2,180.5l-96-12.4c-2.6-65.4-5.1-130.8-7.7-196.4-28.7-2.9-57.4-5.8-86.1-8.8-.8-11.5-1.4-23.8-1.6-36.6-.2-13.1.1-25.6.7-37.4,114,8.6,227.5,17.3,340.6,25.8Z"/>
        <path class="st13" d="M501.1,1709.7c0,1.1.1,2,.1,2.6.1,4.6.6,8.9-.9,13-1.4,4-7.5,5.4-11.2,4.9l-48.2-5.5-3.9-89.3-16.6-20.8c21.6,2,54.5,4.9,84.9,7.5v21.4l75.5,6.6-.6-89.7s-58.5-6-107.3-9.7c-59.8-4.8-119.6-9.6-179.6-14.4,22.3,19.2,44.6,38.5,66.8,57.6,0,.4,0,.8,0,1.2-.7,23.9,1.2,127.3,9,148.7,7.1,19.4,22.2,36.9,39,44.8,16.8,7.8,105.9,18.3,125.4,18.7,18.6.4,40.1-10.1,45.5-27.8,2.9-9.4,2.1-40.9,1.2-61.7-26.3-2.7-52.7-5.5-79-8.2Z"/>
      </g>
      <g class="st6">
        <g>
          <path class="st16" d="M843.7,1646.7c-10.7-35-29.7-52.9-61.4-57.9-17.4-2.7-50.3-6.2-79.4-7.7-52.9-2.6-63,2.8-64,3.5-10.9,6.9-13.7,21.6-14.2,32.7-2.2,49.6,2.2,125.8,6.2,180.8.1,1.7.2,3.4.3,5,0,2.1.2,4.1.4,6.1l59.8,7.7.5-72.5,85.7,9.9,3.6,74.3,66.6,8.6-4-190.4ZM775.8,1705.9l-87.1-8.8-2.7-39.9-35.5-32.2,125.2,11.7v69.1Z"/>
          <path class="st12" d="M1118.7,1672.1l-108.8-9.6,56.5,40.8,2,162.5-74.7-9.7-7.7-196.7-86.3-8.8c-.5-8.8-.8-17.7-.9-26.6-.1-8.5,0-17,.2-25.6l297.2,22.5-77.5,51.2Z"/>
          <path class="st11" d="M568.4,1776.1c-4,12.9-21.3,20.6-35.1,20.3-22.1-.5-107.1-11.3-120.9-17.7-14-6.5-27-21.6-33.1-38.3-6.7-18.3-9-118-8.2-144.5l.3-6.7-45.3-39.1,146.3,11.7c35.5,2.7,95.9,8.5,95.9,8.5v66.6l-50.5-3.3.4-21.5-122.5-11.1,30.4,38.1,4.2,95.4,9.6,1.1c36.1,4.2,45.5,5.2,48.2,5.5h0c8.7,1,19.3-2.7,22.5-11.9,2-5.4,1.8-10.5,1.6-15,0-.7,0-1.4,0-2,0-1.8-.3-5.2-.5-8.7l57,5.4c1.4,26.1,2,59.4-.3,67.1Z"/>
        </g>
      </g>
    </g>
    <path class="st17" d="M1253.7,1658.5c-1.4,73.8-2.8,147.7-4.3,221.5-.2,8.4,10.6,12.1,15.6,5.3,34.8-47.1,69.7-94.3,104.5-141.4-20.4,19.5-37.5,41-67.4,55-13.6,6.4-27.4,2.2-31.2-12.3-10.2-39.1-13.6-83.7-17.3-128.1Z"/>
  </g>
  <metadata>
    <sfw xmlns="http://ns.adobe.com/SaveForWeb/1.0/">
      <slices/>
      <sliceSourceBounds x="197.42" y="-2000" width="1605.16" height="2000" bottomLeftOrigin="true"/>
    </sfw>
  </metadata>
</svg>