<?xml version="1.0" encoding="UTF-8"?>
<svg id="_Слой_2" xmlns="http://www.w3.org/2000/svg" version="1.1" xmlns:xlink="http://www.w3.org/1999/xlink" viewBox="0 0 2241.6 397.2">
  <!-- Generator: Adobe Illustrator 29.1.0, SVG Export Plug-In . SVG Version: 2.1.0 Build 142)  -->
  <defs>
    <style>
      .st0 {
        fill: url(#_Безымянный_градиент_4);
      }

      .st1 {
        fill: url(#_Безымянный_градиент_5);
      }

      .st2 {
        fill: none;
      }

      .st3 {
        clip-path: url(#clippath-1);
      }

      .st4 {
        fill: url(#_Безымянный_градиент_2);
      }

      .st5 {
        fill: url(#_Безымянный_градиент);
      }

      .st6 {
        fill: #9564ff;
      }

      .st7 {
        fill: #bbfd44;
      }

      .st8 {
        fill: url(#_Безымянный_градиент_3);
      }

      .st9 {
        clip-path: url(#clippath);
      }
    </style>
    <clipPath id="clippath">
      <rect class="st2" x="841" y="2.1" width="1390.2" height="224.1"/>
    </clipPath>
    <linearGradient id="_Безымянный_градиент" data-name="Безымянный градиент" x1="1531" y1="369.6" x2="1531" y2="166.8" gradientTransform="translate(0 400.2) scale(1 -1)" gradientUnits="userSpaceOnUse">
      <stop offset="0" stop-color="#7b30f2"/>
      <stop offset="1" stop-color="#9564ff"/>
    </linearGradient>
    <linearGradient id="_Безымянный_градиент_2" data-name="Безымянный градиент 2" x1="1071.2" y1="369.6" x2="1071.2" y2="166.8" gradientTransform="translate(0 400.2) scale(1 -1)" gradientUnits="userSpaceOnUse">
      <stop offset="0" stop-color="#7b30f2"/>
      <stop offset="1" stop-color="#9564ff"/>
    </linearGradient>
    <linearGradient id="_Безымянный_градиент_3" data-name="Безымянный градиент 3" x1="1990.6" y1="369.6" x2="1990.6" y2="166.8" gradientTransform="translate(0 400.2) scale(1 -1)" gradientUnits="userSpaceOnUse">
      <stop offset="0" stop-color="#7b30f2"/>
      <stop offset="1" stop-color="#9564ff"/>
    </linearGradient>
    <clipPath id="clippath-1">
      <rect class="st2" x="5.9" y="165.2" width="774.4" height="223.1"/>
    </clipPath>
    <linearGradient id="_Безымянный_градиент_4" data-name="Безымянный градиент 4" x1="185.1" y1="44.1" x2="185.1" y2="221.9" gradientTransform="translate(0 400.2) scale(1 -1)" gradientUnits="userSpaceOnUse">
      <stop offset="0" stop-color="#bbfd44"/>
      <stop offset="1" stop-color="#72c004"/>
    </linearGradient>
    <linearGradient id="_Безымянный_градиент_5" data-name="Безымянный градиент 5" x1="601.2" y1="44.1" x2="601.2" y2="221.9" gradientTransform="translate(0 400.2) scale(1 -1)" gradientUnits="userSpaceOnUse">
      <stop offset="0" stop-color="#bbfd44"/>
      <stop offset="1" stop-color="#72c004"/>
    </linearGradient>
  </defs>
  <g>
    <path class="st7" d="M207.3,279.4c33.6-1.2,33.2-19,31.5-40.1l-48-2.2c-5.4-27.4-4.4-55.4-2.3-83.1l178.8-1.5c.9,43.5,3.9,87.2,2.3,130.7-1.5,41.6-.1,84.1-57.9,104-34.1,11.7-129.1,9.5-169.4,7.7-54.6-2.5-84-4.1-114.8-42.1C3.1,322.4,3.1,268.8,2,233.5c-1.5-48.4-4.7-112.3,2.3-159.4,3.6-25.2,13.7-41.4,28.6-51.9C62.4,1.4,102.3,1.1,157.7,1.4c48,.2,109.3.6,204.2.7,1.5,35.4,3,70.9,4.4,106.2-85.8.4-171.7.6-257.5,1l25.3,28.7,3.4,141.5h69.9-.1Z"/>
    <path class="st7" d="M623.3,279.4c33.6-1.2,33.2-19,31.5-40.1l-48-2.2c-5.4-27.4-4.4-55.4-2.3-83.1l178.8-1.5c.9,43.5,3.9,87.2,2.3,130.7-1.5,41.6-.1,84.1-57.9,104-34.1,11.7-129.1,9.5-169.4,7.7-54.6-2.5-84-4.1-114.8-42.1-24.5-30.4-24.5-84-25.5-119.3-1.5-48.4-4.7-112.3,2.3-159.4,3.6-25.2,13.7-41.4,28.6-51.9C478.2,1.3,518.2.9,573.6,1.3c48,.2,109.3.6,204.2.7,1.5,35.4,3,70.9,4.4,106.2-85.8.4-171.7.6-257.5,1l25.3,28.7,3.4,141.5h69.9Z"/>
  </g>
  <g>
    <path class="st6" d="M1714.5,395.8h-133.3l-.3-109.8-104.2-.4-.3,109.3h-125.9c0,.1-10.8-221.6-2.7-309.2,5.8-63.1,38.4-77.4,96.7-82.7,47.5-4.3,106.4-3.3,154.3-1.1,56.7,2.6,91.3,22.8,110.6,69.4,5.4,13.1,8.1,27.1,7.9,41.2l-2.9,283.1v.2ZM1582.2,110.3h-126.2l20.8,17.8.2,51.3h105.2v-69.1Z"/>
    <path class="st6" d="M1289.7,246.5c-.3,28.5,3.1,58.2-2.3,86.4-9,46.9-56.5,61.1-98.3,63-32.9,1.5-68.3,1.6-101.3,1-35.3-.6-81.3,1.2-110.6-19.7-52.7-37.6-48.1-91.6-49.2-150.1-.9-47.1.8-94.1,2.9-141.1-28.1-22.3-58.1-42-86.9-63.5-7-5.2-18.1-12.3-23.9-18.1-.5-.6-2,0-1.3-2.3l477.3.9-2.3,139h-131.1v-31.7h-129.4l26,30.6,1.1,139.7h87.7c1.9,0,6.7-3.2,7.9-4.2,7.5-6.4,6.7-30,6.7-30h127.2-.2Z"/>
    <path class="st6" d="M2241.5,2.1c1.3,1.2-9.2,8.9-10.5,10-45.1,35.8-91.8,69.9-137.8,104.7h-95.6c11.8,8.7,20.5,17.5,32.3,26.2v252c0,0-140.3.9-140.3.9l.3-279.9-123.3-.6-.2-112.3,475.2-1h0Z"/>
  </g>
  <g class="st9">
    <g>
      <path class="st5" d="M1695.6,77.2c-16.7-40.3-45-57.8-97.5-60.2-42.4-2-103.3-3.4-152.3,1-30.4,2.7-48.4,7.7-60.4,16.7-8.2,6.2-19.6,18.4-22.7,52.4-6.7,72.8,0,242.6,2.1,292.9h96.6c0-.1.3-109.5.3-109.5l134.1.6.3,109.7h103.5l2.7-268.3c0-12.3-2.2-24.2-6.8-35.3h.1ZM1597.2,194.4h-135.2l-.3-59.4-46.3-39.7h181.8v99.1h0Z"/>
      <path class="st4" d="M1177.6,126.9v-31.7h-176.8l43.4,51.2,1.1,149.2h102.5c8.2,0,16.6-6.9,17.5-7.7,6.1-5.2,9.8-13.8,11.3-26.4h98c0,3.7.2,7.3.3,10.9.6,20.3,1.1,39.5-2.4,57.7-7.6,39.2-50,49.3-84.3,50.8-29.9,1.3-63.6,1.7-100.4,1-3.6,0-7.4,0-11.2-.1-32.1-.3-68.4-.7-90.9-16.8-41.7-29.7-42.2-70.6-42.7-122.3,0-5.2,0-10.5-.2-15.9-1-48.9,1-98,2.9-140.1l.3-7.7-6-4.8c-17.2-13.6-35.2-26.4-52.6-38.8-8.4-6-17.1-12.1-25.6-18.3l418.9.8-1.8,109h-101.4.1Z"/>
      <path class="st8" d="M2200.1,17.1c-24.4,18.9-49.3,37.5-73.5,55.7-12.6,9.5-25.6,19.2-38.5,28.9h-136.3c0,0,36.8,27,36.8,27,5.5,4.1,10.3,8.1,15.3,12.4,3.5,3,7,6,10.9,9.1v229.7l-110.3.7.3-279.7-123.4-.6-.2-82.4,418.8-.9h0Z"/>
    </g>
  </g>
  <g class="st3">
    <g>
      <path class="st0" d="M352.9,282.7c0,1.9,0,3.8-.1,5.7-1.3,42.7-4.4,69.8-46.9,84.3-26.8,9.3-104.3,9.4-162.7,6.7-52.2-2.3-76-3.5-102-35.9-19.9-24.7-21.2-70.6-22.2-104.4,0-2.1,0-4.2-.1-6.3-.1-5.7-.4-11.5-.5-17.4-1.5-44.1-3.2-99,2.7-139.4,3-19.8,9.9-33.1,22.3-41.7,22-15.6,52.7-17.5,99.1-17.5s10.1,0,15.3,0c54.4.4,114.5.5,188.1.7l3.1,75.5-275.1,1,43.7,49.5,3.6,151.3h87c17.2-.6,29.6-5.1,37.8-13.6,12.2-12.7,10.8-30.3,9.7-43.1l-1.2-13.6-48.9-2.2c-2.3-17.7-2-35.7-1.1-53l146.7-1.2c.3,8.4.5,16.8.8,24.9,1.1,29.5,2.2,59.9,1.1,89.7h0Z"/>
      <path class="st1" d="M768.9,282.7c0,1.9,0,3.8-.1,5.7-1.5,42.7-4.4,69.8-46.9,84.3-26.8,9.3-104.3,9.4-162.7,6.7-52.2-2.3-76-3.5-102-35.9-19.9-24.7-21.2-70.6-22-104.4,0-2.1,0-4.2-.1-6.3-.1-5.7-.4-11.5-.5-17.4-1.5-44.1-3.2-99,2.7-139.4,2.8-19.8,9.9-33.1,22.3-41.7,22-15.6,52.7-17.5,99.1-17.5s10.1,0,15.3,0c54.4.4,114.5.5,188.1.7l3.1,75.5-275.1,1,43.7,49.5,3.6,151.3h87c17.2-.6,29.6-5.1,37.8-13.6,12.2-12.7,10.8-30.3,9.7-43.1l-1.2-13.6-48.9-2.2c-2.3-17.7-2-35.7-1.1-53l146.7-1.2c.3,8.4.5,16.8.8,24.9,1.1,29.5,2.2,59.9,1.1,89.7h-.1Z"/>
    </g>
  </g>
  <metadata>
    <sfw xmlns="http://ns.adobe.com/SaveForWeb/1.0/">
      <slices/>
      <sliceSourceBounds x="-241.56" y="0.16" width="2241.57" height="397.23" bottomLeftOrigin="true"/>
    </sfw>
  </metadata>
</svg>