<svg width="43" height="21" viewBox="0 0 43 21" fill="none" xmlns="http://www.w3.org/2000/svg">
<path d="M9.25983 1.05115C9.80912 0.886324 10.2298 1.1719 10.4151 1.34509C10.6018 1.51963 10.7336 1.73589 10.8262 1.9115C11.0199 2.27873 11.2065 2.79047 11.3917 3.39978C11.578 4.01302 11.7091 4.54497 11.753 4.95935C11.7692 5.11225 11.7786 5.29813 11.7559 5.48962C12.0874 4.90104 12.6396 4.53417 13.3282 4.43298L13.6387 4.39978C14.3577 4.35312 15.0433 4.51859 15.6553 4.91931H15.6544C15.7321 4.96956 15.8071 5.02223 15.879 5.07751C15.9907 4.94726 16.1097 4.82166 16.2374 4.70349C16.8069 4.17675 17.469 3.82424 18.2169 3.71423C19.0834 3.5869 20.2282 3.63251 20.7911 4.61365L20.7999 4.6283L20.8067 4.64197C20.979 4.96647 21.0365 5.34463 21.0577 5.66736C21.0717 5.88007 21.0707 6.11445 21.0606 6.36755C21.2693 6.01795 21.5141 5.68924 21.795 5.3822C22.9043 4.14598 24.3475 3.53543 26.0401 3.54919C27.5171 3.56146 28.8083 3.92514 29.795 4.74841L29.9883 4.91931L29.9981 4.9281V4.92908C30.7348 5.63747 31.1904 6.48525 31.3516 7.4447C31.6893 6.92431 32.0971 6.46297 32.5762 6.06482L32.8223 5.87048C34.1423 4.8627 35.6738 4.5306 37.335 4.85974H37.336C38.7841 5.14694 39.984 5.74439 40.7999 6.73669L40.9581 6.9408L40.9659 6.95154C41.7264 8.02201 41.9898 9.23173 41.7354 10.516C41.476 11.8251 40.8654 12.8993 39.7881 13.5179C39.7825 13.5212 39.7762 13.5235 39.7706 13.5267C39.7776 13.5433 39.7847 13.5585 39.7901 13.5726C39.8407 13.685 39.8778 13.8009 39.9044 13.8939L40.0128 14.2592C40.1091 14.6219 40.1685 14.9784 40.1788 15.3236C40.1915 15.7533 40.1378 16.2114 39.9278 16.6166C39.7238 17.01 39.3891 17.3255 38.9317 17.472L38.9327 17.474C37.7587 17.8909 36.3959 17.9047 34.9024 17.6088H34.9014C33.2806 17.2872 31.988 16.4402 31.084 15.0892C30.9746 14.9257 30.8754 14.7581 30.7852 14.5873C30.7825 14.5969 30.7813 14.607 30.7784 14.6166C30.6509 15.0425 30.3806 15.4142 29.959 15.6429L29.96 15.6439C29.0186 16.1938 27.8781 16.4677 26.588 16.5189L26.0255 16.5267C24.3742 16.5128 22.9445 15.9248 21.8038 14.765C20.6222 13.5633 20.0919 11.9627 20.1075 10.0912C20.1097 9.82192 20.1233 9.55821 20.1475 9.30017C20.0992 9.33123 20.044 9.36392 19.9796 9.39001L19.9786 9.38904C19.7873 9.46636 19.6209 9.46474 19.5772 9.46423C19.5077 9.4634 19.4499 9.45679 19.4151 9.45154C19.3439 9.4408 19.2778 9.4242 19.2296 9.4115C19.1432 9.38877 19.0434 9.35581 18.9356 9.3197C18.9281 9.31768 18.9203 9.31757 18.9131 9.3158C18.9163 9.37574 18.9232 9.44737 18.9356 9.53162L19.7921 15.3607L19.794 15.3763L19.796 15.391C19.8664 15.999 19.4108 16.321 19.3594 16.3578C19.2367 16.4457 19.1134 16.4958 19.0479 16.5209C18.9012 16.5769 18.7268 16.6217 18.5577 16.6595C18.2053 16.7385 17.7001 16.8252 17.0596 16.9193L17.044 16.9213C16.4044 17.0047 15.8987 17.0591 15.5421 17.0804C15.3707 17.0907 15.1947 17.096 15.043 17.0844C14.9759 17.0792 14.8475 17.0671 14.709 17.0209C14.6405 16.998 14.5119 16.9479 14.3799 16.8431C14.238 16.7304 14.051 16.5166 14.003 16.1898L13.1182 10.1752C12.6176 10.102 12.2437 9.77622 12.0079 9.44568C11.7121 9.03094 11.5542 8.53437 11.4786 8.0199C11.3812 7.35729 11.3659 6.71116 11.5059 6.14099C11.382 6.30869 11.1989 6.46651 10.9268 6.54919L8.19147 7.38123L8.30865 7.76697L9.81061 7.31189L9.98834 7.27185C10.3937 7.21416 10.7254 7.38966 10.918 7.54822C11.1202 7.7147 11.2583 7.92456 11.3506 8.08826C11.5427 8.42881 11.7147 8.89582 11.878 9.43298C12.0427 9.97522 12.1604 10.4576 12.1954 10.8422C12.2121 11.0261 12.2187 11.2717 12.1534 11.517C12.0851 11.7735 11.8801 12.2023 11.3653 12.3588L9.84381 12.8207L11.0323 16.7308C11.2152 17.3329 10.9033 17.8034 10.6573 18.0414C10.4237 18.2672 10.1212 18.4287 9.84381 18.5502H9.84283C9.3808 18.7521 8.92839 18.9223 8.48541 19.057L8.4649 19.0629L8.44537 19.0677L7.48444 19.3168L7.44635 19.3265L7.40826 19.3334C7.03849 19.3994 6.66809 19.4406 6.34674 19.4115C6.12621 19.3915 5.38594 19.2861 5.15729 18.5404L5.15631 18.5385L1.09186 5.1615C1.01366 4.90417 0.897797 4.39249 1.17975 3.91345C1.42533 3.49551 1.8294 3.30995 2.11823 3.22205L9.2569 1.05212L9.25983 1.05115ZM30.0645 11.599C30.0601 11.6028 30.0553 11.606 30.0508 11.6097C30.0613 11.6254 30.0708 11.6401 30.0792 11.6537C30.0942 11.6753 30.1083 11.6973 30.1221 11.7191C30.1227 11.6608 30.1221 11.6021 30.1241 11.5433C30.104 11.5614 30.0852 11.5813 30.0645 11.599Z" fill="url(#paint0_radial_2371_389)" stroke="white" stroke-width="2"/>
<defs>
<radialGradient id="paint0_radial_2371_389" cx="0" cy="0" r="1" gradientTransform="matrix(28.5923 10.2156 -2.61136 31.2318 9.23639 6.9287)" gradientUnits="userSpaceOnUse">
<stop stop-color="#E9CA2C"/>
<stop offset="0.65951" stop-color="#FF8800"/>
</radialGradient>
</defs>
</svg>
